%TF.GenerationSoftware,KiCad,Pcbnew,(5.99.0-3299-gfc1665ff2)*%
%TF.CreationDate,2020-09-21T16:58:29+07:00*%
%TF.ProjectId,smart_wristband,736d6172-745f-4777-9269-737462616e64,rev?*%
%TF.SameCoordinates,Original*%
%TF.FileFunction,Legend,Top*%
%TF.FilePolarity,Positive*%
%FSLAX46Y46*%
G04 Gerber Fmt 4.6, Leading zero omitted, Abs format (unit mm)*
G04 Created by KiCad (PCBNEW (5.99.0-3299-gfc1665ff2)) date 2020-09-21 16:58:29*
%MOMM*%
%LPD*%
G01*
G04 APERTURE LIST*
%ADD10C,0.150000*%
%ADD11C,0.120000*%
G04 APERTURE END LIST*
D10*
%TO.C,SW1*%
X148629761Y-97933333D02*
X148677380Y-97790476D01*
X148677380Y-97552380D01*
X148629761Y-97457142D01*
X148582142Y-97409523D01*
X148486904Y-97361904D01*
X148391666Y-97361904D01*
X148296428Y-97409523D01*
X148248809Y-97457142D01*
X148201190Y-97552380D01*
X148153571Y-97742857D01*
X148105952Y-97838095D01*
X148058333Y-97885714D01*
X147963095Y-97933333D01*
X147867857Y-97933333D01*
X147772619Y-97885714D01*
X147725000Y-97838095D01*
X147677380Y-97742857D01*
X147677380Y-97504761D01*
X147725000Y-97361904D01*
X147677380Y-97028571D02*
X148677380Y-96790476D01*
X147963095Y-96600000D01*
X148677380Y-96409523D01*
X147677380Y-96171428D01*
X148677380Y-95266666D02*
X148677380Y-95838095D01*
X148677380Y-95552380D02*
X147677380Y-95552380D01*
X147820238Y-95647619D01*
X147915476Y-95742857D01*
X147963095Y-95838095D01*
%TO.C,J1*%
X131166666Y-96552380D02*
X131166666Y-97266666D01*
X131119047Y-97409523D01*
X131023809Y-97504761D01*
X130880952Y-97552380D01*
X130785714Y-97552380D01*
X132166666Y-97552380D02*
X131595238Y-97552380D01*
X131880952Y-97552380D02*
X131880952Y-96552380D01*
X131785714Y-96695238D01*
X131690476Y-96790476D01*
X131595238Y-96838095D01*
%TO.C,J2*%
X103791666Y-89507380D02*
X103791666Y-90221666D01*
X103744047Y-90364523D01*
X103648809Y-90459761D01*
X103505952Y-90507380D01*
X103410714Y-90507380D01*
X104220238Y-89602619D02*
X104267857Y-89555000D01*
X104363095Y-89507380D01*
X104601190Y-89507380D01*
X104696428Y-89555000D01*
X104744047Y-89602619D01*
X104791666Y-89697857D01*
X104791666Y-89793095D01*
X104744047Y-89935952D01*
X104172619Y-90507380D01*
X104791666Y-90507380D01*
%TO.C,U2*%
X104777380Y-95836904D02*
X105586904Y-95836904D01*
X105682142Y-95789285D01*
X105729761Y-95741666D01*
X105777380Y-95646428D01*
X105777380Y-95455952D01*
X105729761Y-95360714D01*
X105682142Y-95313095D01*
X105586904Y-95265476D01*
X104777380Y-95265476D01*
X104872619Y-94836904D02*
X104825000Y-94789285D01*
X104777380Y-94694047D01*
X104777380Y-94455952D01*
X104825000Y-94360714D01*
X104872619Y-94313095D01*
X104967857Y-94265476D01*
X105063095Y-94265476D01*
X105205952Y-94313095D01*
X105777380Y-94884523D01*
X105777380Y-94265476D01*
%TO.C,C13*%
X132557142Y-99902142D02*
X132509523Y-99949761D01*
X132366666Y-99997380D01*
X132271428Y-99997380D01*
X132128571Y-99949761D01*
X132033333Y-99854523D01*
X131985714Y-99759285D01*
X131938095Y-99568809D01*
X131938095Y-99425952D01*
X131985714Y-99235476D01*
X132033333Y-99140238D01*
X132128571Y-99045000D01*
X132271428Y-98997380D01*
X132366666Y-98997380D01*
X132509523Y-99045000D01*
X132557142Y-99092619D01*
X133509523Y-99997380D02*
X132938095Y-99997380D01*
X133223809Y-99997380D02*
X133223809Y-98997380D01*
X133128571Y-99140238D01*
X133033333Y-99235476D01*
X132938095Y-99283095D01*
X133842857Y-98997380D02*
X134461904Y-98997380D01*
X134128571Y-99378333D01*
X134271428Y-99378333D01*
X134366666Y-99425952D01*
X134414285Y-99473571D01*
X134461904Y-99568809D01*
X134461904Y-99806904D01*
X134414285Y-99902142D01*
X134366666Y-99949761D01*
X134271428Y-99997380D01*
X133985714Y-99997380D01*
X133890476Y-99949761D01*
X133842857Y-99902142D01*
%TO.C,C6*%
X128782142Y-100166666D02*
X128829761Y-100214285D01*
X128877380Y-100357142D01*
X128877380Y-100452380D01*
X128829761Y-100595238D01*
X128734523Y-100690476D01*
X128639285Y-100738095D01*
X128448809Y-100785714D01*
X128305952Y-100785714D01*
X128115476Y-100738095D01*
X128020238Y-100690476D01*
X127925000Y-100595238D01*
X127877380Y-100452380D01*
X127877380Y-100357142D01*
X127925000Y-100214285D01*
X127972619Y-100166666D01*
X127877380Y-99309523D02*
X127877380Y-99500000D01*
X127925000Y-99595238D01*
X127972619Y-99642857D01*
X128115476Y-99738095D01*
X128305952Y-99785714D01*
X128686904Y-99785714D01*
X128782142Y-99738095D01*
X128829761Y-99690476D01*
X128877380Y-99595238D01*
X128877380Y-99404761D01*
X128829761Y-99309523D01*
X128782142Y-99261904D01*
X128686904Y-99214285D01*
X128448809Y-99214285D01*
X128353571Y-99261904D01*
X128305952Y-99309523D01*
X128258333Y-99404761D01*
X128258333Y-99595238D01*
X128305952Y-99690476D01*
X128353571Y-99738095D01*
X128448809Y-99785714D01*
D11*
%TO.C,R1*%
X112405000Y-93112221D02*
X112405000Y-93437779D01*
X113425000Y-93112221D02*
X113425000Y-93437779D01*
%TO.C,U4*%
X115310000Y-102355000D02*
X115310000Y-101425000D01*
X115310000Y-99195000D02*
X115310000Y-100125000D01*
X115310000Y-102355000D02*
X113850000Y-102355000D01*
X115310000Y-99195000D02*
X113150000Y-99195000D01*
%TO.C,C11*%
X116215000Y-100452779D02*
X116215000Y-100127221D01*
X117235000Y-100452779D02*
X117235000Y-100127221D01*
%TO.C,U1*%
X121325000Y-95715000D02*
X117725000Y-95715000D01*
X121325000Y-95715000D02*
X123525000Y-95715000D01*
X121325000Y-102485000D02*
X123525000Y-102485000D01*
X121325000Y-102485000D02*
X119125000Y-102485000D01*
%TO.C,R2*%
X114290000Y-93112221D02*
X114290000Y-93437779D01*
X115310000Y-93112221D02*
X115310000Y-93437779D01*
%TO.C,J3*%
X118615000Y-93210000D02*
X118615000Y-94360000D01*
X118615000Y-94360000D02*
X119665000Y-94360000D01*
X119785000Y-91240000D02*
X123665000Y-91240000D01*
X124835000Y-94360000D02*
X123785000Y-94360000D01*
X124835000Y-93210000D02*
X124835000Y-94360000D01*
X119665000Y-94360000D02*
X119665000Y-95350000D01*
%TO.C,C4*%
X111535000Y-100546267D02*
X111535000Y-100203733D01*
X110515000Y-100546267D02*
X110515000Y-100203733D01*
%TO.C,U3*%
X115060000Y-97800000D02*
X115710000Y-97800000D01*
X113140000Y-97800000D02*
X112490000Y-97800000D01*
X115710000Y-97800000D02*
X115710000Y-97650000D01*
X115710000Y-95080000D02*
X115710000Y-95230000D01*
X115060000Y-95080000D02*
X115710000Y-95080000D01*
X113140000Y-95080000D02*
X112490000Y-95080000D01*
X112490000Y-97800000D02*
X112490000Y-97650000D01*
%TO.C,C3*%
X106885000Y-100621267D02*
X106885000Y-100278733D01*
X105865000Y-100621267D02*
X105865000Y-100278733D01*
%TO.C,Y1*%
X107700439Y-99568186D02*
G75*
G02*
X109600000Y-99568719I949561J-781814D01*
G01*
X107700439Y-101131814D02*
G75*
G03*
X109600000Y-101131281I949561J781814D01*
G01*
%TO.C,J1*%
X126690000Y-95210000D02*
X128750000Y-95210000D01*
X126690000Y-89390000D02*
X126690000Y-91000000D01*
X134410000Y-95210000D02*
X132350000Y-95210000D01*
X132350000Y-95210000D02*
X132350000Y-95800000D01*
X134410000Y-93500000D02*
X134410000Y-95210000D01*
X134410000Y-89390000D02*
X134410000Y-91000000D01*
X126690000Y-93500000D02*
X126690000Y-95210000D01*
X134410000Y-89390000D02*
X126690000Y-89390000D01*
%TO.C,J2*%
X102795000Y-101775000D02*
X105455000Y-101775000D01*
X102795000Y-94095000D02*
X105455000Y-94095000D01*
X105455000Y-91495000D02*
X105455000Y-92825000D01*
X102795000Y-94095000D02*
X102795000Y-101775000D01*
X105455000Y-94095000D02*
X105455000Y-101775000D01*
X104125000Y-91495000D02*
X105455000Y-91495000D01*
%TO.C,U2*%
X111285000Y-95075000D02*
X111285000Y-93125000D01*
X111285000Y-95075000D02*
X111285000Y-97025000D01*
X106165000Y-95075000D02*
X106165000Y-93125000D01*
X106165000Y-95075000D02*
X106165000Y-98525000D01*
%TO.C,C13*%
X133028733Y-101485000D02*
X133371267Y-101485000D01*
X133028733Y-100465000D02*
X133371267Y-100465000D01*
%TO.C,C12*%
X111765000Y-100962779D02*
X111765000Y-100637221D01*
X112785000Y-100962779D02*
X112785000Y-100637221D01*
%TD*%
M02*
