%TF.GenerationSoftware,KiCad,Pcbnew,(5.99.0-3299-gfc1665ff2)*%
%TF.CreationDate,2020-09-21T16:58:29+07:00*%
%TF.ProjectId,smart_wristband,736d6172-745f-4777-9269-737462616e64,rev?*%
%TF.SameCoordinates,Original*%
%TF.FileFunction,Paste,Bot*%
%TF.FilePolarity,Positive*%
%FSLAX46Y46*%
G04 Gerber Fmt 4.6, Leading zero omitted, Abs format (unit mm)*
G04 Created by KiCad (PCBNEW (5.99.0-3299-gfc1665ff2)) date 2020-09-21 16:58:29*
%MOMM*%
%LPD*%
G01*
G04 APERTURE LIST*
%ADD10R,1.350000X1.350000*%
%ADD11O,1.350000X1.350000*%
%ADD12R,1.560000X0.400000*%
%ADD13R,1.200000X0.550000*%
%ADD14R,1.500000X0.650000*%
G04 APERTURE END LIST*
%TO.C,J5*%
G36*
G01*
X136100000Y-91575000D02*
X136100000Y-92875000D01*
G75*
G02*
X135850000Y-93125000I-250000J0D01*
G01*
X135150000Y-93125000D01*
G75*
G02*
X134900000Y-92875000I0J250000D01*
G01*
X134900000Y-91575000D01*
G75*
G02*
X135150000Y-91325000I250000J0D01*
G01*
X135850000Y-91325000D01*
G75*
G02*
X136100000Y-91575000I0J-250000D01*
G01*
G37*
G36*
G01*
X141700000Y-91575000D02*
X141700000Y-92875000D01*
G75*
G02*
X141450000Y-93125000I-250000J0D01*
G01*
X140750000Y-93125000D01*
G75*
G02*
X140500000Y-92875000I0J250000D01*
G01*
X140500000Y-91575000D01*
G75*
G02*
X140750000Y-91325000I250000J0D01*
G01*
X141450000Y-91325000D01*
G75*
G02*
X141700000Y-91575000I0J-250000D01*
G01*
G37*
G36*
G01*
X137100000Y-94125000D02*
X137100000Y-95375000D01*
G75*
G02*
X136950000Y-95525000I-150000J0D01*
G01*
X136650000Y-95525000D01*
G75*
G02*
X136500000Y-95375000I0J150000D01*
G01*
X136500000Y-94125000D01*
G75*
G02*
X136650000Y-93975000I150000J0D01*
G01*
X136950000Y-93975000D01*
G75*
G02*
X137100000Y-94125000I0J-150000D01*
G01*
G37*
G36*
G01*
X138100000Y-94125000D02*
X138100000Y-95375000D01*
G75*
G02*
X137950000Y-95525000I-150000J0D01*
G01*
X137650000Y-95525000D01*
G75*
G02*
X137500000Y-95375000I0J150000D01*
G01*
X137500000Y-94125000D01*
G75*
G02*
X137650000Y-93975000I150000J0D01*
G01*
X137950000Y-93975000D01*
G75*
G02*
X138100000Y-94125000I0J-150000D01*
G01*
G37*
G36*
G01*
X139100000Y-94125000D02*
X139100000Y-95375000D01*
G75*
G02*
X138950000Y-95525000I-150000J0D01*
G01*
X138650000Y-95525000D01*
G75*
G02*
X138500000Y-95375000I0J150000D01*
G01*
X138500000Y-94125000D01*
G75*
G02*
X138650000Y-93975000I150000J0D01*
G01*
X138950000Y-93975000D01*
G75*
G02*
X139100000Y-94125000I0J-150000D01*
G01*
G37*
G36*
G01*
X140100000Y-94125000D02*
X140100000Y-95375000D01*
G75*
G02*
X139950000Y-95525000I-150000J0D01*
G01*
X139650000Y-95525000D01*
G75*
G02*
X139500000Y-95375000I0J150000D01*
G01*
X139500000Y-94125000D01*
G75*
G02*
X139650000Y-93975000I150000J0D01*
G01*
X139950000Y-93975000D01*
G75*
G02*
X140100000Y-94125000I0J-150000D01*
G01*
G37*
%TD*%
%TO.C,D1*%
G36*
G01*
X127400000Y-92068750D02*
X127400000Y-92581250D01*
G75*
G02*
X127181250Y-92800000I-218750J0D01*
G01*
X126743750Y-92800000D01*
G75*
G02*
X126525000Y-92581250I0J218750D01*
G01*
X126525000Y-92068750D01*
G75*
G02*
X126743750Y-91850000I218750J0D01*
G01*
X127181250Y-91850000D01*
G75*
G02*
X127400000Y-92068750I0J-218750D01*
G01*
G37*
G36*
G01*
X125825000Y-92068750D02*
X125825000Y-92581250D01*
G75*
G02*
X125606250Y-92800000I-218750J0D01*
G01*
X125168750Y-92800000D01*
G75*
G02*
X124950000Y-92581250I0J218750D01*
G01*
X124950000Y-92068750D01*
G75*
G02*
X125168750Y-91850000I218750J0D01*
G01*
X125606250Y-91850000D01*
G75*
G02*
X125825000Y-92068750I0J-218750D01*
G01*
G37*
%TD*%
%TO.C,R4*%
G36*
G01*
X112931250Y-101625000D02*
X112418750Y-101625000D01*
G75*
G02*
X112200000Y-101406250I0J218750D01*
G01*
X112200000Y-100968750D01*
G75*
G02*
X112418750Y-100750000I218750J0D01*
G01*
X112931250Y-100750000D01*
G75*
G02*
X113150000Y-100968750I0J-218750D01*
G01*
X113150000Y-101406250D01*
G75*
G02*
X112931250Y-101625000I-218750J0D01*
G01*
G37*
G36*
G01*
X112931250Y-100050000D02*
X112418750Y-100050000D01*
G75*
G02*
X112200000Y-99831250I0J218750D01*
G01*
X112200000Y-99393750D01*
G75*
G02*
X112418750Y-99175000I218750J0D01*
G01*
X112931250Y-99175000D01*
G75*
G02*
X113150000Y-99393750I0J-218750D01*
G01*
X113150000Y-99831250D01*
G75*
G02*
X112931250Y-100050000I-218750J0D01*
G01*
G37*
%TD*%
%TO.C,R7*%
G36*
G01*
X131800000Y-92381250D02*
X131800000Y-91868750D01*
G75*
G02*
X132018750Y-91650000I218750J0D01*
G01*
X132456250Y-91650000D01*
G75*
G02*
X132675000Y-91868750I0J-218750D01*
G01*
X132675000Y-92381250D01*
G75*
G02*
X132456250Y-92600000I-218750J0D01*
G01*
X132018750Y-92600000D01*
G75*
G02*
X131800000Y-92381250I0J218750D01*
G01*
G37*
G36*
G01*
X133375000Y-92381250D02*
X133375000Y-91868750D01*
G75*
G02*
X133593750Y-91650000I218750J0D01*
G01*
X134031250Y-91650000D01*
G75*
G02*
X134250000Y-91868750I0J-218750D01*
G01*
X134250000Y-92381250D01*
G75*
G02*
X134031250Y-92600000I-218750J0D01*
G01*
X133593750Y-92600000D01*
G75*
G02*
X133375000Y-92381250I0J218750D01*
G01*
G37*
%TD*%
D10*
%TO.C,J4*%
X116950000Y-92700000D03*
D11*
X118950000Y-92700000D03*
%TD*%
%TO.C,C10*%
G36*
G01*
X120772500Y-93245000D02*
X120427500Y-93245000D01*
G75*
G02*
X120280000Y-93097500I0J147500D01*
G01*
X120280000Y-92802500D01*
G75*
G02*
X120427500Y-92655000I147500J0D01*
G01*
X120772500Y-92655000D01*
G75*
G02*
X120920000Y-92802500I0J-147500D01*
G01*
X120920000Y-93097500D01*
G75*
G02*
X120772500Y-93245000I-147500J0D01*
G01*
G37*
G36*
G01*
X120772500Y-92275000D02*
X120427500Y-92275000D01*
G75*
G02*
X120280000Y-92127500I0J147500D01*
G01*
X120280000Y-91832500D01*
G75*
G02*
X120427500Y-91685000I147500J0D01*
G01*
X120772500Y-91685000D01*
G75*
G02*
X120920000Y-91832500I0J-147500D01*
G01*
X120920000Y-92127500D01*
G75*
G02*
X120772500Y-92275000I-147500J0D01*
G01*
G37*
%TD*%
D12*
%TO.C,Q1*%
X126205000Y-99300000D03*
X126205000Y-99950000D03*
X126205000Y-100600000D03*
X126205000Y-101250000D03*
X120445000Y-101250000D03*
X120445000Y-100600000D03*
X120445000Y-99950000D03*
X120445000Y-99300000D03*
%TD*%
%TO.C,C5*%
G36*
G01*
X129437500Y-98550000D02*
X128962500Y-98550000D01*
G75*
G02*
X128725000Y-98312500I0J237500D01*
G01*
X128725000Y-97737500D01*
G75*
G02*
X128962500Y-97500000I237500J0D01*
G01*
X129437500Y-97500000D01*
G75*
G02*
X129675000Y-97737500I0J-237500D01*
G01*
X129675000Y-98312500D01*
G75*
G02*
X129437500Y-98550000I-237500J0D01*
G01*
G37*
G36*
G01*
X129437500Y-96800000D02*
X128962500Y-96800000D01*
G75*
G02*
X128725000Y-96562500I0J237500D01*
G01*
X128725000Y-95987500D01*
G75*
G02*
X128962500Y-95750000I237500J0D01*
G01*
X129437500Y-95750000D01*
G75*
G02*
X129675000Y-95987500I0J-237500D01*
G01*
X129675000Y-96562500D01*
G75*
G02*
X129437500Y-96800000I-237500J0D01*
G01*
G37*
%TD*%
%TO.C,D2*%
G36*
G01*
X124225000Y-91868750D02*
X124225000Y-92381250D01*
G75*
G02*
X124006250Y-92600000I-218750J0D01*
G01*
X123568750Y-92600000D01*
G75*
G02*
X123350000Y-92381250I0J218750D01*
G01*
X123350000Y-91868750D01*
G75*
G02*
X123568750Y-91650000I218750J0D01*
G01*
X124006250Y-91650000D01*
G75*
G02*
X124225000Y-91868750I0J-218750D01*
G01*
G37*
G36*
G01*
X122650000Y-91868750D02*
X122650000Y-92381250D01*
G75*
G02*
X122431250Y-92600000I-218750J0D01*
G01*
X121993750Y-92600000D01*
G75*
G02*
X121775000Y-92381250I0J218750D01*
G01*
X121775000Y-91868750D01*
G75*
G02*
X121993750Y-91650000I218750J0D01*
G01*
X122431250Y-91650000D01*
G75*
G02*
X122650000Y-91868750I0J-218750D01*
G01*
G37*
%TD*%
%TO.C,R6*%
G36*
G01*
X131150000Y-91868750D02*
X131150000Y-92381250D01*
G75*
G02*
X130931250Y-92600000I-218750J0D01*
G01*
X130493750Y-92600000D01*
G75*
G02*
X130275000Y-92381250I0J218750D01*
G01*
X130275000Y-91868750D01*
G75*
G02*
X130493750Y-91650000I218750J0D01*
G01*
X130931250Y-91650000D01*
G75*
G02*
X131150000Y-91868750I0J-218750D01*
G01*
G37*
G36*
G01*
X129575000Y-91868750D02*
X129575000Y-92381250D01*
G75*
G02*
X129356250Y-92600000I-218750J0D01*
G01*
X128918750Y-92600000D01*
G75*
G02*
X128700000Y-92381250I0J218750D01*
G01*
X128700000Y-91868750D01*
G75*
G02*
X128918750Y-91650000I218750J0D01*
G01*
X129356250Y-91650000D01*
G75*
G02*
X129575000Y-91868750I0J-218750D01*
G01*
G37*
%TD*%
D13*
%TO.C,IC2*%
X117250000Y-95000000D03*
X117250000Y-95950000D03*
X117250000Y-96900000D03*
X114650000Y-96900000D03*
X114650000Y-95950000D03*
X114650000Y-95000000D03*
%TD*%
%TO.C,R3*%
G36*
G01*
X119718750Y-95800000D02*
X120231250Y-95800000D01*
G75*
G02*
X120450000Y-96018750I0J-218750D01*
G01*
X120450000Y-96456250D01*
G75*
G02*
X120231250Y-96675000I-218750J0D01*
G01*
X119718750Y-96675000D01*
G75*
G02*
X119500000Y-96456250I0J218750D01*
G01*
X119500000Y-96018750D01*
G75*
G02*
X119718750Y-95800000I218750J0D01*
G01*
G37*
G36*
G01*
X119718750Y-97375000D02*
X120231250Y-97375000D01*
G75*
G02*
X120450000Y-97593750I0J-218750D01*
G01*
X120450000Y-98031250D01*
G75*
G02*
X120231250Y-98250000I-218750J0D01*
G01*
X119718750Y-98250000D01*
G75*
G02*
X119500000Y-98031250I0J218750D01*
G01*
X119500000Y-97593750D01*
G75*
G02*
X119718750Y-97375000I218750J0D01*
G01*
G37*
%TD*%
D14*
%TO.C,IC1*%
X121725000Y-97630000D03*
X121725000Y-96360000D03*
X121725000Y-95090000D03*
X121725000Y-93820000D03*
X127125000Y-93820000D03*
X127125000Y-95090000D03*
X127125000Y-96360000D03*
X127125000Y-97630000D03*
%TD*%
%TO.C,R5*%
G36*
G01*
X117050000Y-98168750D02*
X117050000Y-98681250D01*
G75*
G02*
X116831250Y-98900000I-218750J0D01*
G01*
X116393750Y-98900000D01*
G75*
G02*
X116175000Y-98681250I0J218750D01*
G01*
X116175000Y-98168750D01*
G75*
G02*
X116393750Y-97950000I218750J0D01*
G01*
X116831250Y-97950000D01*
G75*
G02*
X117050000Y-98168750I0J-218750D01*
G01*
G37*
G36*
G01*
X115475000Y-98168750D02*
X115475000Y-98681250D01*
G75*
G02*
X115256250Y-98900000I-218750J0D01*
G01*
X114818750Y-98900000D01*
G75*
G02*
X114600000Y-98681250I0J218750D01*
G01*
X114600000Y-98168750D01*
G75*
G02*
X114818750Y-97950000I218750J0D01*
G01*
X115256250Y-97950000D01*
G75*
G02*
X115475000Y-98168750I0J-218750D01*
G01*
G37*
%TD*%
%TO.C,C8*%
G36*
G01*
X114462500Y-101725000D02*
X113987500Y-101725000D01*
G75*
G02*
X113750000Y-101487500I0J237500D01*
G01*
X113750000Y-100912500D01*
G75*
G02*
X113987500Y-100675000I237500J0D01*
G01*
X114462500Y-100675000D01*
G75*
G02*
X114700000Y-100912500I0J-237500D01*
G01*
X114700000Y-101487500D01*
G75*
G02*
X114462500Y-101725000I-237500J0D01*
G01*
G37*
G36*
G01*
X114462500Y-99975000D02*
X113987500Y-99975000D01*
G75*
G02*
X113750000Y-99737500I0J237500D01*
G01*
X113750000Y-99162500D01*
G75*
G02*
X113987500Y-98925000I237500J0D01*
G01*
X114462500Y-98925000D01*
G75*
G02*
X114700000Y-99162500I0J-237500D01*
G01*
X114700000Y-99737500D01*
G75*
G02*
X114462500Y-99975000I-237500J0D01*
G01*
G37*
%TD*%
M02*
