%TF.GenerationSoftware,KiCad,Pcbnew,(5.99.0-3299-gfc1665ff2)*%
%TF.CreationDate,2020-09-21T16:58:29+07:00*%
%TF.ProjectId,smart_wristband,736d6172-745f-4777-9269-737462616e64,rev?*%
%TF.SameCoordinates,Original*%
%TF.FileFunction,Paste,Top*%
%TF.FilePolarity,Positive*%
%FSLAX46Y46*%
G04 Gerber Fmt 4.6, Leading zero omitted, Abs format (unit mm)*
G04 Created by KiCad (PCBNEW (5.99.0-3299-gfc1665ff2)) date 2020-09-21 16:58:29*
%MOMM*%
%LPD*%
G01*
G04 APERTURE LIST*
%ADD10R,0.900000X0.800000*%
%ADD11R,0.400000X1.400000*%
%ADD12R,1.800000X1.900000*%
%ADD13R,2.300000X1.900000*%
G04 APERTURE END LIST*
%TO.C,R1*%
G36*
G01*
X112658750Y-92050000D02*
X113171250Y-92050000D01*
G75*
G02*
X113390000Y-92268750I0J-218750D01*
G01*
X113390000Y-92706250D01*
G75*
G02*
X113171250Y-92925000I-218750J0D01*
G01*
X112658750Y-92925000D01*
G75*
G02*
X112440000Y-92706250I0J218750D01*
G01*
X112440000Y-92268750D01*
G75*
G02*
X112658750Y-92050000I218750J0D01*
G01*
G37*
G36*
G01*
X112658750Y-93625000D02*
X113171250Y-93625000D01*
G75*
G02*
X113390000Y-93843750I0J-218750D01*
G01*
X113390000Y-94281250D01*
G75*
G02*
X113171250Y-94500000I-218750J0D01*
G01*
X112658750Y-94500000D01*
G75*
G02*
X112440000Y-94281250I0J218750D01*
G01*
X112440000Y-93843750D01*
G75*
G02*
X112658750Y-93625000I218750J0D01*
G01*
G37*
%TD*%
D10*
%TO.C,U4*%
X113550000Y-99825000D03*
X113550000Y-101725000D03*
X115550000Y-100775000D03*
%TD*%
%TO.C,C11*%
G36*
G01*
X116981250Y-101515000D02*
X116468750Y-101515000D01*
G75*
G02*
X116250000Y-101296250I0J218750D01*
G01*
X116250000Y-100858750D01*
G75*
G02*
X116468750Y-100640000I218750J0D01*
G01*
X116981250Y-100640000D01*
G75*
G02*
X117200000Y-100858750I0J-218750D01*
G01*
X117200000Y-101296250D01*
G75*
G02*
X116981250Y-101515000I-218750J0D01*
G01*
G37*
G36*
G01*
X116981250Y-99940000D02*
X116468750Y-99940000D01*
G75*
G02*
X116250000Y-99721250I0J218750D01*
G01*
X116250000Y-99283750D01*
G75*
G02*
X116468750Y-99065000I218750J0D01*
G01*
X116981250Y-99065000D01*
G75*
G02*
X117200000Y-99283750I0J-218750D01*
G01*
X117200000Y-99721250D01*
G75*
G02*
X116981250Y-99940000I-218750J0D01*
G01*
G37*
%TD*%
%TO.C,U1*%
G36*
G01*
X117725000Y-96275000D02*
X117725000Y-96075000D01*
G75*
G02*
X117825000Y-95975000I100000J0D01*
G01*
X119100000Y-95975000D01*
G75*
G02*
X119200000Y-96075000I0J-100000D01*
G01*
X119200000Y-96275000D01*
G75*
G02*
X119100000Y-96375000I-100000J0D01*
G01*
X117825000Y-96375000D01*
G75*
G02*
X117725000Y-96275000I0J100000D01*
G01*
G37*
G36*
G01*
X117725000Y-96925000D02*
X117725000Y-96725000D01*
G75*
G02*
X117825000Y-96625000I100000J0D01*
G01*
X119100000Y-96625000D01*
G75*
G02*
X119200000Y-96725000I0J-100000D01*
G01*
X119200000Y-96925000D01*
G75*
G02*
X119100000Y-97025000I-100000J0D01*
G01*
X117825000Y-97025000D01*
G75*
G02*
X117725000Y-96925000I0J100000D01*
G01*
G37*
G36*
G01*
X117725000Y-97575000D02*
X117725000Y-97375000D01*
G75*
G02*
X117825000Y-97275000I100000J0D01*
G01*
X119100000Y-97275000D01*
G75*
G02*
X119200000Y-97375000I0J-100000D01*
G01*
X119200000Y-97575000D01*
G75*
G02*
X119100000Y-97675000I-100000J0D01*
G01*
X117825000Y-97675000D01*
G75*
G02*
X117725000Y-97575000I0J100000D01*
G01*
G37*
G36*
G01*
X117725000Y-98225000D02*
X117725000Y-98025000D01*
G75*
G02*
X117825000Y-97925000I100000J0D01*
G01*
X119100000Y-97925000D01*
G75*
G02*
X119200000Y-98025000I0J-100000D01*
G01*
X119200000Y-98225000D01*
G75*
G02*
X119100000Y-98325000I-100000J0D01*
G01*
X117825000Y-98325000D01*
G75*
G02*
X117725000Y-98225000I0J100000D01*
G01*
G37*
G36*
G01*
X117725000Y-98875000D02*
X117725000Y-98675000D01*
G75*
G02*
X117825000Y-98575000I100000J0D01*
G01*
X119100000Y-98575000D01*
G75*
G02*
X119200000Y-98675000I0J-100000D01*
G01*
X119200000Y-98875000D01*
G75*
G02*
X119100000Y-98975000I-100000J0D01*
G01*
X117825000Y-98975000D01*
G75*
G02*
X117725000Y-98875000I0J100000D01*
G01*
G37*
G36*
G01*
X117725000Y-99525000D02*
X117725000Y-99325000D01*
G75*
G02*
X117825000Y-99225000I100000J0D01*
G01*
X119100000Y-99225000D01*
G75*
G02*
X119200000Y-99325000I0J-100000D01*
G01*
X119200000Y-99525000D01*
G75*
G02*
X119100000Y-99625000I-100000J0D01*
G01*
X117825000Y-99625000D01*
G75*
G02*
X117725000Y-99525000I0J100000D01*
G01*
G37*
G36*
G01*
X117725000Y-100175000D02*
X117725000Y-99975000D01*
G75*
G02*
X117825000Y-99875000I100000J0D01*
G01*
X119100000Y-99875000D01*
G75*
G02*
X119200000Y-99975000I0J-100000D01*
G01*
X119200000Y-100175000D01*
G75*
G02*
X119100000Y-100275000I-100000J0D01*
G01*
X117825000Y-100275000D01*
G75*
G02*
X117725000Y-100175000I0J100000D01*
G01*
G37*
G36*
G01*
X117725000Y-100825000D02*
X117725000Y-100625000D01*
G75*
G02*
X117825000Y-100525000I100000J0D01*
G01*
X119100000Y-100525000D01*
G75*
G02*
X119200000Y-100625000I0J-100000D01*
G01*
X119200000Y-100825000D01*
G75*
G02*
X119100000Y-100925000I-100000J0D01*
G01*
X117825000Y-100925000D01*
G75*
G02*
X117725000Y-100825000I0J100000D01*
G01*
G37*
G36*
G01*
X117725000Y-101475000D02*
X117725000Y-101275000D01*
G75*
G02*
X117825000Y-101175000I100000J0D01*
G01*
X119100000Y-101175000D01*
G75*
G02*
X119200000Y-101275000I0J-100000D01*
G01*
X119200000Y-101475000D01*
G75*
G02*
X119100000Y-101575000I-100000J0D01*
G01*
X117825000Y-101575000D01*
G75*
G02*
X117725000Y-101475000I0J100000D01*
G01*
G37*
G36*
G01*
X117725000Y-102125000D02*
X117725000Y-101925000D01*
G75*
G02*
X117825000Y-101825000I100000J0D01*
G01*
X119100000Y-101825000D01*
G75*
G02*
X119200000Y-101925000I0J-100000D01*
G01*
X119200000Y-102125000D01*
G75*
G02*
X119100000Y-102225000I-100000J0D01*
G01*
X117825000Y-102225000D01*
G75*
G02*
X117725000Y-102125000I0J100000D01*
G01*
G37*
G36*
G01*
X123450000Y-102125000D02*
X123450000Y-101925000D01*
G75*
G02*
X123550000Y-101825000I100000J0D01*
G01*
X124825000Y-101825000D01*
G75*
G02*
X124925000Y-101925000I0J-100000D01*
G01*
X124925000Y-102125000D01*
G75*
G02*
X124825000Y-102225000I-100000J0D01*
G01*
X123550000Y-102225000D01*
G75*
G02*
X123450000Y-102125000I0J100000D01*
G01*
G37*
G36*
G01*
X123450000Y-101475000D02*
X123450000Y-101275000D01*
G75*
G02*
X123550000Y-101175000I100000J0D01*
G01*
X124825000Y-101175000D01*
G75*
G02*
X124925000Y-101275000I0J-100000D01*
G01*
X124925000Y-101475000D01*
G75*
G02*
X124825000Y-101575000I-100000J0D01*
G01*
X123550000Y-101575000D01*
G75*
G02*
X123450000Y-101475000I0J100000D01*
G01*
G37*
G36*
G01*
X123450000Y-100825000D02*
X123450000Y-100625000D01*
G75*
G02*
X123550000Y-100525000I100000J0D01*
G01*
X124825000Y-100525000D01*
G75*
G02*
X124925000Y-100625000I0J-100000D01*
G01*
X124925000Y-100825000D01*
G75*
G02*
X124825000Y-100925000I-100000J0D01*
G01*
X123550000Y-100925000D01*
G75*
G02*
X123450000Y-100825000I0J100000D01*
G01*
G37*
G36*
G01*
X123450000Y-100175000D02*
X123450000Y-99975000D01*
G75*
G02*
X123550000Y-99875000I100000J0D01*
G01*
X124825000Y-99875000D01*
G75*
G02*
X124925000Y-99975000I0J-100000D01*
G01*
X124925000Y-100175000D01*
G75*
G02*
X124825000Y-100275000I-100000J0D01*
G01*
X123550000Y-100275000D01*
G75*
G02*
X123450000Y-100175000I0J100000D01*
G01*
G37*
G36*
G01*
X123450000Y-99525000D02*
X123450000Y-99325000D01*
G75*
G02*
X123550000Y-99225000I100000J0D01*
G01*
X124825000Y-99225000D01*
G75*
G02*
X124925000Y-99325000I0J-100000D01*
G01*
X124925000Y-99525000D01*
G75*
G02*
X124825000Y-99625000I-100000J0D01*
G01*
X123550000Y-99625000D01*
G75*
G02*
X123450000Y-99525000I0J100000D01*
G01*
G37*
G36*
G01*
X123450000Y-98875000D02*
X123450000Y-98675000D01*
G75*
G02*
X123550000Y-98575000I100000J0D01*
G01*
X124825000Y-98575000D01*
G75*
G02*
X124925000Y-98675000I0J-100000D01*
G01*
X124925000Y-98875000D01*
G75*
G02*
X124825000Y-98975000I-100000J0D01*
G01*
X123550000Y-98975000D01*
G75*
G02*
X123450000Y-98875000I0J100000D01*
G01*
G37*
G36*
G01*
X123450000Y-98225000D02*
X123450000Y-98025000D01*
G75*
G02*
X123550000Y-97925000I100000J0D01*
G01*
X124825000Y-97925000D01*
G75*
G02*
X124925000Y-98025000I0J-100000D01*
G01*
X124925000Y-98225000D01*
G75*
G02*
X124825000Y-98325000I-100000J0D01*
G01*
X123550000Y-98325000D01*
G75*
G02*
X123450000Y-98225000I0J100000D01*
G01*
G37*
G36*
G01*
X123450000Y-97575000D02*
X123450000Y-97375000D01*
G75*
G02*
X123550000Y-97275000I100000J0D01*
G01*
X124825000Y-97275000D01*
G75*
G02*
X124925000Y-97375000I0J-100000D01*
G01*
X124925000Y-97575000D01*
G75*
G02*
X124825000Y-97675000I-100000J0D01*
G01*
X123550000Y-97675000D01*
G75*
G02*
X123450000Y-97575000I0J100000D01*
G01*
G37*
G36*
G01*
X123450000Y-96925000D02*
X123450000Y-96725000D01*
G75*
G02*
X123550000Y-96625000I100000J0D01*
G01*
X124825000Y-96625000D01*
G75*
G02*
X124925000Y-96725000I0J-100000D01*
G01*
X124925000Y-96925000D01*
G75*
G02*
X124825000Y-97025000I-100000J0D01*
G01*
X123550000Y-97025000D01*
G75*
G02*
X123450000Y-96925000I0J100000D01*
G01*
G37*
G36*
G01*
X123450000Y-96275000D02*
X123450000Y-96075000D01*
G75*
G02*
X123550000Y-95975000I100000J0D01*
G01*
X124825000Y-95975000D01*
G75*
G02*
X124925000Y-96075000I0J-100000D01*
G01*
X124925000Y-96275000D01*
G75*
G02*
X124825000Y-96375000I-100000J0D01*
G01*
X123550000Y-96375000D01*
G75*
G02*
X123450000Y-96275000I0J100000D01*
G01*
G37*
%TD*%
%TO.C,R2*%
G36*
G01*
X114543750Y-92050000D02*
X115056250Y-92050000D01*
G75*
G02*
X115275000Y-92268750I0J-218750D01*
G01*
X115275000Y-92706250D01*
G75*
G02*
X115056250Y-92925000I-218750J0D01*
G01*
X114543750Y-92925000D01*
G75*
G02*
X114325000Y-92706250I0J218750D01*
G01*
X114325000Y-92268750D01*
G75*
G02*
X114543750Y-92050000I218750J0D01*
G01*
G37*
G36*
G01*
X114543750Y-93625000D02*
X115056250Y-93625000D01*
G75*
G02*
X115275000Y-93843750I0J-218750D01*
G01*
X115275000Y-94281250D01*
G75*
G02*
X115056250Y-94500000I-218750J0D01*
G01*
X114543750Y-94500000D01*
G75*
G02*
X114325000Y-94281250I0J218750D01*
G01*
X114325000Y-93843750D01*
G75*
G02*
X114543750Y-93625000I218750J0D01*
G01*
G37*
%TD*%
%TO.C,C2*%
G36*
G01*
X116972500Y-98955000D02*
X116627500Y-98955000D01*
G75*
G02*
X116480000Y-98807500I0J147500D01*
G01*
X116480000Y-98512500D01*
G75*
G02*
X116627500Y-98365000I147500J0D01*
G01*
X116972500Y-98365000D01*
G75*
G02*
X117120000Y-98512500I0J-147500D01*
G01*
X117120000Y-98807500D01*
G75*
G02*
X116972500Y-98955000I-147500J0D01*
G01*
G37*
G36*
G01*
X116972500Y-97985000D02*
X116627500Y-97985000D01*
G75*
G02*
X116480000Y-97837500I0J147500D01*
G01*
X116480000Y-97542500D01*
G75*
G02*
X116627500Y-97395000I147500J0D01*
G01*
X116972500Y-97395000D01*
G75*
G02*
X117120000Y-97542500I0J-147500D01*
G01*
X117120000Y-97837500D01*
G75*
G02*
X116972500Y-97985000I-147500J0D01*
G01*
G37*
%TD*%
%TO.C,J3*%
G36*
G01*
X119925000Y-95200000D02*
X119925000Y-93950000D01*
G75*
G02*
X120075000Y-93800000I150000J0D01*
G01*
X120375000Y-93800000D01*
G75*
G02*
X120525000Y-93950000I0J-150000D01*
G01*
X120525000Y-95200000D01*
G75*
G02*
X120375000Y-95350000I-150000J0D01*
G01*
X120075000Y-95350000D01*
G75*
G02*
X119925000Y-95200000I0J150000D01*
G01*
G37*
G36*
G01*
X120925000Y-95200000D02*
X120925000Y-93950000D01*
G75*
G02*
X121075000Y-93800000I150000J0D01*
G01*
X121375000Y-93800000D01*
G75*
G02*
X121525000Y-93950000I0J-150000D01*
G01*
X121525000Y-95200000D01*
G75*
G02*
X121375000Y-95350000I-150000J0D01*
G01*
X121075000Y-95350000D01*
G75*
G02*
X120925000Y-95200000I0J150000D01*
G01*
G37*
G36*
G01*
X121925000Y-95200000D02*
X121925000Y-93950000D01*
G75*
G02*
X122075000Y-93800000I150000J0D01*
G01*
X122375000Y-93800000D01*
G75*
G02*
X122525000Y-93950000I0J-150000D01*
G01*
X122525000Y-95200000D01*
G75*
G02*
X122375000Y-95350000I-150000J0D01*
G01*
X122075000Y-95350000D01*
G75*
G02*
X121925000Y-95200000I0J150000D01*
G01*
G37*
G36*
G01*
X122925000Y-95200000D02*
X122925000Y-93950000D01*
G75*
G02*
X123075000Y-93800000I150000J0D01*
G01*
X123375000Y-93800000D01*
G75*
G02*
X123525000Y-93950000I0J-150000D01*
G01*
X123525000Y-95200000D01*
G75*
G02*
X123375000Y-95350000I-150000J0D01*
G01*
X123075000Y-95350000D01*
G75*
G02*
X122925000Y-95200000I0J150000D01*
G01*
G37*
G36*
G01*
X123925000Y-92700000D02*
X123925000Y-91400000D01*
G75*
G02*
X124175000Y-91150000I250000J0D01*
G01*
X124875000Y-91150000D01*
G75*
G02*
X125125000Y-91400000I0J-250000D01*
G01*
X125125000Y-92700000D01*
G75*
G02*
X124875000Y-92950000I-250000J0D01*
G01*
X124175000Y-92950000D01*
G75*
G02*
X123925000Y-92700000I0J250000D01*
G01*
G37*
G36*
G01*
X118325000Y-92700000D02*
X118325000Y-91400000D01*
G75*
G02*
X118575000Y-91150000I250000J0D01*
G01*
X119275000Y-91150000D01*
G75*
G02*
X119525000Y-91400000I0J-250000D01*
G01*
X119525000Y-92700000D01*
G75*
G02*
X119275000Y-92950000I-250000J0D01*
G01*
X118575000Y-92950000D01*
G75*
G02*
X118325000Y-92700000I0J250000D01*
G01*
G37*
%TD*%
%TO.C,C4*%
G36*
G01*
X111262500Y-101775000D02*
X110787500Y-101775000D01*
G75*
G02*
X110550000Y-101537500I0J237500D01*
G01*
X110550000Y-100962500D01*
G75*
G02*
X110787500Y-100725000I237500J0D01*
G01*
X111262500Y-100725000D01*
G75*
G02*
X111500000Y-100962500I0J-237500D01*
G01*
X111500000Y-101537500D01*
G75*
G02*
X111262500Y-101775000I-237500J0D01*
G01*
G37*
G36*
G01*
X111262500Y-100025000D02*
X110787500Y-100025000D01*
G75*
G02*
X110550000Y-99787500I0J237500D01*
G01*
X110550000Y-99212500D01*
G75*
G02*
X110787500Y-98975000I237500J0D01*
G01*
X111262500Y-98975000D01*
G75*
G02*
X111500000Y-99212500I0J-237500D01*
G01*
X111500000Y-99787500D01*
G75*
G02*
X111262500Y-100025000I-237500J0D01*
G01*
G37*
%TD*%
%TO.C,U3*%
G36*
X112973814Y-95486047D02*
G01*
X112975890Y-95485491D01*
X112979071Y-95486974D01*
X112996232Y-95490000D01*
X113009581Y-95501201D01*
X113025370Y-95508564D01*
X113231436Y-95714629D01*
X113234278Y-95718688D01*
X113236140Y-95719763D01*
X113237341Y-95723062D01*
X113247335Y-95737335D01*
X113248853Y-95754693D01*
X113254813Y-95771066D01*
X113254813Y-95815000D01*
X113252985Y-95825369D01*
X113253600Y-95828859D01*
X113251828Y-95831927D01*
X113250000Y-95842298D01*
X113236670Y-95858184D01*
X113226303Y-95876140D01*
X113219535Y-95878603D01*
X113214906Y-95884120D01*
X113194486Y-95887720D01*
X113175000Y-95894813D01*
X112700000Y-95894813D01*
X112689631Y-95892985D01*
X112686141Y-95893600D01*
X112683073Y-95891828D01*
X112672702Y-95890000D01*
X112656816Y-95876670D01*
X112638860Y-95866303D01*
X112636397Y-95859535D01*
X112630880Y-95854906D01*
X112627280Y-95834486D01*
X112620187Y-95815000D01*
X112620187Y-95565000D01*
X112622015Y-95554631D01*
X112621400Y-95551141D01*
X112623172Y-95548073D01*
X112625000Y-95537702D01*
X112638330Y-95521816D01*
X112648697Y-95503860D01*
X112655465Y-95501397D01*
X112660094Y-95495880D01*
X112680514Y-95492280D01*
X112700000Y-95485187D01*
X112968934Y-95485187D01*
X112973814Y-95486047D01*
G37*
G36*
G01*
X112625000Y-96290000D02*
X112625000Y-96090000D01*
G75*
G02*
X112725000Y-95990000I100000J0D01*
G01*
X113150000Y-95990000D01*
G75*
G02*
X113250000Y-96090000I0J-100000D01*
G01*
X113250000Y-96290000D01*
G75*
G02*
X113150000Y-96390000I-100000J0D01*
G01*
X112725000Y-96390000D01*
G75*
G02*
X112625000Y-96290000I0J100000D01*
G01*
G37*
G36*
G01*
X112625000Y-96790000D02*
X112625000Y-96590000D01*
G75*
G02*
X112725000Y-96490000I100000J0D01*
G01*
X113150000Y-96490000D01*
G75*
G02*
X113250000Y-96590000I0J-100000D01*
G01*
X113250000Y-96790000D01*
G75*
G02*
X113150000Y-96890000I-100000J0D01*
G01*
X112725000Y-96890000D01*
G75*
G02*
X112625000Y-96790000I0J100000D01*
G01*
G37*
G36*
X113185369Y-96987015D02*
G01*
X113188859Y-96986400D01*
X113191927Y-96988172D01*
X113202298Y-96990000D01*
X113218184Y-97003330D01*
X113236140Y-97013697D01*
X113238603Y-97020465D01*
X113244120Y-97025094D01*
X113247720Y-97045514D01*
X113254813Y-97065000D01*
X113254813Y-97108934D01*
X113253953Y-97113814D01*
X113254509Y-97115890D01*
X113253026Y-97119071D01*
X113250000Y-97136232D01*
X113238799Y-97149580D01*
X113231436Y-97165371D01*
X113025370Y-97371436D01*
X113021312Y-97374277D01*
X113020237Y-97376140D01*
X113016937Y-97377341D01*
X113002664Y-97387336D01*
X112985305Y-97388854D01*
X112968934Y-97394813D01*
X112700000Y-97394813D01*
X112689631Y-97392985D01*
X112686141Y-97393600D01*
X112683073Y-97391828D01*
X112672702Y-97390000D01*
X112656816Y-97376670D01*
X112638860Y-97366303D01*
X112636397Y-97359535D01*
X112630880Y-97354906D01*
X112627280Y-97334486D01*
X112620187Y-97315000D01*
X112620187Y-97065000D01*
X112622015Y-97054631D01*
X112621400Y-97051141D01*
X112623172Y-97048073D01*
X112625000Y-97037702D01*
X112638330Y-97021816D01*
X112648697Y-97003860D01*
X112655465Y-97001397D01*
X112660094Y-96995880D01*
X112680514Y-96992280D01*
X112700000Y-96985187D01*
X113175000Y-96985187D01*
X113185369Y-96987015D01*
G37*
G36*
X113735369Y-97037015D02*
G01*
X113738859Y-97036400D01*
X113741927Y-97038172D01*
X113752298Y-97040000D01*
X113768184Y-97053330D01*
X113786140Y-97063697D01*
X113788603Y-97070465D01*
X113794120Y-97075094D01*
X113797720Y-97095514D01*
X113804813Y-97115000D01*
X113804813Y-97590000D01*
X113802985Y-97600369D01*
X113803600Y-97603859D01*
X113801828Y-97606927D01*
X113800000Y-97617298D01*
X113786670Y-97633184D01*
X113776303Y-97651140D01*
X113769535Y-97653603D01*
X113764906Y-97659120D01*
X113744486Y-97662720D01*
X113725000Y-97669813D01*
X113475000Y-97669813D01*
X113464631Y-97667985D01*
X113461141Y-97668600D01*
X113458073Y-97666828D01*
X113447702Y-97665000D01*
X113431816Y-97651670D01*
X113413860Y-97641303D01*
X113411397Y-97634535D01*
X113405880Y-97629906D01*
X113402280Y-97609486D01*
X113395187Y-97590000D01*
X113395187Y-97321066D01*
X113396047Y-97316186D01*
X113395491Y-97314110D01*
X113396974Y-97310929D01*
X113400000Y-97293768D01*
X113411201Y-97280419D01*
X113418564Y-97264630D01*
X113624629Y-97058564D01*
X113628688Y-97055722D01*
X113629763Y-97053860D01*
X113633062Y-97052659D01*
X113647335Y-97042665D01*
X113664693Y-97041147D01*
X113681066Y-97035187D01*
X113725000Y-97035187D01*
X113735369Y-97037015D01*
G37*
G36*
G01*
X113900000Y-97565000D02*
X113900000Y-97140000D01*
G75*
G02*
X114000000Y-97040000I100000J0D01*
G01*
X114200000Y-97040000D01*
G75*
G02*
X114300000Y-97140000I0J-100000D01*
G01*
X114300000Y-97565000D01*
G75*
G02*
X114200000Y-97665000I-100000J0D01*
G01*
X114000000Y-97665000D01*
G75*
G02*
X113900000Y-97565000I0J100000D01*
G01*
G37*
G36*
X114523814Y-97036047D02*
G01*
X114525890Y-97035491D01*
X114529071Y-97036974D01*
X114546232Y-97040000D01*
X114559581Y-97051201D01*
X114575370Y-97058564D01*
X114781436Y-97264629D01*
X114784278Y-97268688D01*
X114786140Y-97269763D01*
X114787341Y-97273062D01*
X114797335Y-97287335D01*
X114798853Y-97304693D01*
X114804813Y-97321066D01*
X114804813Y-97590000D01*
X114802985Y-97600369D01*
X114803600Y-97603859D01*
X114801828Y-97606927D01*
X114800000Y-97617298D01*
X114786670Y-97633184D01*
X114776303Y-97651140D01*
X114769535Y-97653603D01*
X114764906Y-97659120D01*
X114744486Y-97662720D01*
X114725000Y-97669813D01*
X114475000Y-97669813D01*
X114464631Y-97667985D01*
X114461141Y-97668600D01*
X114458073Y-97666828D01*
X114447702Y-97665000D01*
X114431816Y-97651670D01*
X114413860Y-97641303D01*
X114411397Y-97634535D01*
X114405880Y-97629906D01*
X114402280Y-97609486D01*
X114395187Y-97590000D01*
X114395187Y-97115000D01*
X114397015Y-97104631D01*
X114396400Y-97101141D01*
X114398172Y-97098073D01*
X114400000Y-97087702D01*
X114413330Y-97071816D01*
X114423697Y-97053860D01*
X114430465Y-97051397D01*
X114435094Y-97045880D01*
X114455514Y-97042280D01*
X114475000Y-97035187D01*
X114518934Y-97035187D01*
X114523814Y-97036047D01*
G37*
G36*
X115510369Y-96987015D02*
G01*
X115513859Y-96986400D01*
X115516927Y-96988172D01*
X115527298Y-96990000D01*
X115543184Y-97003330D01*
X115561140Y-97013697D01*
X115563603Y-97020465D01*
X115569120Y-97025094D01*
X115572720Y-97045514D01*
X115579813Y-97065000D01*
X115579813Y-97315000D01*
X115577985Y-97325369D01*
X115578600Y-97328859D01*
X115576828Y-97331927D01*
X115575000Y-97342298D01*
X115561670Y-97358184D01*
X115551303Y-97376140D01*
X115544535Y-97378603D01*
X115539906Y-97384120D01*
X115519486Y-97387720D01*
X115500000Y-97394813D01*
X115231066Y-97394813D01*
X115226186Y-97393953D01*
X115224110Y-97394509D01*
X115220929Y-97393026D01*
X115203768Y-97390000D01*
X115190420Y-97378799D01*
X115174629Y-97371436D01*
X114968564Y-97165370D01*
X114965723Y-97161312D01*
X114963860Y-97160237D01*
X114962659Y-97156937D01*
X114952664Y-97142664D01*
X114951146Y-97125305D01*
X114945187Y-97108934D01*
X114945187Y-97065000D01*
X114947015Y-97054631D01*
X114946400Y-97051141D01*
X114948172Y-97048073D01*
X114950000Y-97037702D01*
X114963330Y-97021816D01*
X114973697Y-97003860D01*
X114980465Y-97001397D01*
X114985094Y-96995880D01*
X115005514Y-96992280D01*
X115025000Y-96985187D01*
X115500000Y-96985187D01*
X115510369Y-96987015D01*
G37*
G36*
G01*
X114950000Y-96790000D02*
X114950000Y-96590000D01*
G75*
G02*
X115050000Y-96490000I100000J0D01*
G01*
X115475000Y-96490000D01*
G75*
G02*
X115575000Y-96590000I0J-100000D01*
G01*
X115575000Y-96790000D01*
G75*
G02*
X115475000Y-96890000I-100000J0D01*
G01*
X115050000Y-96890000D01*
G75*
G02*
X114950000Y-96790000I0J100000D01*
G01*
G37*
G36*
G01*
X114950000Y-96290000D02*
X114950000Y-96090000D01*
G75*
G02*
X115050000Y-95990000I100000J0D01*
G01*
X115475000Y-95990000D01*
G75*
G02*
X115575000Y-96090000I0J-100000D01*
G01*
X115575000Y-96290000D01*
G75*
G02*
X115475000Y-96390000I-100000J0D01*
G01*
X115050000Y-96390000D01*
G75*
G02*
X114950000Y-96290000I0J100000D01*
G01*
G37*
G36*
X115510369Y-95487015D02*
G01*
X115513859Y-95486400D01*
X115516927Y-95488172D01*
X115527298Y-95490000D01*
X115543184Y-95503330D01*
X115561140Y-95513697D01*
X115563603Y-95520465D01*
X115569120Y-95525094D01*
X115572720Y-95545514D01*
X115579813Y-95565000D01*
X115579813Y-95815000D01*
X115577985Y-95825369D01*
X115578600Y-95828859D01*
X115576828Y-95831927D01*
X115575000Y-95842298D01*
X115561670Y-95858184D01*
X115551303Y-95876140D01*
X115544535Y-95878603D01*
X115539906Y-95884120D01*
X115519486Y-95887720D01*
X115500000Y-95894813D01*
X115025000Y-95894813D01*
X115014631Y-95892985D01*
X115011141Y-95893600D01*
X115008073Y-95891828D01*
X114997702Y-95890000D01*
X114981816Y-95876670D01*
X114963860Y-95866303D01*
X114961397Y-95859535D01*
X114955880Y-95854906D01*
X114952280Y-95834486D01*
X114945187Y-95815000D01*
X114945187Y-95771066D01*
X114946047Y-95766186D01*
X114945491Y-95764110D01*
X114946974Y-95760929D01*
X114950000Y-95743768D01*
X114961201Y-95730419D01*
X114968564Y-95714630D01*
X115174629Y-95508564D01*
X115178688Y-95505722D01*
X115179763Y-95503860D01*
X115183062Y-95502659D01*
X115197335Y-95492665D01*
X115214693Y-95491147D01*
X115231066Y-95485187D01*
X115500000Y-95485187D01*
X115510369Y-95487015D01*
G37*
G36*
X114735369Y-95212015D02*
G01*
X114738859Y-95211400D01*
X114741927Y-95213172D01*
X114752298Y-95215000D01*
X114768184Y-95228330D01*
X114786140Y-95238697D01*
X114788603Y-95245465D01*
X114794120Y-95250094D01*
X114797720Y-95270514D01*
X114804813Y-95290000D01*
X114804813Y-95558934D01*
X114803953Y-95563814D01*
X114804509Y-95565890D01*
X114803026Y-95569071D01*
X114800000Y-95586232D01*
X114788799Y-95599580D01*
X114781436Y-95615371D01*
X114575370Y-95821436D01*
X114571312Y-95824277D01*
X114570237Y-95826140D01*
X114566937Y-95827341D01*
X114552664Y-95837336D01*
X114535305Y-95838854D01*
X114518934Y-95844813D01*
X114475000Y-95844813D01*
X114464631Y-95842985D01*
X114461141Y-95843600D01*
X114458073Y-95841828D01*
X114447702Y-95840000D01*
X114431816Y-95826670D01*
X114413860Y-95816303D01*
X114411397Y-95809535D01*
X114405880Y-95804906D01*
X114402280Y-95784486D01*
X114395187Y-95765000D01*
X114395187Y-95290000D01*
X114397015Y-95279631D01*
X114396400Y-95276141D01*
X114398172Y-95273073D01*
X114400000Y-95262702D01*
X114413330Y-95246816D01*
X114423697Y-95228860D01*
X114430465Y-95226397D01*
X114435094Y-95220880D01*
X114455514Y-95217280D01*
X114475000Y-95210187D01*
X114725000Y-95210187D01*
X114735369Y-95212015D01*
G37*
G36*
G01*
X113900000Y-95740000D02*
X113900000Y-95315000D01*
G75*
G02*
X114000000Y-95215000I100000J0D01*
G01*
X114200000Y-95215000D01*
G75*
G02*
X114300000Y-95315000I0J-100000D01*
G01*
X114300000Y-95740000D01*
G75*
G02*
X114200000Y-95840000I-100000J0D01*
G01*
X114000000Y-95840000D01*
G75*
G02*
X113900000Y-95740000I0J100000D01*
G01*
G37*
G36*
X113735369Y-95212015D02*
G01*
X113738859Y-95211400D01*
X113741927Y-95213172D01*
X113752298Y-95215000D01*
X113768184Y-95228330D01*
X113786140Y-95238697D01*
X113788603Y-95245465D01*
X113794120Y-95250094D01*
X113797720Y-95270514D01*
X113804813Y-95290000D01*
X113804813Y-95765000D01*
X113802985Y-95775369D01*
X113803600Y-95778859D01*
X113801828Y-95781927D01*
X113800000Y-95792298D01*
X113786670Y-95808184D01*
X113776303Y-95826140D01*
X113769535Y-95828603D01*
X113764906Y-95834120D01*
X113744486Y-95837720D01*
X113725000Y-95844813D01*
X113681066Y-95844813D01*
X113676186Y-95843953D01*
X113674110Y-95844509D01*
X113670929Y-95843026D01*
X113653768Y-95840000D01*
X113640420Y-95828799D01*
X113624629Y-95821436D01*
X113418564Y-95615370D01*
X113415723Y-95611312D01*
X113413860Y-95610237D01*
X113412659Y-95606937D01*
X113402664Y-95592664D01*
X113401146Y-95575305D01*
X113395187Y-95558934D01*
X113395187Y-95290000D01*
X113397015Y-95279631D01*
X113396400Y-95276141D01*
X113398172Y-95273073D01*
X113400000Y-95262702D01*
X113413330Y-95246816D01*
X113423697Y-95228860D01*
X113430465Y-95226397D01*
X113435094Y-95220880D01*
X113455514Y-95217280D01*
X113475000Y-95210187D01*
X113725000Y-95210187D01*
X113735369Y-95212015D01*
G37*
%TD*%
%TO.C,C3*%
G36*
G01*
X106612500Y-101850000D02*
X106137500Y-101850000D01*
G75*
G02*
X105900000Y-101612500I0J237500D01*
G01*
X105900000Y-101037500D01*
G75*
G02*
X106137500Y-100800000I237500J0D01*
G01*
X106612500Y-100800000D01*
G75*
G02*
X106850000Y-101037500I0J-237500D01*
G01*
X106850000Y-101612500D01*
G75*
G02*
X106612500Y-101850000I-237500J0D01*
G01*
G37*
G36*
G01*
X106612500Y-100100000D02*
X106137500Y-100100000D01*
G75*
G02*
X105900000Y-99862500I0J237500D01*
G01*
X105900000Y-99287500D01*
G75*
G02*
X106137500Y-99050000I237500J0D01*
G01*
X106612500Y-99050000D01*
G75*
G02*
X106850000Y-99287500I0J-237500D01*
G01*
X106850000Y-99862500D01*
G75*
G02*
X106612500Y-100100000I-237500J0D01*
G01*
G37*
%TD*%
D11*
%TO.C,J1*%
X131850000Y-95100000D03*
X131200000Y-95100000D03*
X130550000Y-95100000D03*
X129900000Y-95100000D03*
X129250000Y-95100000D03*
D12*
X131700000Y-92250000D03*
X129400000Y-92250000D03*
D13*
X134300000Y-92250000D03*
X126800000Y-92250000D03*
%TD*%
%TO.C,U2*%
G36*
G01*
X106970000Y-98525000D02*
X106670000Y-98525000D01*
G75*
G02*
X106520000Y-98375000I0J150000D01*
G01*
X106520000Y-96725000D01*
G75*
G02*
X106670000Y-96575000I150000J0D01*
G01*
X106970000Y-96575000D01*
G75*
G02*
X107120000Y-96725000I0J-150000D01*
G01*
X107120000Y-98375000D01*
G75*
G02*
X106970000Y-98525000I-150000J0D01*
G01*
G37*
G36*
G01*
X108240000Y-98525000D02*
X107940000Y-98525000D01*
G75*
G02*
X107790000Y-98375000I0J150000D01*
G01*
X107790000Y-96725000D01*
G75*
G02*
X107940000Y-96575000I150000J0D01*
G01*
X108240000Y-96575000D01*
G75*
G02*
X108390000Y-96725000I0J-150000D01*
G01*
X108390000Y-98375000D01*
G75*
G02*
X108240000Y-98525000I-150000J0D01*
G01*
G37*
G36*
G01*
X109510000Y-98525000D02*
X109210000Y-98525000D01*
G75*
G02*
X109060000Y-98375000I0J150000D01*
G01*
X109060000Y-96725000D01*
G75*
G02*
X109210000Y-96575000I150000J0D01*
G01*
X109510000Y-96575000D01*
G75*
G02*
X109660000Y-96725000I0J-150000D01*
G01*
X109660000Y-98375000D01*
G75*
G02*
X109510000Y-98525000I-150000J0D01*
G01*
G37*
G36*
G01*
X110780000Y-98525000D02*
X110480000Y-98525000D01*
G75*
G02*
X110330000Y-98375000I0J150000D01*
G01*
X110330000Y-96725000D01*
G75*
G02*
X110480000Y-96575000I150000J0D01*
G01*
X110780000Y-96575000D01*
G75*
G02*
X110930000Y-96725000I0J-150000D01*
G01*
X110930000Y-98375000D01*
G75*
G02*
X110780000Y-98525000I-150000J0D01*
G01*
G37*
G36*
G01*
X110780000Y-93575000D02*
X110480000Y-93575000D01*
G75*
G02*
X110330000Y-93425000I0J150000D01*
G01*
X110330000Y-91775000D01*
G75*
G02*
X110480000Y-91625000I150000J0D01*
G01*
X110780000Y-91625000D01*
G75*
G02*
X110930000Y-91775000I0J-150000D01*
G01*
X110930000Y-93425000D01*
G75*
G02*
X110780000Y-93575000I-150000J0D01*
G01*
G37*
G36*
G01*
X109510000Y-93575000D02*
X109210000Y-93575000D01*
G75*
G02*
X109060000Y-93425000I0J150000D01*
G01*
X109060000Y-91775000D01*
G75*
G02*
X109210000Y-91625000I150000J0D01*
G01*
X109510000Y-91625000D01*
G75*
G02*
X109660000Y-91775000I0J-150000D01*
G01*
X109660000Y-93425000D01*
G75*
G02*
X109510000Y-93575000I-150000J0D01*
G01*
G37*
G36*
G01*
X108240000Y-93575000D02*
X107940000Y-93575000D01*
G75*
G02*
X107790000Y-93425000I0J150000D01*
G01*
X107790000Y-91775000D01*
G75*
G02*
X107940000Y-91625000I150000J0D01*
G01*
X108240000Y-91625000D01*
G75*
G02*
X108390000Y-91775000I0J-150000D01*
G01*
X108390000Y-93425000D01*
G75*
G02*
X108240000Y-93575000I-150000J0D01*
G01*
G37*
G36*
G01*
X106970000Y-93575000D02*
X106670000Y-93575000D01*
G75*
G02*
X106520000Y-93425000I0J150000D01*
G01*
X106520000Y-91775000D01*
G75*
G02*
X106670000Y-91625000I150000J0D01*
G01*
X106970000Y-91625000D01*
G75*
G02*
X107120000Y-91775000I0J-150000D01*
G01*
X107120000Y-93425000D01*
G75*
G02*
X106970000Y-93575000I-150000J0D01*
G01*
G37*
%TD*%
%TO.C,C1*%
G36*
G01*
X112820000Y-98772500D02*
X112820000Y-98427500D01*
G75*
G02*
X112967500Y-98280000I147500J0D01*
G01*
X113262500Y-98280000D01*
G75*
G02*
X113410000Y-98427500I0J-147500D01*
G01*
X113410000Y-98772500D01*
G75*
G02*
X113262500Y-98920000I-147500J0D01*
G01*
X112967500Y-98920000D01*
G75*
G02*
X112820000Y-98772500I0J147500D01*
G01*
G37*
G36*
G01*
X113790000Y-98772500D02*
X113790000Y-98427500D01*
G75*
G02*
X113937500Y-98280000I147500J0D01*
G01*
X114232500Y-98280000D01*
G75*
G02*
X114380000Y-98427500I0J-147500D01*
G01*
X114380000Y-98772500D01*
G75*
G02*
X114232500Y-98920000I-147500J0D01*
G01*
X113937500Y-98920000D01*
G75*
G02*
X113790000Y-98772500I0J147500D01*
G01*
G37*
%TD*%
%TO.C,C13*%
G36*
G01*
X131800000Y-101212500D02*
X131800000Y-100737500D01*
G75*
G02*
X132037500Y-100500000I237500J0D01*
G01*
X132612500Y-100500000D01*
G75*
G02*
X132850000Y-100737500I0J-237500D01*
G01*
X132850000Y-101212500D01*
G75*
G02*
X132612500Y-101450000I-237500J0D01*
G01*
X132037500Y-101450000D01*
G75*
G02*
X131800000Y-101212500I0J237500D01*
G01*
G37*
G36*
G01*
X133550000Y-101212500D02*
X133550000Y-100737500D01*
G75*
G02*
X133787500Y-100500000I237500J0D01*
G01*
X134362500Y-100500000D01*
G75*
G02*
X134600000Y-100737500I0J-237500D01*
G01*
X134600000Y-101212500D01*
G75*
G02*
X134362500Y-101450000I-237500J0D01*
G01*
X133787500Y-101450000D01*
G75*
G02*
X133550000Y-101212500I0J237500D01*
G01*
G37*
%TD*%
%TO.C,C6*%
G36*
G01*
X126412500Y-98145000D02*
X126757500Y-98145000D01*
G75*
G02*
X126905000Y-98292500I0J-147500D01*
G01*
X126905000Y-98587500D01*
G75*
G02*
X126757500Y-98735000I-147500J0D01*
G01*
X126412500Y-98735000D01*
G75*
G02*
X126265000Y-98587500I0J147500D01*
G01*
X126265000Y-98292500D01*
G75*
G02*
X126412500Y-98145000I147500J0D01*
G01*
G37*
G36*
G01*
X126412500Y-99115000D02*
X126757500Y-99115000D01*
G75*
G02*
X126905000Y-99262500I0J-147500D01*
G01*
X126905000Y-99557500D01*
G75*
G02*
X126757500Y-99705000I-147500J0D01*
G01*
X126412500Y-99705000D01*
G75*
G02*
X126265000Y-99557500I0J147500D01*
G01*
X126265000Y-99262500D01*
G75*
G02*
X126412500Y-99115000I147500J0D01*
G01*
G37*
%TD*%
%TO.C,C12*%
G36*
G01*
X112531250Y-102025000D02*
X112018750Y-102025000D01*
G75*
G02*
X111800000Y-101806250I0J218750D01*
G01*
X111800000Y-101368750D01*
G75*
G02*
X112018750Y-101150000I218750J0D01*
G01*
X112531250Y-101150000D01*
G75*
G02*
X112750000Y-101368750I0J-218750D01*
G01*
X112750000Y-101806250D01*
G75*
G02*
X112531250Y-102025000I-218750J0D01*
G01*
G37*
G36*
G01*
X112531250Y-100450000D02*
X112018750Y-100450000D01*
G75*
G02*
X111800000Y-100231250I0J218750D01*
G01*
X111800000Y-99793750D01*
G75*
G02*
X112018750Y-99575000I218750J0D01*
G01*
X112531250Y-99575000D01*
G75*
G02*
X112750000Y-99793750I0J-218750D01*
G01*
X112750000Y-100231250D01*
G75*
G02*
X112531250Y-100450000I-218750J0D01*
G01*
G37*
%TD*%
M02*
