M48
; DRILL file {KiCad (5.99.0-3299-gfc1665ff2)} date 09/21/20 16:58:33
; FORMAT={-:-/ absolute / metric / decimal}
; #@! TF.CreationDate,2020-09-21T16:58:33+07:00
; #@! TF.GenerationSoftware,Kicad,Pcbnew,(5.99.0-3299-gfc1665ff2)
; #@! TF.FileFunction,Plated,1,2,PTH
FMAT,2
METRIC
T1C0.300
T2C0.500
T3C1.000
%
G90
G05
T1
X109.36Y-92.6
X109.754Y-94.875
X109.975Y-96.025
X110.85Y-96.05
X110.992Y-100.942
X111.775Y-92.275
X111.777Y-95.425
X112.887Y-94.062
X114.225Y-98.625
X114.225Y-99.45
X115.825Y-99.775
X116.0Y-94.625
X116.425Y-92.25
X116.775Y-100.925
X119.975Y-99.875
X120.6Y-91.925
X121.975Y-99.775
X122.15Y-97.63
X122.45Y-100.6
X126.562Y-98.462
X127.85Y-99.435
X129.45Y-93.8
X131.9Y-95.175
X132.75Y-94.425
X133.55Y-93.75
X133.65Y-94.8
X134.075Y-100.975
X141.875Y-94.575
X142.0Y-99.325
T2
X107.7Y-100.35
X109.6Y-100.35
T3
X104.125Y-92.825
X104.125Y-95.365
X104.125Y-97.905
X104.125Y-100.445
T0
M30
