%TF.GenerationSoftware,KiCad,Pcbnew,(5.99.0-3299-gfc1665ff2)*%
%TF.CreationDate,2020-09-21T16:58:29+07:00*%
%TF.ProjectId,smart_wristband,736d6172-745f-4777-9269-737462616e64,rev?*%
%TF.SameCoordinates,Original*%
%TF.FileFunction,Copper,L1,Top*%
%TF.FilePolarity,Positive*%
%FSLAX46Y46*%
G04 Gerber Fmt 4.6, Leading zero omitted, Abs format (unit mm)*
G04 Created by KiCad (PCBNEW (5.99.0-3299-gfc1665ff2)) date 2020-09-21 16:58:29*
%MOMM*%
%LPD*%
G01*
G04 APERTURE LIST*
%TA.AperFunction,SMDPad,CuDef*%
%ADD10R,0.900000X0.800000*%
%TD*%
%TA.AperFunction,SMDPad,CuDef*%
%ADD11R,5.000000X3.333333*%
%TD*%
%TA.AperFunction,ComponentPad*%
%ADD12C,1.000000*%
%TD*%
%TA.AperFunction,SMDPad,CuDef*%
%ADD13R,0.400000X1.400000*%
%TD*%
%TA.AperFunction,SMDPad,CuDef*%
%ADD14R,1.800000X1.900000*%
%TD*%
%TA.AperFunction,SMDPad,CuDef*%
%ADD15R,2.300000X1.900000*%
%TD*%
%TA.AperFunction,ComponentPad*%
%ADD16R,1.700000X1.700000*%
%TD*%
%TA.AperFunction,ComponentPad*%
%ADD17O,1.700000X1.700000*%
%TD*%
%TA.AperFunction,ViaPad*%
%ADD18C,1.000000*%
%TD*%
%TA.AperFunction,ViaPad*%
%ADD19C,0.600000*%
%TD*%
%TA.AperFunction,Conductor*%
%ADD20C,0.150000*%
%TD*%
%TA.AperFunction,Conductor*%
%ADD21C,0.254000*%
%TD*%
%TA.AperFunction,Conductor*%
%ADD22C,0.500000*%
%TD*%
G04 APERTURE END LIST*
%TO.P,R1,1*%
%TO.N,+3V3*%
%TA.AperFunction,SMDPad,CuDef*%
G36*
G01*
X112658750Y-92050000D02*
X113171250Y-92050000D01*
G75*
G02*
X113390000Y-92268750I0J-218750D01*
G01*
X113390000Y-92706250D01*
G75*
G02*
X113171250Y-92925000I-218750J0D01*
G01*
X112658750Y-92925000D01*
G75*
G02*
X112440000Y-92706250I0J218750D01*
G01*
X112440000Y-92268750D01*
G75*
G02*
X112658750Y-92050000I218750J0D01*
G01*
G37*
%TD.AperFunction*%
%TO.P,R1,2*%
%TO.N,SDA*%
%TA.AperFunction,SMDPad,CuDef*%
G36*
G01*
X112658750Y-93625000D02*
X113171250Y-93625000D01*
G75*
G02*
X113390000Y-93843750I0J-218750D01*
G01*
X113390000Y-94281250D01*
G75*
G02*
X113171250Y-94500000I-218750J0D01*
G01*
X112658750Y-94500000D01*
G75*
G02*
X112440000Y-94281250I0J218750D01*
G01*
X112440000Y-93843750D01*
G75*
G02*
X112658750Y-93625000I218750J0D01*
G01*
G37*
%TD.AperFunction*%
%TD*%
D10*
%TO.P,U4,1,GND*%
%TO.N,GND*%
X113550000Y-99825000D03*
%TO.P,U4,2,VO*%
%TO.N,+3V3*%
X113550000Y-101725000D03*
%TO.P,U4,3,VI*%
%TO.N,Vdrive*%
X115550000Y-100775000D03*
%TD*%
D11*
%TO.P,SW1,1,A*%
%TO.N,CAP_Touch*%
X143775000Y-93433334D03*
%TA.AperFunction,SMDPad,CuDef*%
G36*
X136275000Y-93100000D02*
G01*
X136275000Y-97100000D01*
X138775000Y-95100000D01*
X136275000Y-93100000D01*
G37*
%TD.AperFunction*%
%TA.AperFunction,SMDPad,CuDef*%
G36*
X143775000Y-95100000D02*
G01*
X146275000Y-97100000D01*
X146275000Y-93100000D01*
X143775000Y-95100000D01*
G37*
%TD.AperFunction*%
%TA.AperFunction,SMDPad,CuDef*%
G36*
X141275000Y-93100000D02*
G01*
X141275000Y-97100000D01*
X143775000Y-95100000D01*
X141275000Y-93100000D01*
G37*
%TD.AperFunction*%
X138775000Y-93433334D03*
%TA.AperFunction,SMDPad,CuDef*%
G36*
X138775000Y-95100000D02*
G01*
X141275000Y-97100000D01*
X141275000Y-93100000D01*
X138775000Y-95100000D01*
G37*
%TD.AperFunction*%
%TA.AperFunction,SMDPad,CuDef*%
%TO.P,SW1,2,B*%
%TO.N,CAP_Touch1*%
G36*
X143775000Y-96100000D02*
G01*
X141275000Y-98100000D01*
X146275000Y-98100000D01*
X143775000Y-96100000D01*
X143775000Y-96100000D01*
G37*
%TD.AperFunction*%
X143775000Y-99766666D03*
X138775000Y-99766666D03*
%TA.AperFunction,SMDPad,CuDef*%
G36*
X138775000Y-96100000D02*
G01*
X136275000Y-98100000D01*
X141275000Y-98100000D01*
X138775000Y-96100000D01*
X138775000Y-96100000D01*
G37*
%TD.AperFunction*%
%TD*%
%TO.P,C11,1*%
%TO.N,Vdrive*%
%TA.AperFunction,SMDPad,CuDef*%
G36*
G01*
X116981250Y-101515000D02*
X116468750Y-101515000D01*
G75*
G02*
X116250000Y-101296250I0J218750D01*
G01*
X116250000Y-100858750D01*
G75*
G02*
X116468750Y-100640000I218750J0D01*
G01*
X116981250Y-100640000D01*
G75*
G02*
X117200000Y-100858750I0J-218750D01*
G01*
X117200000Y-101296250D01*
G75*
G02*
X116981250Y-101515000I-218750J0D01*
G01*
G37*
%TD.AperFunction*%
%TO.P,C11,2*%
%TO.N,GND*%
%TA.AperFunction,SMDPad,CuDef*%
G36*
G01*
X116981250Y-99940000D02*
X116468750Y-99940000D01*
G75*
G02*
X116250000Y-99721250I0J218750D01*
G01*
X116250000Y-99283750D01*
G75*
G02*
X116468750Y-99065000I218750J0D01*
G01*
X116981250Y-99065000D01*
G75*
G02*
X117200000Y-99283750I0J-218750D01*
G01*
X117200000Y-99721250D01*
G75*
G02*
X116981250Y-99940000I-218750J0D01*
G01*
G37*
%TD.AperFunction*%
%TD*%
%TO.P,U1,1,PB8*%
%TO.N,Net-(U1-Pad1)*%
%TA.AperFunction,SMDPad,CuDef*%
G36*
G01*
X117725000Y-96275000D02*
X117725000Y-96075000D01*
G75*
G02*
X117825000Y-95975000I100000J0D01*
G01*
X119100000Y-95975000D01*
G75*
G02*
X119200000Y-96075000I0J-100000D01*
G01*
X119200000Y-96275000D01*
G75*
G02*
X119100000Y-96375000I-100000J0D01*
G01*
X117825000Y-96375000D01*
G75*
G02*
X117725000Y-96275000I0J100000D01*
G01*
G37*
%TD.AperFunction*%
%TO.P,U1,2,PF0*%
%TO.N,SCL*%
%TA.AperFunction,SMDPad,CuDef*%
G36*
G01*
X117725000Y-96925000D02*
X117725000Y-96725000D01*
G75*
G02*
X117825000Y-96625000I100000J0D01*
G01*
X119100000Y-96625000D01*
G75*
G02*
X119200000Y-96725000I0J-100000D01*
G01*
X119200000Y-96925000D01*
G75*
G02*
X119100000Y-97025000I-100000J0D01*
G01*
X117825000Y-97025000D01*
G75*
G02*
X117725000Y-96925000I0J100000D01*
G01*
G37*
%TD.AperFunction*%
%TO.P,U1,3,PF1*%
%TO.N,SDA*%
%TA.AperFunction,SMDPad,CuDef*%
G36*
G01*
X117725000Y-97575000D02*
X117725000Y-97375000D01*
G75*
G02*
X117825000Y-97275000I100000J0D01*
G01*
X119100000Y-97275000D01*
G75*
G02*
X119200000Y-97375000I0J-100000D01*
G01*
X119200000Y-97575000D01*
G75*
G02*
X119100000Y-97675000I-100000J0D01*
G01*
X117825000Y-97675000D01*
G75*
G02*
X117725000Y-97575000I0J100000D01*
G01*
G37*
%TD.AperFunction*%
%TO.P,U1,4,NRST*%
%TO.N,+3V3*%
%TA.AperFunction,SMDPad,CuDef*%
G36*
G01*
X117725000Y-98225000D02*
X117725000Y-98025000D01*
G75*
G02*
X117825000Y-97925000I100000J0D01*
G01*
X119100000Y-97925000D01*
G75*
G02*
X119200000Y-98025000I0J-100000D01*
G01*
X119200000Y-98225000D01*
G75*
G02*
X119100000Y-98325000I-100000J0D01*
G01*
X117825000Y-98325000D01*
G75*
G02*
X117725000Y-98225000I0J100000D01*
G01*
G37*
%TD.AperFunction*%
%TO.P,U1,5,VDDA*%
%TA.AperFunction,SMDPad,CuDef*%
G36*
G01*
X117725000Y-98875000D02*
X117725000Y-98675000D01*
G75*
G02*
X117825000Y-98575000I100000J0D01*
G01*
X119100000Y-98575000D01*
G75*
G02*
X119200000Y-98675000I0J-100000D01*
G01*
X119200000Y-98875000D01*
G75*
G02*
X119100000Y-98975000I-100000J0D01*
G01*
X117825000Y-98975000D01*
G75*
G02*
X117725000Y-98875000I0J100000D01*
G01*
G37*
%TD.AperFunction*%
%TO.P,U1,6,PA0*%
%TO.N,Net-(U1-Pad6)*%
%TA.AperFunction,SMDPad,CuDef*%
G36*
G01*
X117725000Y-99525000D02*
X117725000Y-99325000D01*
G75*
G02*
X117825000Y-99225000I100000J0D01*
G01*
X119100000Y-99225000D01*
G75*
G02*
X119200000Y-99325000I0J-100000D01*
G01*
X119200000Y-99525000D01*
G75*
G02*
X119100000Y-99625000I-100000J0D01*
G01*
X117825000Y-99625000D01*
G75*
G02*
X117725000Y-99525000I0J100000D01*
G01*
G37*
%TD.AperFunction*%
%TO.P,U1,7,PA1*%
%TO.N,Net-(U1-Pad7)*%
%TA.AperFunction,SMDPad,CuDef*%
G36*
G01*
X117725000Y-100175000D02*
X117725000Y-99975000D01*
G75*
G02*
X117825000Y-99875000I100000J0D01*
G01*
X119100000Y-99875000D01*
G75*
G02*
X119200000Y-99975000I0J-100000D01*
G01*
X119200000Y-100175000D01*
G75*
G02*
X119100000Y-100275000I-100000J0D01*
G01*
X117825000Y-100275000D01*
G75*
G02*
X117725000Y-100175000I0J100000D01*
G01*
G37*
%TD.AperFunction*%
%TO.P,U1,8,PA2*%
%TO.N,TX*%
%TA.AperFunction,SMDPad,CuDef*%
G36*
G01*
X117725000Y-100825000D02*
X117725000Y-100625000D01*
G75*
G02*
X117825000Y-100525000I100000J0D01*
G01*
X119100000Y-100525000D01*
G75*
G02*
X119200000Y-100625000I0J-100000D01*
G01*
X119200000Y-100825000D01*
G75*
G02*
X119100000Y-100925000I-100000J0D01*
G01*
X117825000Y-100925000D01*
G75*
G02*
X117725000Y-100825000I0J100000D01*
G01*
G37*
%TD.AperFunction*%
%TO.P,U1,9,PA3*%
%TO.N,RX*%
%TA.AperFunction,SMDPad,CuDef*%
G36*
G01*
X117725000Y-101475000D02*
X117725000Y-101275000D01*
G75*
G02*
X117825000Y-101175000I100000J0D01*
G01*
X119100000Y-101175000D01*
G75*
G02*
X119200000Y-101275000I0J-100000D01*
G01*
X119200000Y-101475000D01*
G75*
G02*
X119100000Y-101575000I-100000J0D01*
G01*
X117825000Y-101575000D01*
G75*
G02*
X117725000Y-101475000I0J100000D01*
G01*
G37*
%TD.AperFunction*%
%TO.P,U1,10,PA4*%
%TO.N,Net-(U1-Pad10)*%
%TA.AperFunction,SMDPad,CuDef*%
G36*
G01*
X117725000Y-102125000D02*
X117725000Y-101925000D01*
G75*
G02*
X117825000Y-101825000I100000J0D01*
G01*
X119100000Y-101825000D01*
G75*
G02*
X119200000Y-101925000I0J-100000D01*
G01*
X119200000Y-102125000D01*
G75*
G02*
X119100000Y-102225000I-100000J0D01*
G01*
X117825000Y-102225000D01*
G75*
G02*
X117725000Y-102125000I0J100000D01*
G01*
G37*
%TD.AperFunction*%
%TO.P,U1,11,PA5*%
%TO.N,CAP_sample*%
%TA.AperFunction,SMDPad,CuDef*%
G36*
G01*
X123450000Y-102125000D02*
X123450000Y-101925000D01*
G75*
G02*
X123550000Y-101825000I100000J0D01*
G01*
X124825000Y-101825000D01*
G75*
G02*
X124925000Y-101925000I0J-100000D01*
G01*
X124925000Y-102125000D01*
G75*
G02*
X124825000Y-102225000I-100000J0D01*
G01*
X123550000Y-102225000D01*
G75*
G02*
X123450000Y-102125000I0J100000D01*
G01*
G37*
%TD.AperFunction*%
%TO.P,U1,12,PA6*%
%TO.N,CAP_Touch1*%
%TA.AperFunction,SMDPad,CuDef*%
G36*
G01*
X123450000Y-101475000D02*
X123450000Y-101275000D01*
G75*
G02*
X123550000Y-101175000I100000J0D01*
G01*
X124825000Y-101175000D01*
G75*
G02*
X124925000Y-101275000I0J-100000D01*
G01*
X124925000Y-101475000D01*
G75*
G02*
X124825000Y-101575000I-100000J0D01*
G01*
X123550000Y-101575000D01*
G75*
G02*
X123450000Y-101475000I0J100000D01*
G01*
G37*
%TD.AperFunction*%
%TO.P,U1,13,PA7*%
%TO.N,CAP_Touch*%
%TA.AperFunction,SMDPad,CuDef*%
G36*
G01*
X123450000Y-100825000D02*
X123450000Y-100625000D01*
G75*
G02*
X123550000Y-100525000I100000J0D01*
G01*
X124825000Y-100525000D01*
G75*
G02*
X124925000Y-100625000I0J-100000D01*
G01*
X124925000Y-100825000D01*
G75*
G02*
X124825000Y-100925000I-100000J0D01*
G01*
X123550000Y-100925000D01*
G75*
G02*
X123450000Y-100825000I0J100000D01*
G01*
G37*
%TD.AperFunction*%
%TO.P,U1,14,PB1*%
%TO.N,Net-(U1-Pad14)*%
%TA.AperFunction,SMDPad,CuDef*%
G36*
G01*
X123450000Y-100175000D02*
X123450000Y-99975000D01*
G75*
G02*
X123550000Y-99875000I100000J0D01*
G01*
X124825000Y-99875000D01*
G75*
G02*
X124925000Y-99975000I0J-100000D01*
G01*
X124925000Y-100175000D01*
G75*
G02*
X124825000Y-100275000I-100000J0D01*
G01*
X123550000Y-100275000D01*
G75*
G02*
X123450000Y-100175000I0J100000D01*
G01*
G37*
%TD.AperFunction*%
%TO.P,U1,15,VSS*%
%TO.N,GND*%
%TA.AperFunction,SMDPad,CuDef*%
G36*
G01*
X123450000Y-99525000D02*
X123450000Y-99325000D01*
G75*
G02*
X123550000Y-99225000I100000J0D01*
G01*
X124825000Y-99225000D01*
G75*
G02*
X124925000Y-99325000I0J-100000D01*
G01*
X124925000Y-99525000D01*
G75*
G02*
X124825000Y-99625000I-100000J0D01*
G01*
X123550000Y-99625000D01*
G75*
G02*
X123450000Y-99525000I0J100000D01*
G01*
G37*
%TD.AperFunction*%
%TO.P,U1,16,VDD*%
%TO.N,+3V3*%
%TA.AperFunction,SMDPad,CuDef*%
G36*
G01*
X123450000Y-98875000D02*
X123450000Y-98675000D01*
G75*
G02*
X123550000Y-98575000I100000J0D01*
G01*
X124825000Y-98575000D01*
G75*
G02*
X124925000Y-98675000I0J-100000D01*
G01*
X124925000Y-98875000D01*
G75*
G02*
X124825000Y-98975000I-100000J0D01*
G01*
X123550000Y-98975000D01*
G75*
G02*
X123450000Y-98875000I0J100000D01*
G01*
G37*
%TD.AperFunction*%
%TO.P,U1,17,PA9/PA11*%
%TO.N,USB_DM*%
%TA.AperFunction,SMDPad,CuDef*%
G36*
G01*
X123450000Y-98225000D02*
X123450000Y-98025000D01*
G75*
G02*
X123550000Y-97925000I100000J0D01*
G01*
X124825000Y-97925000D01*
G75*
G02*
X124925000Y-98025000I0J-100000D01*
G01*
X124925000Y-98225000D01*
G75*
G02*
X124825000Y-98325000I-100000J0D01*
G01*
X123550000Y-98325000D01*
G75*
G02*
X123450000Y-98225000I0J100000D01*
G01*
G37*
%TD.AperFunction*%
%TO.P,U1,18,PA10/PA12*%
%TO.N,USB_DP*%
%TA.AperFunction,SMDPad,CuDef*%
G36*
G01*
X123450000Y-97575000D02*
X123450000Y-97375000D01*
G75*
G02*
X123550000Y-97275000I100000J0D01*
G01*
X124825000Y-97275000D01*
G75*
G02*
X124925000Y-97375000I0J-100000D01*
G01*
X124925000Y-97575000D01*
G75*
G02*
X124825000Y-97675000I-100000J0D01*
G01*
X123550000Y-97675000D01*
G75*
G02*
X123450000Y-97575000I0J100000D01*
G01*
G37*
%TD.AperFunction*%
%TO.P,U1,19,PA13*%
%TO.N,SWCLK*%
%TA.AperFunction,SMDPad,CuDef*%
G36*
G01*
X123450000Y-96925000D02*
X123450000Y-96725000D01*
G75*
G02*
X123550000Y-96625000I100000J0D01*
G01*
X124825000Y-96625000D01*
G75*
G02*
X124925000Y-96725000I0J-100000D01*
G01*
X124925000Y-96925000D01*
G75*
G02*
X124825000Y-97025000I-100000J0D01*
G01*
X123550000Y-97025000D01*
G75*
G02*
X123450000Y-96925000I0J100000D01*
G01*
G37*
%TD.AperFunction*%
%TO.P,U1,20,PA14*%
%TO.N,SWDIO*%
%TA.AperFunction,SMDPad,CuDef*%
G36*
G01*
X123450000Y-96275000D02*
X123450000Y-96075000D01*
G75*
G02*
X123550000Y-95975000I100000J0D01*
G01*
X124825000Y-95975000D01*
G75*
G02*
X124925000Y-96075000I0J-100000D01*
G01*
X124925000Y-96275000D01*
G75*
G02*
X124825000Y-96375000I-100000J0D01*
G01*
X123550000Y-96375000D01*
G75*
G02*
X123450000Y-96275000I0J100000D01*
G01*
G37*
%TD.AperFunction*%
%TD*%
%TO.P,R2,1*%
%TO.N,+3V3*%
%TA.AperFunction,SMDPad,CuDef*%
G36*
G01*
X114543750Y-92050000D02*
X115056250Y-92050000D01*
G75*
G02*
X115275000Y-92268750I0J-218750D01*
G01*
X115275000Y-92706250D01*
G75*
G02*
X115056250Y-92925000I-218750J0D01*
G01*
X114543750Y-92925000D01*
G75*
G02*
X114325000Y-92706250I0J218750D01*
G01*
X114325000Y-92268750D01*
G75*
G02*
X114543750Y-92050000I218750J0D01*
G01*
G37*
%TD.AperFunction*%
%TO.P,R2,2*%
%TO.N,SCL*%
%TA.AperFunction,SMDPad,CuDef*%
G36*
G01*
X114543750Y-93625000D02*
X115056250Y-93625000D01*
G75*
G02*
X115275000Y-93843750I0J-218750D01*
G01*
X115275000Y-94281250D01*
G75*
G02*
X115056250Y-94500000I-218750J0D01*
G01*
X114543750Y-94500000D01*
G75*
G02*
X114325000Y-94281250I0J218750D01*
G01*
X114325000Y-93843750D01*
G75*
G02*
X114543750Y-93625000I218750J0D01*
G01*
G37*
%TD.AperFunction*%
%TD*%
%TO.P,C2,1*%
%TO.N,+3V3*%
%TA.AperFunction,SMDPad,CuDef*%
G36*
G01*
X116972500Y-98955000D02*
X116627500Y-98955000D01*
G75*
G02*
X116480000Y-98807500I0J147500D01*
G01*
X116480000Y-98512500D01*
G75*
G02*
X116627500Y-98365000I147500J0D01*
G01*
X116972500Y-98365000D01*
G75*
G02*
X117120000Y-98512500I0J-147500D01*
G01*
X117120000Y-98807500D01*
G75*
G02*
X116972500Y-98955000I-147500J0D01*
G01*
G37*
%TD.AperFunction*%
%TO.P,C2,2*%
%TO.N,GND*%
%TA.AperFunction,SMDPad,CuDef*%
G36*
G01*
X116972500Y-97985000D02*
X116627500Y-97985000D01*
G75*
G02*
X116480000Y-97837500I0J147500D01*
G01*
X116480000Y-97542500D01*
G75*
G02*
X116627500Y-97395000I147500J0D01*
G01*
X116972500Y-97395000D01*
G75*
G02*
X117120000Y-97542500I0J-147500D01*
G01*
X117120000Y-97837500D01*
G75*
G02*
X116972500Y-97985000I-147500J0D01*
G01*
G37*
%TD.AperFunction*%
%TD*%
%TO.P,J3,1,Pin_1*%
%TO.N,GND*%
%TA.AperFunction,SMDPad,CuDef*%
G36*
G01*
X119925000Y-95200000D02*
X119925000Y-93950000D01*
G75*
G02*
X120075000Y-93800000I150000J0D01*
G01*
X120375000Y-93800000D01*
G75*
G02*
X120525000Y-93950000I0J-150000D01*
G01*
X120525000Y-95200000D01*
G75*
G02*
X120375000Y-95350000I-150000J0D01*
G01*
X120075000Y-95350000D01*
G75*
G02*
X119925000Y-95200000I0J150000D01*
G01*
G37*
%TD.AperFunction*%
%TO.P,J3,2,Pin_2*%
%TO.N,SWCLK*%
%TA.AperFunction,SMDPad,CuDef*%
G36*
G01*
X120925000Y-95200000D02*
X120925000Y-93950000D01*
G75*
G02*
X121075000Y-93800000I150000J0D01*
G01*
X121375000Y-93800000D01*
G75*
G02*
X121525000Y-93950000I0J-150000D01*
G01*
X121525000Y-95200000D01*
G75*
G02*
X121375000Y-95350000I-150000J0D01*
G01*
X121075000Y-95350000D01*
G75*
G02*
X120925000Y-95200000I0J150000D01*
G01*
G37*
%TD.AperFunction*%
%TO.P,J3,3,Pin_3*%
%TO.N,SWDIO*%
%TA.AperFunction,SMDPad,CuDef*%
G36*
G01*
X121925000Y-95200000D02*
X121925000Y-93950000D01*
G75*
G02*
X122075000Y-93800000I150000J0D01*
G01*
X122375000Y-93800000D01*
G75*
G02*
X122525000Y-93950000I0J-150000D01*
G01*
X122525000Y-95200000D01*
G75*
G02*
X122375000Y-95350000I-150000J0D01*
G01*
X122075000Y-95350000D01*
G75*
G02*
X121925000Y-95200000I0J150000D01*
G01*
G37*
%TD.AperFunction*%
%TO.P,J3,4,Pin_4*%
%TO.N,+3V3*%
%TA.AperFunction,SMDPad,CuDef*%
G36*
G01*
X122925000Y-95200000D02*
X122925000Y-93950000D01*
G75*
G02*
X123075000Y-93800000I150000J0D01*
G01*
X123375000Y-93800000D01*
G75*
G02*
X123525000Y-93950000I0J-150000D01*
G01*
X123525000Y-95200000D01*
G75*
G02*
X123375000Y-95350000I-150000J0D01*
G01*
X123075000Y-95350000D01*
G75*
G02*
X122925000Y-95200000I0J150000D01*
G01*
G37*
%TD.AperFunction*%
%TO.P,J3,MP*%
%TO.N,N/C*%
%TA.AperFunction,SMDPad,CuDef*%
G36*
G01*
X123925000Y-92700000D02*
X123925000Y-91400000D01*
G75*
G02*
X124175000Y-91150000I250000J0D01*
G01*
X124875000Y-91150000D01*
G75*
G02*
X125125000Y-91400000I0J-250000D01*
G01*
X125125000Y-92700000D01*
G75*
G02*
X124875000Y-92950000I-250000J0D01*
G01*
X124175000Y-92950000D01*
G75*
G02*
X123925000Y-92700000I0J250000D01*
G01*
G37*
%TD.AperFunction*%
%TA.AperFunction,SMDPad,CuDef*%
G36*
G01*
X118325000Y-92700000D02*
X118325000Y-91400000D01*
G75*
G02*
X118575000Y-91150000I250000J0D01*
G01*
X119275000Y-91150000D01*
G75*
G02*
X119525000Y-91400000I0J-250000D01*
G01*
X119525000Y-92700000D01*
G75*
G02*
X119275000Y-92950000I-250000J0D01*
G01*
X118575000Y-92950000D01*
G75*
G02*
X118325000Y-92700000I0J250000D01*
G01*
G37*
%TD.AperFunction*%
%TD*%
%TO.P,C4,1*%
%TO.N,GND*%
%TA.AperFunction,SMDPad,CuDef*%
G36*
G01*
X111262500Y-101775000D02*
X110787500Y-101775000D01*
G75*
G02*
X110550000Y-101537500I0J237500D01*
G01*
X110550000Y-100962500D01*
G75*
G02*
X110787500Y-100725000I237500J0D01*
G01*
X111262500Y-100725000D01*
G75*
G02*
X111500000Y-100962500I0J-237500D01*
G01*
X111500000Y-101537500D01*
G75*
G02*
X111262500Y-101775000I-237500J0D01*
G01*
G37*
%TD.AperFunction*%
%TO.P,C4,2*%
%TO.N,Net-(C4-Pad2)*%
%TA.AperFunction,SMDPad,CuDef*%
G36*
G01*
X111262500Y-100025000D02*
X110787500Y-100025000D01*
G75*
G02*
X110550000Y-99787500I0J237500D01*
G01*
X110550000Y-99212500D01*
G75*
G02*
X110787500Y-98975000I237500J0D01*
G01*
X111262500Y-98975000D01*
G75*
G02*
X111500000Y-99212500I0J-237500D01*
G01*
X111500000Y-99787500D01*
G75*
G02*
X111262500Y-100025000I-237500J0D01*
G01*
G37*
%TD.AperFunction*%
%TD*%
%TA.AperFunction,SMDPad,CuDef*%
%TO.P,U3,1,SDO/SA0*%
%TO.N,Net-(U3-Pad1)*%
G36*
X112973814Y-95486047D02*
G01*
X112975890Y-95485491D01*
X112979071Y-95486974D01*
X112996232Y-95490000D01*
X113009581Y-95501201D01*
X113025370Y-95508564D01*
X113231436Y-95714629D01*
X113234278Y-95718688D01*
X113236140Y-95719763D01*
X113237341Y-95723062D01*
X113247335Y-95737335D01*
X113248853Y-95754693D01*
X113254813Y-95771066D01*
X113254813Y-95815000D01*
X113252985Y-95825369D01*
X113253600Y-95828859D01*
X113251828Y-95831927D01*
X113250000Y-95842298D01*
X113236670Y-95858184D01*
X113226303Y-95876140D01*
X113219535Y-95878603D01*
X113214906Y-95884120D01*
X113194486Y-95887720D01*
X113175000Y-95894813D01*
X112700000Y-95894813D01*
X112689631Y-95892985D01*
X112686141Y-95893600D01*
X112683073Y-95891828D01*
X112672702Y-95890000D01*
X112656816Y-95876670D01*
X112638860Y-95866303D01*
X112636397Y-95859535D01*
X112630880Y-95854906D01*
X112627280Y-95834486D01*
X112620187Y-95815000D01*
X112620187Y-95565000D01*
X112622015Y-95554631D01*
X112621400Y-95551141D01*
X112623172Y-95548073D01*
X112625000Y-95537702D01*
X112638330Y-95521816D01*
X112648697Y-95503860D01*
X112655465Y-95501397D01*
X112660094Y-95495880D01*
X112680514Y-95492280D01*
X112700000Y-95485187D01*
X112968934Y-95485187D01*
X112973814Y-95486047D01*
G37*
%TD.AperFunction*%
%TO.P,U3,2,SDX*%
%TO.N,Net-(U3-Pad2)*%
%TA.AperFunction,SMDPad,CuDef*%
G36*
G01*
X112625000Y-96290000D02*
X112625000Y-96090000D01*
G75*
G02*
X112725000Y-95990000I100000J0D01*
G01*
X113150000Y-95990000D01*
G75*
G02*
X113250000Y-96090000I0J-100000D01*
G01*
X113250000Y-96290000D01*
G75*
G02*
X113150000Y-96390000I-100000J0D01*
G01*
X112725000Y-96390000D01*
G75*
G02*
X112625000Y-96290000I0J100000D01*
G01*
G37*
%TD.AperFunction*%
%TO.P,U3,3,SCX*%
%TO.N,Net-(U3-Pad3)*%
%TA.AperFunction,SMDPad,CuDef*%
G36*
G01*
X112625000Y-96790000D02*
X112625000Y-96590000D01*
G75*
G02*
X112725000Y-96490000I100000J0D01*
G01*
X113150000Y-96490000D01*
G75*
G02*
X113250000Y-96590000I0J-100000D01*
G01*
X113250000Y-96790000D01*
G75*
G02*
X113150000Y-96890000I-100000J0D01*
G01*
X112725000Y-96890000D01*
G75*
G02*
X112625000Y-96790000I0J100000D01*
G01*
G37*
%TD.AperFunction*%
%TA.AperFunction,SMDPad,CuDef*%
%TO.P,U3,4,INT1*%
%TO.N,Net-(U3-Pad4)*%
G36*
X113185369Y-96987015D02*
G01*
X113188859Y-96986400D01*
X113191927Y-96988172D01*
X113202298Y-96990000D01*
X113218184Y-97003330D01*
X113236140Y-97013697D01*
X113238603Y-97020465D01*
X113244120Y-97025094D01*
X113247720Y-97045514D01*
X113254813Y-97065000D01*
X113254813Y-97108934D01*
X113253953Y-97113814D01*
X113254509Y-97115890D01*
X113253026Y-97119071D01*
X113250000Y-97136232D01*
X113238799Y-97149580D01*
X113231436Y-97165371D01*
X113025370Y-97371436D01*
X113021312Y-97374277D01*
X113020237Y-97376140D01*
X113016937Y-97377341D01*
X113002664Y-97387336D01*
X112985305Y-97388854D01*
X112968934Y-97394813D01*
X112700000Y-97394813D01*
X112689631Y-97392985D01*
X112686141Y-97393600D01*
X112683073Y-97391828D01*
X112672702Y-97390000D01*
X112656816Y-97376670D01*
X112638860Y-97366303D01*
X112636397Y-97359535D01*
X112630880Y-97354906D01*
X112627280Y-97334486D01*
X112620187Y-97315000D01*
X112620187Y-97065000D01*
X112622015Y-97054631D01*
X112621400Y-97051141D01*
X112623172Y-97048073D01*
X112625000Y-97037702D01*
X112638330Y-97021816D01*
X112648697Y-97003860D01*
X112655465Y-97001397D01*
X112660094Y-96995880D01*
X112680514Y-96992280D01*
X112700000Y-96985187D01*
X113175000Y-96985187D01*
X113185369Y-96987015D01*
G37*
%TD.AperFunction*%
%TA.AperFunction,SMDPad,CuDef*%
%TO.P,U3,5,VDDIO*%
%TO.N,+3V3*%
G36*
X113735369Y-97037015D02*
G01*
X113738859Y-97036400D01*
X113741927Y-97038172D01*
X113752298Y-97040000D01*
X113768184Y-97053330D01*
X113786140Y-97063697D01*
X113788603Y-97070465D01*
X113794120Y-97075094D01*
X113797720Y-97095514D01*
X113804813Y-97115000D01*
X113804813Y-97590000D01*
X113802985Y-97600369D01*
X113803600Y-97603859D01*
X113801828Y-97606927D01*
X113800000Y-97617298D01*
X113786670Y-97633184D01*
X113776303Y-97651140D01*
X113769535Y-97653603D01*
X113764906Y-97659120D01*
X113744486Y-97662720D01*
X113725000Y-97669813D01*
X113475000Y-97669813D01*
X113464631Y-97667985D01*
X113461141Y-97668600D01*
X113458073Y-97666828D01*
X113447702Y-97665000D01*
X113431816Y-97651670D01*
X113413860Y-97641303D01*
X113411397Y-97634535D01*
X113405880Y-97629906D01*
X113402280Y-97609486D01*
X113395187Y-97590000D01*
X113395187Y-97321066D01*
X113396047Y-97316186D01*
X113395491Y-97314110D01*
X113396974Y-97310929D01*
X113400000Y-97293768D01*
X113411201Y-97280419D01*
X113418564Y-97264630D01*
X113624629Y-97058564D01*
X113628688Y-97055722D01*
X113629763Y-97053860D01*
X113633062Y-97052659D01*
X113647335Y-97042665D01*
X113664693Y-97041147D01*
X113681066Y-97035187D01*
X113725000Y-97035187D01*
X113735369Y-97037015D01*
G37*
%TD.AperFunction*%
%TO.P,U3,6,GND*%
%TO.N,GND*%
%TA.AperFunction,SMDPad,CuDef*%
G36*
G01*
X113900000Y-97565000D02*
X113900000Y-97140000D01*
G75*
G02*
X114000000Y-97040000I100000J0D01*
G01*
X114200000Y-97040000D01*
G75*
G02*
X114300000Y-97140000I0J-100000D01*
G01*
X114300000Y-97565000D01*
G75*
G02*
X114200000Y-97665000I-100000J0D01*
G01*
X114000000Y-97665000D01*
G75*
G02*
X113900000Y-97565000I0J100000D01*
G01*
G37*
%TD.AperFunction*%
%TA.AperFunction,SMDPad,CuDef*%
%TO.P,U3,7,GND*%
G36*
X114523814Y-97036047D02*
G01*
X114525890Y-97035491D01*
X114529071Y-97036974D01*
X114546232Y-97040000D01*
X114559581Y-97051201D01*
X114575370Y-97058564D01*
X114781436Y-97264629D01*
X114784278Y-97268688D01*
X114786140Y-97269763D01*
X114787341Y-97273062D01*
X114797335Y-97287335D01*
X114798853Y-97304693D01*
X114804813Y-97321066D01*
X114804813Y-97590000D01*
X114802985Y-97600369D01*
X114803600Y-97603859D01*
X114801828Y-97606927D01*
X114800000Y-97617298D01*
X114786670Y-97633184D01*
X114776303Y-97651140D01*
X114769535Y-97653603D01*
X114764906Y-97659120D01*
X114744486Y-97662720D01*
X114725000Y-97669813D01*
X114475000Y-97669813D01*
X114464631Y-97667985D01*
X114461141Y-97668600D01*
X114458073Y-97666828D01*
X114447702Y-97665000D01*
X114431816Y-97651670D01*
X114413860Y-97641303D01*
X114411397Y-97634535D01*
X114405880Y-97629906D01*
X114402280Y-97609486D01*
X114395187Y-97590000D01*
X114395187Y-97115000D01*
X114397015Y-97104631D01*
X114396400Y-97101141D01*
X114398172Y-97098073D01*
X114400000Y-97087702D01*
X114413330Y-97071816D01*
X114423697Y-97053860D01*
X114430465Y-97051397D01*
X114435094Y-97045880D01*
X114455514Y-97042280D01*
X114475000Y-97035187D01*
X114518934Y-97035187D01*
X114523814Y-97036047D01*
G37*
%TD.AperFunction*%
%TA.AperFunction,SMDPad,CuDef*%
%TO.P,U3,8,VDD*%
%TO.N,+3V3*%
G36*
X115510369Y-96987015D02*
G01*
X115513859Y-96986400D01*
X115516927Y-96988172D01*
X115527298Y-96990000D01*
X115543184Y-97003330D01*
X115561140Y-97013697D01*
X115563603Y-97020465D01*
X115569120Y-97025094D01*
X115572720Y-97045514D01*
X115579813Y-97065000D01*
X115579813Y-97315000D01*
X115577985Y-97325369D01*
X115578600Y-97328859D01*
X115576828Y-97331927D01*
X115575000Y-97342298D01*
X115561670Y-97358184D01*
X115551303Y-97376140D01*
X115544535Y-97378603D01*
X115539906Y-97384120D01*
X115519486Y-97387720D01*
X115500000Y-97394813D01*
X115231066Y-97394813D01*
X115226186Y-97393953D01*
X115224110Y-97394509D01*
X115220929Y-97393026D01*
X115203768Y-97390000D01*
X115190420Y-97378799D01*
X115174629Y-97371436D01*
X114968564Y-97165370D01*
X114965723Y-97161312D01*
X114963860Y-97160237D01*
X114962659Y-97156937D01*
X114952664Y-97142664D01*
X114951146Y-97125305D01*
X114945187Y-97108934D01*
X114945187Y-97065000D01*
X114947015Y-97054631D01*
X114946400Y-97051141D01*
X114948172Y-97048073D01*
X114950000Y-97037702D01*
X114963330Y-97021816D01*
X114973697Y-97003860D01*
X114980465Y-97001397D01*
X114985094Y-96995880D01*
X115005514Y-96992280D01*
X115025000Y-96985187D01*
X115500000Y-96985187D01*
X115510369Y-96987015D01*
G37*
%TD.AperFunction*%
%TO.P,U3,9,INT2*%
%TO.N,Net-(U3-Pad9)*%
%TA.AperFunction,SMDPad,CuDef*%
G36*
G01*
X114950000Y-96790000D02*
X114950000Y-96590000D01*
G75*
G02*
X115050000Y-96490000I100000J0D01*
G01*
X115475000Y-96490000D01*
G75*
G02*
X115575000Y-96590000I0J-100000D01*
G01*
X115575000Y-96790000D01*
G75*
G02*
X115475000Y-96890000I-100000J0D01*
G01*
X115050000Y-96890000D01*
G75*
G02*
X114950000Y-96790000I0J100000D01*
G01*
G37*
%TD.AperFunction*%
%TO.P,U3,10,NC*%
%TO.N,Net-(U3-Pad10)*%
%TA.AperFunction,SMDPad,CuDef*%
G36*
G01*
X114950000Y-96290000D02*
X114950000Y-96090000D01*
G75*
G02*
X115050000Y-95990000I100000J0D01*
G01*
X115475000Y-95990000D01*
G75*
G02*
X115575000Y-96090000I0J-100000D01*
G01*
X115575000Y-96290000D01*
G75*
G02*
X115475000Y-96390000I-100000J0D01*
G01*
X115050000Y-96390000D01*
G75*
G02*
X114950000Y-96290000I0J100000D01*
G01*
G37*
%TD.AperFunction*%
%TA.AperFunction,SMDPad,CuDef*%
%TO.P,U3,11,NC*%
%TO.N,Net-(U3-Pad11)*%
G36*
X115510369Y-95487015D02*
G01*
X115513859Y-95486400D01*
X115516927Y-95488172D01*
X115527298Y-95490000D01*
X115543184Y-95503330D01*
X115561140Y-95513697D01*
X115563603Y-95520465D01*
X115569120Y-95525094D01*
X115572720Y-95545514D01*
X115579813Y-95565000D01*
X115579813Y-95815000D01*
X115577985Y-95825369D01*
X115578600Y-95828859D01*
X115576828Y-95831927D01*
X115575000Y-95842298D01*
X115561670Y-95858184D01*
X115551303Y-95876140D01*
X115544535Y-95878603D01*
X115539906Y-95884120D01*
X115519486Y-95887720D01*
X115500000Y-95894813D01*
X115025000Y-95894813D01*
X115014631Y-95892985D01*
X115011141Y-95893600D01*
X115008073Y-95891828D01*
X114997702Y-95890000D01*
X114981816Y-95876670D01*
X114963860Y-95866303D01*
X114961397Y-95859535D01*
X114955880Y-95854906D01*
X114952280Y-95834486D01*
X114945187Y-95815000D01*
X114945187Y-95771066D01*
X114946047Y-95766186D01*
X114945491Y-95764110D01*
X114946974Y-95760929D01*
X114950000Y-95743768D01*
X114961201Y-95730419D01*
X114968564Y-95714630D01*
X115174629Y-95508564D01*
X115178688Y-95505722D01*
X115179763Y-95503860D01*
X115183062Y-95502659D01*
X115197335Y-95492665D01*
X115214693Y-95491147D01*
X115231066Y-95485187D01*
X115500000Y-95485187D01*
X115510369Y-95487015D01*
G37*
%TD.AperFunction*%
%TA.AperFunction,SMDPad,CuDef*%
%TO.P,U3,12,CS*%
%TO.N,Net-(U3-Pad12)*%
G36*
X114735369Y-95212015D02*
G01*
X114738859Y-95211400D01*
X114741927Y-95213172D01*
X114752298Y-95215000D01*
X114768184Y-95228330D01*
X114786140Y-95238697D01*
X114788603Y-95245465D01*
X114794120Y-95250094D01*
X114797720Y-95270514D01*
X114804813Y-95290000D01*
X114804813Y-95558934D01*
X114803953Y-95563814D01*
X114804509Y-95565890D01*
X114803026Y-95569071D01*
X114800000Y-95586232D01*
X114788799Y-95599580D01*
X114781436Y-95615371D01*
X114575370Y-95821436D01*
X114571312Y-95824277D01*
X114570237Y-95826140D01*
X114566937Y-95827341D01*
X114552664Y-95837336D01*
X114535305Y-95838854D01*
X114518934Y-95844813D01*
X114475000Y-95844813D01*
X114464631Y-95842985D01*
X114461141Y-95843600D01*
X114458073Y-95841828D01*
X114447702Y-95840000D01*
X114431816Y-95826670D01*
X114413860Y-95816303D01*
X114411397Y-95809535D01*
X114405880Y-95804906D01*
X114402280Y-95784486D01*
X114395187Y-95765000D01*
X114395187Y-95290000D01*
X114397015Y-95279631D01*
X114396400Y-95276141D01*
X114398172Y-95273073D01*
X114400000Y-95262702D01*
X114413330Y-95246816D01*
X114423697Y-95228860D01*
X114430465Y-95226397D01*
X114435094Y-95220880D01*
X114455514Y-95217280D01*
X114475000Y-95210187D01*
X114725000Y-95210187D01*
X114735369Y-95212015D01*
G37*
%TD.AperFunction*%
%TO.P,U3,13,SCL*%
%TO.N,SCL*%
%TA.AperFunction,SMDPad,CuDef*%
G36*
G01*
X113900000Y-95740000D02*
X113900000Y-95315000D01*
G75*
G02*
X114000000Y-95215000I100000J0D01*
G01*
X114200000Y-95215000D01*
G75*
G02*
X114300000Y-95315000I0J-100000D01*
G01*
X114300000Y-95740000D01*
G75*
G02*
X114200000Y-95840000I-100000J0D01*
G01*
X114000000Y-95840000D01*
G75*
G02*
X113900000Y-95740000I0J100000D01*
G01*
G37*
%TD.AperFunction*%
%TA.AperFunction,SMDPad,CuDef*%
%TO.P,U3,14,SDA*%
%TO.N,SDA*%
G36*
X113735369Y-95212015D02*
G01*
X113738859Y-95211400D01*
X113741927Y-95213172D01*
X113752298Y-95215000D01*
X113768184Y-95228330D01*
X113786140Y-95238697D01*
X113788603Y-95245465D01*
X113794120Y-95250094D01*
X113797720Y-95270514D01*
X113804813Y-95290000D01*
X113804813Y-95765000D01*
X113802985Y-95775369D01*
X113803600Y-95778859D01*
X113801828Y-95781927D01*
X113800000Y-95792298D01*
X113786670Y-95808184D01*
X113776303Y-95826140D01*
X113769535Y-95828603D01*
X113764906Y-95834120D01*
X113744486Y-95837720D01*
X113725000Y-95844813D01*
X113681066Y-95844813D01*
X113676186Y-95843953D01*
X113674110Y-95844509D01*
X113670929Y-95843026D01*
X113653768Y-95840000D01*
X113640420Y-95828799D01*
X113624629Y-95821436D01*
X113418564Y-95615370D01*
X113415723Y-95611312D01*
X113413860Y-95610237D01*
X113412659Y-95606937D01*
X113402664Y-95592664D01*
X113401146Y-95575305D01*
X113395187Y-95558934D01*
X113395187Y-95290000D01*
X113397015Y-95279631D01*
X113396400Y-95276141D01*
X113398172Y-95273073D01*
X113400000Y-95262702D01*
X113413330Y-95246816D01*
X113423697Y-95228860D01*
X113430465Y-95226397D01*
X113435094Y-95220880D01*
X113455514Y-95217280D01*
X113475000Y-95210187D01*
X113725000Y-95210187D01*
X113735369Y-95212015D01*
G37*
%TD.AperFunction*%
%TD*%
%TO.P,C3,1*%
%TO.N,GND*%
%TA.AperFunction,SMDPad,CuDef*%
G36*
G01*
X106612500Y-101850000D02*
X106137500Y-101850000D01*
G75*
G02*
X105900000Y-101612500I0J237500D01*
G01*
X105900000Y-101037500D01*
G75*
G02*
X106137500Y-100800000I237500J0D01*
G01*
X106612500Y-100800000D01*
G75*
G02*
X106850000Y-101037500I0J-237500D01*
G01*
X106850000Y-101612500D01*
G75*
G02*
X106612500Y-101850000I-237500J0D01*
G01*
G37*
%TD.AperFunction*%
%TO.P,C3,2*%
%TO.N,Net-(C3-Pad2)*%
%TA.AperFunction,SMDPad,CuDef*%
G36*
G01*
X106612500Y-100100000D02*
X106137500Y-100100000D01*
G75*
G02*
X105900000Y-99862500I0J237500D01*
G01*
X105900000Y-99287500D01*
G75*
G02*
X106137500Y-99050000I237500J0D01*
G01*
X106612500Y-99050000D01*
G75*
G02*
X106850000Y-99287500I0J-237500D01*
G01*
X106850000Y-99862500D01*
G75*
G02*
X106612500Y-100100000I-237500J0D01*
G01*
G37*
%TD.AperFunction*%
%TD*%
D12*
%TO.P,Y1,1,1*%
%TO.N,Net-(C4-Pad2)*%
X109600000Y-100350000D03*
%TO.P,Y1,2,2*%
%TO.N,Net-(C3-Pad2)*%
X107700000Y-100350000D03*
%TD*%
D13*
%TO.P,J1,1,VBUS*%
%TO.N,+5V*%
X131850000Y-95100000D03*
%TO.P,J1,2,D-*%
%TO.N,USB_DM*%
X131200000Y-95100000D03*
%TO.P,J1,3,D+*%
%TO.N,USB_DP*%
X130550000Y-95100000D03*
%TO.P,J1,4,ID*%
%TO.N,Net-(J1-Pad4)*%
X129900000Y-95100000D03*
%TO.P,J1,5,GND*%
%TO.N,GND*%
X129250000Y-95100000D03*
D14*
%TO.P,J1,6,Shield*%
X131700000Y-92250000D03*
X129400000Y-92250000D03*
D15*
X134300000Y-92250000D03*
X126800000Y-92250000D03*
%TD*%
D16*
%TO.P,J2,1,Pin_1*%
%TO.N,+3V3*%
X104125000Y-92825000D03*
D17*
%TO.P,J2,2,Pin_2*%
%TO.N,SDA*%
X104125000Y-95365000D03*
%TO.P,J2,3,Pin_3*%
%TO.N,SCL*%
X104125000Y-97905000D03*
%TO.P,J2,4,Pin_4*%
%TO.N,GND*%
X104125000Y-100445000D03*
%TD*%
%TO.P,U2,1,X1*%
%TO.N,Net-(C3-Pad2)*%
%TA.AperFunction,SMDPad,CuDef*%
G36*
G01*
X106970000Y-98525000D02*
X106670000Y-98525000D01*
G75*
G02*
X106520000Y-98375000I0J150000D01*
G01*
X106520000Y-96725000D01*
G75*
G02*
X106670000Y-96575000I150000J0D01*
G01*
X106970000Y-96575000D01*
G75*
G02*
X107120000Y-96725000I0J-150000D01*
G01*
X107120000Y-98375000D01*
G75*
G02*
X106970000Y-98525000I-150000J0D01*
G01*
G37*
%TD.AperFunction*%
%TO.P,U2,2,X2*%
%TO.N,Net-(C4-Pad2)*%
%TA.AperFunction,SMDPad,CuDef*%
G36*
G01*
X108240000Y-98525000D02*
X107940000Y-98525000D01*
G75*
G02*
X107790000Y-98375000I0J150000D01*
G01*
X107790000Y-96725000D01*
G75*
G02*
X107940000Y-96575000I150000J0D01*
G01*
X108240000Y-96575000D01*
G75*
G02*
X108390000Y-96725000I0J-150000D01*
G01*
X108390000Y-98375000D01*
G75*
G02*
X108240000Y-98525000I-150000J0D01*
G01*
G37*
%TD.AperFunction*%
%TO.P,U2,3,VBAT*%
%TO.N,+3V3*%
%TA.AperFunction,SMDPad,CuDef*%
G36*
G01*
X109510000Y-98525000D02*
X109210000Y-98525000D01*
G75*
G02*
X109060000Y-98375000I0J150000D01*
G01*
X109060000Y-96725000D01*
G75*
G02*
X109210000Y-96575000I150000J0D01*
G01*
X109510000Y-96575000D01*
G75*
G02*
X109660000Y-96725000I0J-150000D01*
G01*
X109660000Y-98375000D01*
G75*
G02*
X109510000Y-98525000I-150000J0D01*
G01*
G37*
%TD.AperFunction*%
%TO.P,U2,4,GND*%
%TO.N,GND*%
%TA.AperFunction,SMDPad,CuDef*%
G36*
G01*
X110780000Y-98525000D02*
X110480000Y-98525000D01*
G75*
G02*
X110330000Y-98375000I0J150000D01*
G01*
X110330000Y-96725000D01*
G75*
G02*
X110480000Y-96575000I150000J0D01*
G01*
X110780000Y-96575000D01*
G75*
G02*
X110930000Y-96725000I0J-150000D01*
G01*
X110930000Y-98375000D01*
G75*
G02*
X110780000Y-98525000I-150000J0D01*
G01*
G37*
%TD.AperFunction*%
%TO.P,U2,5,SDA*%
%TO.N,SDA*%
%TA.AperFunction,SMDPad,CuDef*%
G36*
G01*
X110780000Y-93575000D02*
X110480000Y-93575000D01*
G75*
G02*
X110330000Y-93425000I0J150000D01*
G01*
X110330000Y-91775000D01*
G75*
G02*
X110480000Y-91625000I150000J0D01*
G01*
X110780000Y-91625000D01*
G75*
G02*
X110930000Y-91775000I0J-150000D01*
G01*
X110930000Y-93425000D01*
G75*
G02*
X110780000Y-93575000I-150000J0D01*
G01*
G37*
%TD.AperFunction*%
%TO.P,U2,6,SCL*%
%TO.N,SCL*%
%TA.AperFunction,SMDPad,CuDef*%
G36*
G01*
X109510000Y-93575000D02*
X109210000Y-93575000D01*
G75*
G02*
X109060000Y-93425000I0J150000D01*
G01*
X109060000Y-91775000D01*
G75*
G02*
X109210000Y-91625000I150000J0D01*
G01*
X109510000Y-91625000D01*
G75*
G02*
X109660000Y-91775000I0J-150000D01*
G01*
X109660000Y-93425000D01*
G75*
G02*
X109510000Y-93575000I-150000J0D01*
G01*
G37*
%TD.AperFunction*%
%TO.P,U2,7,SQW/OUT*%
%TO.N,Net-(U2-Pad7)*%
%TA.AperFunction,SMDPad,CuDef*%
G36*
G01*
X108240000Y-93575000D02*
X107940000Y-93575000D01*
G75*
G02*
X107790000Y-93425000I0J150000D01*
G01*
X107790000Y-91775000D01*
G75*
G02*
X107940000Y-91625000I150000J0D01*
G01*
X108240000Y-91625000D01*
G75*
G02*
X108390000Y-91775000I0J-150000D01*
G01*
X108390000Y-93425000D01*
G75*
G02*
X108240000Y-93575000I-150000J0D01*
G01*
G37*
%TD.AperFunction*%
%TO.P,U2,8,VCC*%
%TO.N,+3V3*%
%TA.AperFunction,SMDPad,CuDef*%
G36*
G01*
X106970000Y-93575000D02*
X106670000Y-93575000D01*
G75*
G02*
X106520000Y-93425000I0J150000D01*
G01*
X106520000Y-91775000D01*
G75*
G02*
X106670000Y-91625000I150000J0D01*
G01*
X106970000Y-91625000D01*
G75*
G02*
X107120000Y-91775000I0J-150000D01*
G01*
X107120000Y-93425000D01*
G75*
G02*
X106970000Y-93575000I-150000J0D01*
G01*
G37*
%TD.AperFunction*%
%TD*%
%TO.P,C1,1*%
%TO.N,+3V3*%
%TA.AperFunction,SMDPad,CuDef*%
G36*
G01*
X112820000Y-98772500D02*
X112820000Y-98427500D01*
G75*
G02*
X112967500Y-98280000I147500J0D01*
G01*
X113262500Y-98280000D01*
G75*
G02*
X113410000Y-98427500I0J-147500D01*
G01*
X113410000Y-98772500D01*
G75*
G02*
X113262500Y-98920000I-147500J0D01*
G01*
X112967500Y-98920000D01*
G75*
G02*
X112820000Y-98772500I0J147500D01*
G01*
G37*
%TD.AperFunction*%
%TO.P,C1,2*%
%TO.N,GND*%
%TA.AperFunction,SMDPad,CuDef*%
G36*
G01*
X113790000Y-98772500D02*
X113790000Y-98427500D01*
G75*
G02*
X113937500Y-98280000I147500J0D01*
G01*
X114232500Y-98280000D01*
G75*
G02*
X114380000Y-98427500I0J-147500D01*
G01*
X114380000Y-98772500D01*
G75*
G02*
X114232500Y-98920000I-147500J0D01*
G01*
X113937500Y-98920000D01*
G75*
G02*
X113790000Y-98772500I0J147500D01*
G01*
G37*
%TD.AperFunction*%
%TD*%
%TO.P,C13,1*%
%TO.N,CAP_sample*%
%TA.AperFunction,SMDPad,CuDef*%
G36*
G01*
X131800000Y-101212500D02*
X131800000Y-100737500D01*
G75*
G02*
X132037500Y-100500000I237500J0D01*
G01*
X132612500Y-100500000D01*
G75*
G02*
X132850000Y-100737500I0J-237500D01*
G01*
X132850000Y-101212500D01*
G75*
G02*
X132612500Y-101450000I-237500J0D01*
G01*
X132037500Y-101450000D01*
G75*
G02*
X131800000Y-101212500I0J237500D01*
G01*
G37*
%TD.AperFunction*%
%TO.P,C13,2*%
%TO.N,GND*%
%TA.AperFunction,SMDPad,CuDef*%
G36*
G01*
X133550000Y-101212500D02*
X133550000Y-100737500D01*
G75*
G02*
X133787500Y-100500000I237500J0D01*
G01*
X134362500Y-100500000D01*
G75*
G02*
X134600000Y-100737500I0J-237500D01*
G01*
X134600000Y-101212500D01*
G75*
G02*
X134362500Y-101450000I-237500J0D01*
G01*
X133787500Y-101450000D01*
G75*
G02*
X133550000Y-101212500I0J237500D01*
G01*
G37*
%TD.AperFunction*%
%TD*%
%TO.P,C6,1*%
%TO.N,+3V3*%
%TA.AperFunction,SMDPad,CuDef*%
G36*
G01*
X126412500Y-98145000D02*
X126757500Y-98145000D01*
G75*
G02*
X126905000Y-98292500I0J-147500D01*
G01*
X126905000Y-98587500D01*
G75*
G02*
X126757500Y-98735000I-147500J0D01*
G01*
X126412500Y-98735000D01*
G75*
G02*
X126265000Y-98587500I0J147500D01*
G01*
X126265000Y-98292500D01*
G75*
G02*
X126412500Y-98145000I147500J0D01*
G01*
G37*
%TD.AperFunction*%
%TO.P,C6,2*%
%TO.N,GND*%
%TA.AperFunction,SMDPad,CuDef*%
G36*
G01*
X126412500Y-99115000D02*
X126757500Y-99115000D01*
G75*
G02*
X126905000Y-99262500I0J-147500D01*
G01*
X126905000Y-99557500D01*
G75*
G02*
X126757500Y-99705000I-147500J0D01*
G01*
X126412500Y-99705000D01*
G75*
G02*
X126265000Y-99557500I0J147500D01*
G01*
X126265000Y-99262500D01*
G75*
G02*
X126412500Y-99115000I147500J0D01*
G01*
G37*
%TD.AperFunction*%
%TD*%
%TO.P,C12,1*%
%TO.N,+3V3*%
%TA.AperFunction,SMDPad,CuDef*%
G36*
G01*
X112531250Y-102025000D02*
X112018750Y-102025000D01*
G75*
G02*
X111800000Y-101806250I0J218750D01*
G01*
X111800000Y-101368750D01*
G75*
G02*
X112018750Y-101150000I218750J0D01*
G01*
X112531250Y-101150000D01*
G75*
G02*
X112750000Y-101368750I0J-218750D01*
G01*
X112750000Y-101806250D01*
G75*
G02*
X112531250Y-102025000I-218750J0D01*
G01*
G37*
%TD.AperFunction*%
%TO.P,C12,2*%
%TO.N,GND*%
%TA.AperFunction,SMDPad,CuDef*%
G36*
G01*
X112531250Y-100450000D02*
X112018750Y-100450000D01*
G75*
G02*
X111800000Y-100231250I0J218750D01*
G01*
X111800000Y-99793750D01*
G75*
G02*
X112018750Y-99575000I218750J0D01*
G01*
X112531250Y-99575000D01*
G75*
G02*
X112750000Y-99793750I0J-218750D01*
G01*
X112750000Y-100231250D01*
G75*
G02*
X112531250Y-100450000I-218750J0D01*
G01*
G37*
%TD.AperFunction*%
%TD*%
D18*
%TO.N,CAP_Touch1*%
X142000000Y-99325000D03*
%TO.N,CAP_Touch*%
X141875000Y-94575000D03*
D19*
%TO.N,GND*%
X120600000Y-91925000D03*
X133650000Y-94800000D03*
X122450000Y-100600000D03*
X111775000Y-92275000D03*
X110850000Y-96050000D03*
X121975000Y-99775000D03*
X127850000Y-99435000D03*
%TO.N,+3V3*%
X126562500Y-98462500D03*
%TO.N,GND*%
X116000000Y-94625000D03*
X119975000Y-99875000D03*
%TO.N,USB_DM*%
X132750000Y-94425000D03*
%TO.N,USB_DP*%
X133550010Y-93749990D03*
%TO.N,GND*%
X115825000Y-99775000D03*
X114225000Y-99450000D03*
X122150000Y-97630000D03*
X114225000Y-98625000D03*
X134075000Y-100975000D03*
X109975000Y-96025000D03*
X129450000Y-93800000D03*
X110992500Y-100942500D03*
X116425000Y-92250000D03*
%TO.N,SDA*%
X112887500Y-94062500D03*
X111777500Y-95425000D03*
%TO.N,SCL*%
X109754278Y-94875000D03*
X109360000Y-92600000D03*
%TO.N,+5V*%
X131900000Y-95175000D03*
%TO.N,Vdrive*%
X116775000Y-100925000D03*
%TD*%
D20*
%TO.N,CAP_sample*%
X131200000Y-102025000D02*
X124187500Y-102025000D01*
X131200000Y-102025000D02*
X131275000Y-102025000D01*
X131275000Y-102025000D02*
X132325000Y-100975000D01*
X132325000Y-100975000D02*
X131550000Y-101750000D01*
D21*
%TO.N,GND*%
X127850000Y-99435000D02*
X128913602Y-99435000D01*
X128913602Y-99435000D02*
X133548602Y-94800000D01*
X133548602Y-94800000D02*
X133650000Y-94800000D01*
X123223366Y-93227010D02*
X121921356Y-91925000D01*
X125822990Y-93227010D02*
X123223366Y-93227010D01*
X126800000Y-92250000D02*
X125822990Y-93227010D01*
X121921356Y-91925000D02*
X120600000Y-91925000D01*
X134300000Y-92250000D02*
X134300000Y-94175000D01*
X134300000Y-94175000D02*
X133675000Y-94800000D01*
X133675000Y-94800000D02*
X133650000Y-94800000D01*
%TO.N,+3V3*%
X126562500Y-98462500D02*
X126585000Y-98440000D01*
X124187500Y-98775000D02*
X126250000Y-98775000D01*
X126250000Y-98775000D02*
X126562500Y-98462500D01*
D20*
%TO.N,GND*%
X116800000Y-97690000D02*
X116800000Y-95425000D01*
X116800000Y-95425000D02*
X116000000Y-94625000D01*
%TO.N,SCL*%
X117275000Y-96375000D02*
X117275000Y-94425000D01*
X117725000Y-96825000D02*
X117275000Y-96375000D01*
X117275000Y-94425000D02*
X116912500Y-94062500D01*
X116912500Y-94062500D02*
X114800000Y-94062500D01*
%TO.N,USB_DM*%
X131200000Y-95100000D02*
X131200000Y-94250000D01*
X131275001Y-94174999D02*
X132549999Y-94174999D01*
X132549999Y-94174999D02*
X132549999Y-94224999D01*
X131200000Y-94250000D02*
X131275001Y-94174999D01*
X132549999Y-94224999D02*
X132750000Y-94425000D01*
%TO.N,USB_DP*%
X130550000Y-95100000D02*
X130550000Y-94250000D01*
X130550000Y-94250000D02*
X131050010Y-93749990D01*
X131050010Y-93749990D02*
X133550010Y-93749990D01*
D21*
%TO.N,Net-(C3-Pad2)*%
X107925000Y-99630000D02*
X107925000Y-100350000D01*
X106920000Y-100350000D02*
X106550000Y-99980000D01*
X107925000Y-100350000D02*
X106920000Y-100350000D01*
X106820000Y-97550000D02*
X106820000Y-98525000D01*
X106820000Y-98525000D02*
X107925000Y-99630000D01*
%TO.N,Net-(C4-Pad2)*%
X109825000Y-100350000D02*
X110300000Y-99875000D01*
X108090000Y-98615000D02*
X108090000Y-97550000D01*
X110300000Y-99875000D02*
X111090000Y-99875000D01*
X109825000Y-100350000D02*
X108090000Y-98615000D01*
X111090000Y-99875000D02*
X111200000Y-99765000D01*
%TO.N,GND*%
X129250000Y-95100000D02*
X129250000Y-94000000D01*
X106550000Y-100950000D02*
X106727001Y-101127001D01*
X110992500Y-100942500D02*
X111200000Y-100735000D01*
X129250000Y-94000000D02*
X129450000Y-93800000D01*
X129450000Y-93800000D02*
X129450000Y-92300000D01*
X112275000Y-100012500D02*
X111922500Y-100012500D01*
X126800000Y-92250000D02*
X134300000Y-92250000D01*
X111922500Y-100012500D02*
X110992500Y-100942500D01*
D20*
X124187500Y-99425000D02*
X127840000Y-99425000D01*
D21*
X106727001Y-101127001D02*
X110807999Y-101127001D01*
X111195000Y-100740000D02*
X110992500Y-100942500D01*
X110807999Y-101127001D02*
X110992500Y-100942500D01*
D20*
X127840000Y-99425000D02*
X127850000Y-99435000D01*
D21*
X129450000Y-92300000D02*
X129400000Y-92250000D01*
%TO.N,+3V3*%
X112425000Y-101725000D02*
X113550000Y-101725000D01*
X106318050Y-96297990D02*
X105252001Y-97364039D01*
X113115000Y-97837500D02*
X113600000Y-97352500D01*
X113062500Y-100800000D02*
X113923602Y-100800000D01*
X119322990Y-95054390D02*
X120275000Y-96006400D01*
X122947990Y-93522990D02*
X123225000Y-93800000D01*
X115360480Y-93047980D02*
X118173482Y-93047980D01*
X115262500Y-99461102D02*
X115262500Y-98212500D01*
X123225000Y-93800000D02*
X123225000Y-94575000D01*
X106820000Y-92600000D02*
X104525000Y-92600000D01*
D20*
X109585010Y-98750010D02*
X112964990Y-98750010D01*
D21*
X109360000Y-96575000D02*
X109082990Y-96297990D01*
X115262500Y-98212500D02*
X115262500Y-97190000D01*
X114800000Y-92487500D02*
X112915000Y-92487500D01*
X112275000Y-101587500D02*
X111735490Y-102127010D01*
X109082990Y-96297990D02*
X106318050Y-96297990D01*
X109360000Y-97550000D02*
X109360000Y-96575000D01*
X114800000Y-92487500D02*
X115360480Y-93047980D01*
X120275000Y-96006400D02*
X120275000Y-98775000D01*
X118462500Y-98775000D02*
X118462500Y-98125000D01*
X118462500Y-98775000D02*
X116847500Y-98775000D01*
D20*
X112964990Y-98750010D02*
X113115000Y-98600000D01*
D21*
X105920396Y-102127010D02*
X105252001Y-101458615D01*
X113115000Y-98600000D02*
X113115000Y-97837500D01*
X116686250Y-98613750D02*
X115262500Y-97190000D01*
X116847500Y-98775000D02*
X116686250Y-98613750D01*
X105252001Y-98177001D02*
X105252001Y-98445961D01*
X118648492Y-93522990D02*
X119322990Y-93522990D01*
X112275000Y-101587500D02*
X113062500Y-100800000D01*
X104525000Y-92600000D02*
X104300000Y-92825000D01*
X120275000Y-98775000D02*
X118462500Y-98775000D01*
X119322990Y-93522990D02*
X122947990Y-93522990D01*
D20*
X123225000Y-94575000D02*
X123225000Y-94625000D01*
D21*
X105252001Y-97364039D02*
X105252001Y-98177001D01*
D20*
X109360000Y-97550000D02*
X109360000Y-98525000D01*
D21*
X103497999Y-99147999D02*
X102997999Y-98647999D01*
X102997999Y-98647999D02*
X102997999Y-93952001D01*
X105252001Y-99147999D02*
X105252001Y-98177001D01*
X105252001Y-99147999D02*
X103497999Y-99147999D01*
X105252001Y-101458615D02*
X105252001Y-99147999D01*
X114221601Y-100502001D02*
X115262500Y-99461102D01*
D20*
X109360000Y-98525000D02*
X109585010Y-98750010D01*
D21*
X124187500Y-98775000D02*
X120275000Y-98775000D01*
X118173482Y-93047980D02*
X118648492Y-93522990D01*
X111735490Y-102127010D02*
X105920396Y-102127010D01*
X119322990Y-93522990D02*
X119322990Y-95054390D01*
X113923602Y-100800000D02*
X114221601Y-100502001D01*
D20*
X115262500Y-97190000D02*
X116010000Y-97937500D01*
D21*
X112275000Y-101710000D02*
X112365000Y-101710000D01*
X102997999Y-93952001D02*
X104125000Y-92825000D01*
X116075490Y-98002990D02*
X116686250Y-98613750D01*
D20*
X123225000Y-94625000D02*
X123300000Y-94700000D01*
%TO.N,SDA*%
X116886302Y-93399990D02*
X113577510Y-93399990D01*
X113332677Y-95260177D02*
X111942323Y-95260177D01*
X111942323Y-95260177D02*
X111777500Y-95425000D01*
X112887500Y-94062500D02*
X112092500Y-94062500D01*
X113600000Y-95527500D02*
X113332677Y-95260177D01*
X113577510Y-93399990D02*
X112915000Y-94062500D01*
X119200000Y-97475000D02*
X119425010Y-97249990D01*
X110625000Y-92595000D02*
X110625000Y-92842862D01*
X110625000Y-92842862D02*
X108102862Y-95365000D01*
X118462500Y-97475000D02*
X119200000Y-97475000D01*
X119425010Y-97249990D02*
X119425010Y-95938698D01*
X112092500Y-94062500D02*
X110630000Y-92600000D01*
X118462500Y-97475000D02*
X117840658Y-97475000D01*
X110630000Y-92600000D02*
X110625000Y-92595000D01*
X108102862Y-95365000D02*
X104300000Y-95365000D01*
X113600000Y-95210187D02*
X113600000Y-95527500D01*
X119425010Y-95938698D02*
X116886302Y-93399990D01*
X112915000Y-94062500D02*
X112887500Y-94062500D01*
%TO.N,SCL*%
X109075000Y-94875000D02*
X109754278Y-94875000D01*
X118462500Y-96825000D02*
X117550000Y-96825000D01*
X104125000Y-97905000D02*
X105100000Y-96930000D01*
X109360000Y-92750000D02*
X109070000Y-93040000D01*
X114962500Y-94062500D02*
X114800000Y-94062500D01*
X109360000Y-92600000D02*
X109360000Y-93575000D01*
X109360000Y-92600000D02*
X109360000Y-92750000D01*
X109360000Y-92600000D02*
X109360000Y-91625000D01*
X114100000Y-94875000D02*
X114100000Y-94762500D01*
X108284990Y-95665010D02*
X109075000Y-94875000D01*
X114100000Y-94875000D02*
X109754278Y-94875000D01*
X114100000Y-95527500D02*
X114100000Y-94875000D01*
X105100000Y-96930000D02*
X106364990Y-95665010D01*
X118462500Y-96825000D02*
X117725000Y-96825000D01*
X114100000Y-94762500D02*
X114800000Y-94062500D01*
X114800000Y-94075000D02*
X114800000Y-94062500D01*
X106364990Y-95665010D02*
X108284990Y-95665010D01*
%TO.N,USB_DM*%
X130662500Y-96487500D02*
X131200000Y-95950000D01*
X131200000Y-95950000D02*
X131200000Y-95100000D01*
X130304990Y-96845010D02*
X130079268Y-96845010D01*
X124187500Y-98125000D02*
X125300000Y-98125000D01*
X127154268Y-96845010D02*
X130079268Y-96845010D01*
X125874278Y-98125000D02*
X127154268Y-96845010D01*
X125300000Y-98125000D02*
X125874278Y-98125000D01*
X130304990Y-96845010D02*
X130662500Y-96487500D01*
%TO.N,USB_DP*%
X127030000Y-96545000D02*
X129955000Y-96545000D01*
X124187500Y-97475000D02*
X126100000Y-97475000D01*
X126100000Y-97475000D02*
X127030000Y-96545000D01*
X130550000Y-95950000D02*
X130550000Y-95100000D01*
X129955000Y-96545000D02*
X130550000Y-95950000D01*
X130550000Y-95950000D02*
X130275000Y-96225000D01*
D22*
%TO.N,Vdrive*%
X115852500Y-101077500D02*
X115550000Y-100775000D01*
X116725000Y-101077500D02*
X115852500Y-101077500D01*
D20*
%TO.N,SWDIO*%
X123450000Y-96175000D02*
X122225000Y-94950000D01*
X124187500Y-96175000D02*
X123450000Y-96175000D01*
X122225000Y-94950000D02*
X122225000Y-94575000D01*
%TO.N,SWCLK*%
X121225000Y-94882862D02*
X121225000Y-94575000D01*
X124187500Y-96825000D02*
X123167138Y-96825000D01*
X123167138Y-96825000D02*
X121225000Y-94882862D01*
%TO.N,CAP_Touch1*%
X132325000Y-98950000D02*
X137958334Y-98950000D01*
X129900000Y-101375000D02*
X132325000Y-98950000D01*
X137958334Y-98950000D02*
X138775000Y-99766666D01*
X124187500Y-101375000D02*
X129900000Y-101375000D01*
%TO.N,CAP_Touch*%
X124187500Y-100725000D02*
X128600000Y-100725000D01*
X136391666Y-93433334D02*
X138775000Y-93433334D01*
X128600000Y-100725000D02*
X129100000Y-100725000D01*
X129100000Y-100725000D02*
X136391666Y-93433334D01*
%TD*%
%TA.AperFunction,Conductor*%
%TO.N,GND*%
G36*
X102890596Y-99003750D02*
G01*
X103243615Y-99356770D01*
X103261885Y-99384113D01*
X103370215Y-99456497D01*
X103465744Y-99475499D01*
X103465748Y-99475499D01*
X103497999Y-99481914D01*
X103530250Y-99475499D01*
X104924502Y-99475499D01*
X104924501Y-101426365D01*
X104918086Y-101458615D01*
X104924501Y-101490865D01*
X104924501Y-101490869D01*
X104943503Y-101586398D01*
X104943504Y-101586399D01*
X104943504Y-101586400D01*
X105015886Y-101694729D01*
X105043232Y-101713000D01*
X105414636Y-102084405D01*
X105448661Y-102146717D01*
X105443596Y-102217533D01*
X105401049Y-102274368D01*
X105325540Y-102299500D01*
X102675500Y-102299500D01*
X102675500Y-99092845D01*
X102695502Y-99024724D01*
X102749158Y-98978231D01*
X102819432Y-98968127D01*
X102890596Y-99003750D01*
G37*
%TD.AperFunction*%
%TA.AperFunction,Conductor*%
G36*
X123721536Y-91361912D02*
G01*
X123721536Y-92729382D01*
X123762432Y-92903260D01*
X123865575Y-93039843D01*
X124011091Y-93129944D01*
X124074003Y-93141704D01*
X124136914Y-93153464D01*
X124904382Y-93153464D01*
X125078260Y-93112568D01*
X125214843Y-93009425D01*
X125304944Y-92863909D01*
X125328464Y-92738085D01*
X125328464Y-91370619D01*
X125288452Y-91200500D01*
X135578944Y-91200500D01*
X135625000Y-93250000D01*
X134450000Y-93275000D01*
X134425000Y-94325000D01*
X129150000Y-99550000D01*
X128775001Y-99924999D01*
X125144809Y-99907956D01*
X125043567Y-99756435D01*
X125043566Y-99756434D01*
X124942388Y-99688830D01*
X124853164Y-99671082D01*
X123521836Y-99671082D01*
X123432612Y-99688830D01*
X123331434Y-99756434D01*
X123263830Y-99857612D01*
X123246082Y-99946836D01*
X123246082Y-100203164D01*
X123263830Y-100292388D01*
X123266602Y-100296536D01*
X123335733Y-100400000D01*
X123331434Y-100406434D01*
X123263830Y-100507612D01*
X123246082Y-100596836D01*
X123246082Y-100853164D01*
X123263830Y-100942388D01*
X123292029Y-100984591D01*
X123335733Y-101050000D01*
X123331434Y-101056434D01*
X123263830Y-101157612D01*
X123246082Y-101246836D01*
X123246082Y-101503164D01*
X123263830Y-101592388D01*
X123296889Y-101641865D01*
X123335733Y-101700000D01*
X123331434Y-101706434D01*
X123263830Y-101807612D01*
X123246082Y-101896836D01*
X123246082Y-102153164D01*
X123263830Y-102242388D01*
X123263837Y-102242399D01*
X123275198Y-102299500D01*
X119374802Y-102299500D01*
X119386163Y-102242399D01*
X119386170Y-102242388D01*
X119403918Y-102153164D01*
X119403918Y-101896836D01*
X119386170Y-101807612D01*
X119318566Y-101706434D01*
X119314267Y-101700000D01*
X119353111Y-101641865D01*
X119386170Y-101592388D01*
X119403918Y-101503164D01*
X119403918Y-101246836D01*
X119386170Y-101157612D01*
X119318566Y-101056434D01*
X119314267Y-101050000D01*
X119357971Y-100984591D01*
X119386170Y-100942388D01*
X119403918Y-100853164D01*
X119403918Y-100596836D01*
X119386170Y-100507612D01*
X119318566Y-100406434D01*
X119314267Y-100400000D01*
X119383398Y-100296536D01*
X119386170Y-100292388D01*
X119403918Y-100203164D01*
X119403918Y-99946836D01*
X119386170Y-99857612D01*
X119318566Y-99756434D01*
X119314267Y-99750000D01*
X119344320Y-99705022D01*
X119386170Y-99642388D01*
X119403918Y-99553164D01*
X119403918Y-99296836D01*
X119386170Y-99207612D01*
X119386169Y-99207610D01*
X119365260Y-99102500D01*
X120242744Y-99102500D01*
X120275000Y-99108916D01*
X120307256Y-99102500D01*
X123344804Y-99102500D01*
X123398475Y-99138361D01*
X123432612Y-99161170D01*
X123521836Y-99178918D01*
X124853164Y-99178918D01*
X124942388Y-99161170D01*
X124976525Y-99138361D01*
X125030196Y-99102500D01*
X126217749Y-99102500D01*
X126250000Y-99108915D01*
X126282251Y-99102500D01*
X126282255Y-99102500D01*
X126377784Y-99083498D01*
X126486114Y-99011114D01*
X126504386Y-98983768D01*
X126507784Y-98980370D01*
X126660404Y-98953458D01*
X126736322Y-98940072D01*
X126736323Y-98940071D01*
X126742864Y-98938918D01*
X126789506Y-98938918D01*
X126892854Y-98918361D01*
X127010052Y-98840052D01*
X127088361Y-98722854D01*
X127108918Y-98619506D01*
X127108918Y-98260494D01*
X127088361Y-98157146D01*
X127010052Y-98039948D01*
X126892854Y-97961639D01*
X126789506Y-97941082D01*
X126752001Y-97941082D01*
X126683880Y-97921080D01*
X126637387Y-97867424D01*
X126627283Y-97797150D01*
X126662906Y-97725987D01*
X127268383Y-97120510D01*
X130258000Y-97120510D01*
X130273001Y-97125778D01*
X130320336Y-97120510D01*
X130336046Y-97120510D01*
X130351013Y-97117096D01*
X130369880Y-97114996D01*
X130397922Y-97111875D01*
X130411650Y-97103264D01*
X130427535Y-97099640D01*
X130464929Y-97069842D01*
X130477926Y-97061689D01*
X130488776Y-97050839D01*
X130525835Y-97021308D01*
X130525836Y-97021307D01*
X130532850Y-97006765D01*
X130879266Y-96660350D01*
X131361581Y-96178035D01*
X131369032Y-96174457D01*
X131375914Y-96171153D01*
X131399183Y-96142055D01*
X131405660Y-96133956D01*
X131416768Y-96122848D01*
X131424933Y-96109858D01*
X131454416Y-96072989D01*
X131458035Y-96057191D01*
X131466703Y-96043399D01*
X131472070Y-95995915D01*
X131473590Y-95989281D01*
X131478036Y-95988396D01*
X131499584Y-95973998D01*
X131571963Y-95988395D01*
X131571964Y-95988396D01*
X131650000Y-96003918D01*
X132050002Y-96003918D01*
X132128036Y-95988397D01*
X132194192Y-95944192D01*
X132238397Y-95878036D01*
X132253918Y-95800002D01*
X132253918Y-95531856D01*
X132340132Y-95429110D01*
X132400500Y-95263252D01*
X132400500Y-95086748D01*
X132387294Y-95050465D01*
X132382791Y-94979613D01*
X132417309Y-94917572D01*
X132479888Y-94884042D01*
X132568695Y-94898252D01*
X132576177Y-94902572D01*
X132750000Y-94933221D01*
X132923822Y-94902572D01*
X132931304Y-94898252D01*
X133076678Y-94814320D01*
X133190132Y-94679110D01*
X133250500Y-94513252D01*
X133250500Y-94205400D01*
X133376188Y-94227562D01*
X133550010Y-94258211D01*
X133723832Y-94227562D01*
X133751472Y-94211604D01*
X133876688Y-94139310D01*
X133990142Y-94004100D01*
X134050510Y-93838242D01*
X134050510Y-93661738D01*
X133990142Y-93495880D01*
X133876688Y-93360670D01*
X133723832Y-93272418D01*
X133550010Y-93241769D01*
X133376188Y-93272418D01*
X133223332Y-93360670D01*
X133127826Y-93474490D01*
X131097000Y-93474490D01*
X131081999Y-93469222D01*
X131034664Y-93474490D01*
X131018954Y-93474490D01*
X131003987Y-93477904D01*
X130957076Y-93483125D01*
X130943349Y-93491736D01*
X130927466Y-93495359D01*
X130927465Y-93495360D01*
X130890075Y-93525155D01*
X130877073Y-93533311D01*
X130866223Y-93544161D01*
X130829165Y-93573692D01*
X130822151Y-93588233D01*
X130388420Y-94021965D01*
X130381079Y-94025490D01*
X130374087Y-94028847D01*
X130355489Y-94052104D01*
X130344342Y-94066043D01*
X130333231Y-94077154D01*
X130325062Y-94090150D01*
X130295585Y-94127011D01*
X130291967Y-94142807D01*
X130283297Y-94156602D01*
X130277928Y-94204094D01*
X130276411Y-94210719D01*
X130271964Y-94211604D01*
X130250416Y-94226002D01*
X130178037Y-94211604D01*
X130178036Y-94211604D01*
X130100000Y-94196082D01*
X129699998Y-94196082D01*
X129621964Y-94211603D01*
X129555808Y-94255808D01*
X129511603Y-94321964D01*
X129496082Y-94399998D01*
X129496082Y-95800002D01*
X129511603Y-95878036D01*
X129555808Y-95944192D01*
X129621964Y-95988397D01*
X129699998Y-96003918D01*
X129802276Y-96003918D01*
X129870397Y-96023920D01*
X129916890Y-96077576D01*
X129926994Y-96147850D01*
X129891371Y-96219013D01*
X129840885Y-96269500D01*
X127076990Y-96269500D01*
X127061989Y-96264232D01*
X127014654Y-96269500D01*
X126998944Y-96269500D01*
X126983977Y-96272914D01*
X126937066Y-96278135D01*
X126923339Y-96286746D01*
X126907456Y-96290369D01*
X126907455Y-96290370D01*
X126870065Y-96320165D01*
X126857063Y-96328321D01*
X126846213Y-96339171D01*
X126809483Y-96368441D01*
X126809155Y-96368702D01*
X126802141Y-96383243D01*
X125985885Y-97199500D01*
X125079916Y-97199500D01*
X125111169Y-97042390D01*
X125111170Y-97042388D01*
X125128918Y-96953164D01*
X125128918Y-96696836D01*
X125111170Y-96607612D01*
X125043566Y-96506434D01*
X125039267Y-96500000D01*
X125043566Y-96493566D01*
X125111170Y-96392388D01*
X125128918Y-96303164D01*
X125128918Y-96046836D01*
X125111170Y-95957612D01*
X125043566Y-95856434D01*
X124942388Y-95788830D01*
X124853164Y-95771082D01*
X123570670Y-95771082D01*
X123502549Y-95751080D01*
X123456056Y-95697424D01*
X123445952Y-95627150D01*
X123500668Y-95540317D01*
X123572180Y-95492534D01*
X123629340Y-95454340D01*
X123708213Y-95336300D01*
X123728918Y-95232208D01*
X123728918Y-93917792D01*
X123708213Y-93813700D01*
X123629340Y-93695660D01*
X123511300Y-93616787D01*
X123511299Y-93616787D01*
X123484494Y-93598876D01*
X123461114Y-93563886D01*
X123433768Y-93545614D01*
X123202376Y-93314222D01*
X123184104Y-93286876D01*
X123075774Y-93214492D01*
X122980245Y-93195490D01*
X122980241Y-93195490D01*
X122947990Y-93189075D01*
X122915739Y-93195490D01*
X119725850Y-93195490D01*
X119657729Y-93175488D01*
X119611236Y-93121832D01*
X119601132Y-93051558D01*
X119618723Y-93003159D01*
X119704944Y-92863909D01*
X119728464Y-92738085D01*
X119728464Y-91370619D01*
X119688452Y-91200500D01*
X123751707Y-91200500D01*
X123721536Y-91361912D01*
G37*
%TD.AperFunction*%
%TA.AperFunction,Conductor*%
G36*
X113584765Y-96027845D02*
G01*
X113584765Y-96027846D01*
X113587946Y-96029329D01*
X113603334Y-96033814D01*
X113618357Y-96040820D01*
X113635518Y-96043846D01*
X113635627Y-96043227D01*
X113640802Y-96044735D01*
X113640795Y-96044776D01*
X113641165Y-96044841D01*
X113647470Y-96046679D01*
X113650470Y-96046483D01*
X113694110Y-96054178D01*
X113724999Y-96048731D01*
X113725000Y-96048731D01*
X113794750Y-96036431D01*
X113794751Y-96036431D01*
X113794755Y-96036430D01*
X113797469Y-96035442D01*
X113800311Y-96034941D01*
X113847011Y-96019089D01*
X113921040Y-96033814D01*
X113971836Y-96043918D01*
X114228164Y-96043918D01*
X114317388Y-96026170D01*
X114322932Y-96025067D01*
X114412130Y-96040792D01*
X114416984Y-96042680D01*
X114417911Y-96042700D01*
X114423676Y-96042827D01*
X114429227Y-96043806D01*
X114439596Y-96045634D01*
X114475000Y-96048731D01*
X114518934Y-96048731D01*
X114561112Y-96041294D01*
X114570428Y-96040479D01*
X114574841Y-96038873D01*
X114580803Y-96037822D01*
X114588667Y-96036435D01*
X114588668Y-96036435D01*
X114588683Y-96036432D01*
X114605054Y-96030473D01*
X114605053Y-96030471D01*
X114636676Y-96018963D01*
X114639976Y-96017762D01*
X114639977Y-96017761D01*
X114746082Y-95979146D01*
X114746082Y-96318164D01*
X114763830Y-96407388D01*
X114763831Y-96407390D01*
X114770318Y-96440000D01*
X114763831Y-96472610D01*
X114763830Y-96472612D01*
X114746082Y-96561836D01*
X114746082Y-96818164D01*
X114761785Y-96897104D01*
X114764933Y-96912932D01*
X114749208Y-97002130D01*
X114747406Y-97006765D01*
X114747320Y-97006985D01*
X114747173Y-97013676D01*
X114746194Y-97019227D01*
X114744366Y-97029596D01*
X114741269Y-97065000D01*
X114741269Y-97108934D01*
X114748706Y-97151112D01*
X114749521Y-97160428D01*
X114751127Y-97164841D01*
X114753568Y-97178683D01*
X114759527Y-97195054D01*
X114771038Y-97226676D01*
X114771037Y-97226676D01*
X114772238Y-97229976D01*
X114779949Y-97244027D01*
X114785629Y-97259634D01*
X114795624Y-97273907D01*
X114796145Y-97273542D01*
X114798718Y-97278232D01*
X114798675Y-97278262D01*
X114798953Y-97278659D01*
X114802111Y-97284414D01*
X114804367Y-97286391D01*
X114811763Y-97296953D01*
X114852842Y-97338031D01*
X114935001Y-97420190D01*
X114935000Y-98244754D01*
X114935001Y-98244759D01*
X114935000Y-99325447D01*
X114012834Y-100247614D01*
X114012831Y-100247616D01*
X113787948Y-100472500D01*
X113094750Y-100472500D01*
X113062499Y-100466085D01*
X113030248Y-100472500D01*
X113030245Y-100472500D01*
X112934716Y-100491502D01*
X112919002Y-100502002D01*
X112859366Y-100541850D01*
X112858743Y-100542266D01*
X112826386Y-100563886D01*
X112808116Y-100591229D01*
X112452809Y-100946536D01*
X111991165Y-100946536D01*
X111829365Y-100984591D01*
X111702266Y-101080572D01*
X111618422Y-101215983D01*
X111618422Y-101215984D01*
X111596748Y-101331935D01*
X111596536Y-101333067D01*
X111596536Y-101799510D01*
X106056051Y-101799510D01*
X105579501Y-101322961D01*
X105579501Y-100228514D01*
X105599503Y-100160393D01*
X105653159Y-100113900D01*
X105723433Y-100103796D01*
X105806051Y-100152582D01*
X105820022Y-100171082D01*
X105836574Y-100193001D01*
X105978046Y-100280597D01*
X106059599Y-100295842D01*
X106100375Y-100303464D01*
X106410310Y-100303464D01*
X106665616Y-100558770D01*
X106683886Y-100586114D01*
X106792216Y-100658498D01*
X106887745Y-100677500D01*
X106887748Y-100677500D01*
X106919999Y-100683915D01*
X106952250Y-100677500D01*
X107081200Y-100677500D01*
X107114722Y-100743287D01*
X107130425Y-100761479D01*
X107225431Y-100871544D01*
X107330955Y-100946536D01*
X107363536Y-100969690D01*
X107521067Y-101032061D01*
X107688921Y-101055054D01*
X107688924Y-101055054D01*
X107815298Y-101041772D01*
X107857424Y-101037344D01*
X107936796Y-101008768D01*
X108016833Y-100979953D01*
X108157952Y-100886193D01*
X108272633Y-100761479D01*
X108354255Y-100613009D01*
X108398106Y-100449355D01*
X108400034Y-100265287D01*
X108382279Y-100193000D01*
X108359620Y-100100749D01*
X108281125Y-99950604D01*
X108252500Y-99918134D01*
X108252500Y-99662251D01*
X108258915Y-99630000D01*
X108252500Y-99597749D01*
X108252500Y-99597745D01*
X108244867Y-99559371D01*
X108251195Y-99488657D01*
X108294749Y-99432590D01*
X108361702Y-99408971D01*
X108457541Y-99445695D01*
X108999807Y-99987961D01*
X108961067Y-100060211D01*
X108943026Y-100093856D01*
X108943026Y-100093857D01*
X108900892Y-100257961D01*
X108899117Y-100427378D01*
X108937806Y-100592329D01*
X109014724Y-100743289D01*
X109125431Y-100871544D01*
X109235593Y-100949832D01*
X109263536Y-100969690D01*
X109421067Y-101032061D01*
X109588921Y-101055054D01*
X109588924Y-101055054D01*
X109715298Y-101041772D01*
X109757424Y-101037344D01*
X109836796Y-101008768D01*
X109916833Y-100979953D01*
X110057952Y-100886193D01*
X110172633Y-100761479D01*
X110254255Y-100613009D01*
X110298106Y-100449355D01*
X110299263Y-100338891D01*
X110409691Y-100228464D01*
X110435656Y-100202500D01*
X110611480Y-100202500D01*
X110628048Y-100205597D01*
X110750375Y-100228464D01*
X111291164Y-100228464D01*
X111460211Y-100188704D01*
X111497701Y-100160393D01*
X111593000Y-100088427D01*
X111593001Y-100088426D01*
X111680597Y-99946954D01*
X111703464Y-99824624D01*
X111703464Y-99183835D01*
X111666227Y-99025510D01*
X112715633Y-99025510D01*
X112802417Y-99083497D01*
X112832146Y-99103361D01*
X112935494Y-99123918D01*
X113294506Y-99123918D01*
X113397854Y-99103361D01*
X113515052Y-99025052D01*
X113593361Y-98907854D01*
X113613918Y-98804506D01*
X113613918Y-98395494D01*
X113593361Y-98292146D01*
X113515052Y-98174947D01*
X113478776Y-98150709D01*
X113442500Y-98126470D01*
X113442500Y-97973154D01*
X113541923Y-97873731D01*
X113725004Y-97873731D01*
X113794750Y-97861432D01*
X113797469Y-97860442D01*
X113800308Y-97859942D01*
X113859069Y-97839995D01*
X113859070Y-97839994D01*
X113859071Y-97839994D01*
X113876313Y-97826155D01*
X113900440Y-97812920D01*
X113918593Y-97792221D01*
X113921117Y-97790195D01*
X113921121Y-97790191D01*
X113925750Y-97784674D01*
X113925749Y-97784673D01*
X113937596Y-97770552D01*
X113952901Y-97753100D01*
X113954349Y-97750591D01*
X113956210Y-97748374D01*
X113956219Y-97748354D01*
X113970071Y-97731843D01*
X114002680Y-97648017D01*
X114002827Y-97641324D01*
X114003806Y-97635773D01*
X114005634Y-97625404D01*
X114008731Y-97590000D01*
X114008731Y-97114996D01*
X113996432Y-97045250D01*
X113995442Y-97042531D01*
X113994942Y-97039692D01*
X113974995Y-96980931D01*
X113974994Y-96980930D01*
X113974994Y-96980929D01*
X113961155Y-96963687D01*
X113947920Y-96939560D01*
X113927221Y-96921407D01*
X113925195Y-96918883D01*
X113925191Y-96918879D01*
X113919674Y-96914250D01*
X113919673Y-96914251D01*
X113905552Y-96902404D01*
X113888100Y-96887099D01*
X113885591Y-96885651D01*
X113883374Y-96883790D01*
X113883354Y-96883781D01*
X113866843Y-96869929D01*
X113783017Y-96837320D01*
X113776324Y-96837173D01*
X113770773Y-96836194D01*
X113760404Y-96834366D01*
X113725000Y-96831269D01*
X113681066Y-96831269D01*
X113638877Y-96838708D01*
X113629570Y-96839522D01*
X113625164Y-96841125D01*
X113611305Y-96843569D01*
X113563304Y-96861044D01*
X113561802Y-96861591D01*
X113453918Y-96900867D01*
X113453918Y-96561836D01*
X113436170Y-96472612D01*
X113436169Y-96472610D01*
X113429682Y-96440000D01*
X113436169Y-96407390D01*
X113436170Y-96407388D01*
X113453918Y-96318164D01*
X113453918Y-95966834D01*
X113584765Y-96027845D01*
G37*
%TD.AperFunction*%
%TA.AperFunction,Conductor*%
G36*
X115805095Y-98195750D02*
G01*
X116276082Y-98666737D01*
X116276082Y-98839506D01*
X116296639Y-98942854D01*
X116374948Y-99060052D01*
X116492146Y-99138361D01*
X116595494Y-99158918D01*
X117004506Y-99158918D01*
X117107855Y-99138361D01*
X117161525Y-99102500D01*
X117559740Y-99102500D01*
X117538831Y-99207610D01*
X117538830Y-99207612D01*
X117521082Y-99296836D01*
X117521082Y-99553164D01*
X117538830Y-99642388D01*
X117580680Y-99705022D01*
X117610733Y-99750000D01*
X117606434Y-99756434D01*
X117538830Y-99857612D01*
X117521082Y-99946836D01*
X117521082Y-100203164D01*
X117538830Y-100292388D01*
X117541602Y-100296536D01*
X117610733Y-100400000D01*
X117606434Y-100406434D01*
X117538830Y-100507612D01*
X117532430Y-100539789D01*
X117532020Y-100541850D01*
X117499112Y-100604759D01*
X117437416Y-100639890D01*
X117366522Y-100636089D01*
X117307891Y-100593199D01*
X117269428Y-100542266D01*
X117134017Y-100458422D01*
X117085506Y-100449354D01*
X117016935Y-100436536D01*
X116887049Y-100436536D01*
X116775000Y-100416779D01*
X116662951Y-100436536D01*
X116441166Y-100436536D01*
X116279365Y-100474591D01*
X116279364Y-100474592D01*
X116226213Y-100487093D01*
X116196736Y-100338891D01*
X116188396Y-100296964D01*
X116144192Y-100230808D01*
X116140684Y-100228464D01*
X116078036Y-100186603D01*
X116000002Y-100171082D01*
X115319866Y-100171082D01*
X115251745Y-100151080D01*
X115205252Y-100097424D01*
X115195148Y-100027150D01*
X115230771Y-99955987D01*
X115471272Y-99715485D01*
X115498614Y-99697216D01*
X115516076Y-99671082D01*
X115570998Y-99588886D01*
X115590000Y-99493357D01*
X115590935Y-99488657D01*
X115596415Y-99461103D01*
X115590000Y-99428852D01*
X115590000Y-98284845D01*
X115610002Y-98216724D01*
X115663658Y-98170231D01*
X115733932Y-98160127D01*
X115805095Y-98195750D01*
G37*
%TD.AperFunction*%
%TA.AperFunction,Conductor*%
G36*
X109427600Y-95264320D02*
G01*
X109580456Y-95352572D01*
X109754278Y-95383221D01*
X109928100Y-95352572D01*
X109955508Y-95336748D01*
X110080956Y-95264320D01*
X110176462Y-95150500D01*
X111344788Y-95150500D01*
X111277163Y-95336300D01*
X111277000Y-95336748D01*
X111277000Y-95513252D01*
X111337368Y-95679110D01*
X111450822Y-95814320D01*
X111584539Y-95891522D01*
X111603678Y-95902572D01*
X111777500Y-95933221D01*
X111951322Y-95902572D01*
X112104178Y-95814320D01*
X112193747Y-95707575D01*
X112252857Y-95668248D01*
X112323845Y-95667122D01*
X112384172Y-95704553D01*
X112416269Y-95788566D01*
X112416269Y-95815004D01*
X112428568Y-95884750D01*
X112429558Y-95887469D01*
X112430059Y-95890311D01*
X112445911Y-95937011D01*
X112427843Y-96027846D01*
X112421082Y-96061836D01*
X112421082Y-96318164D01*
X112438830Y-96407388D01*
X112438831Y-96407390D01*
X112445318Y-96440000D01*
X112438831Y-96472610D01*
X112438830Y-96472612D01*
X112421082Y-96561836D01*
X112421082Y-96818164D01*
X112436785Y-96897104D01*
X112439933Y-96912932D01*
X112424208Y-97002130D01*
X112422406Y-97006765D01*
X112422320Y-97006985D01*
X112422173Y-97013676D01*
X112421194Y-97019227D01*
X112419366Y-97029596D01*
X112416269Y-97065000D01*
X112416269Y-97315004D01*
X112428568Y-97384750D01*
X112429558Y-97387469D01*
X112430058Y-97390308D01*
X112440201Y-97420188D01*
X112450006Y-97449071D01*
X112463845Y-97466313D01*
X112477080Y-97490440D01*
X112497778Y-97508592D01*
X112499805Y-97511117D01*
X112499809Y-97511121D01*
X112505326Y-97515750D01*
X112505327Y-97515749D01*
X112519448Y-97527596D01*
X112536900Y-97542901D01*
X112539409Y-97544349D01*
X112541626Y-97546210D01*
X112541646Y-97546219D01*
X112558157Y-97560071D01*
X112641983Y-97592680D01*
X112648676Y-97592827D01*
X112654227Y-97593806D01*
X112664596Y-97595634D01*
X112700000Y-97598731D01*
X112700010Y-97598731D01*
X112826382Y-97609785D01*
X112806504Y-97709714D01*
X112806503Y-97709716D01*
X112781085Y-97837500D01*
X112785649Y-97860442D01*
X112787501Y-97869755D01*
X112787501Y-98126470D01*
X112722008Y-98170231D01*
X112714948Y-98174948D01*
X112636639Y-98292146D01*
X112600365Y-98474510D01*
X109863918Y-98474510D01*
X109863918Y-96692792D01*
X109843213Y-96588700D01*
X109764340Y-96470660D01*
X109646300Y-96391787D01*
X109646299Y-96391787D01*
X109619494Y-96373876D01*
X109596114Y-96338886D01*
X109592665Y-96336581D01*
X109579837Y-96328010D01*
X109568768Y-96320614D01*
X109337376Y-96089222D01*
X109319104Y-96061876D01*
X109210774Y-95989492D01*
X109115245Y-95970490D01*
X109115241Y-95970490D01*
X109082990Y-95964075D01*
X109050739Y-95970490D01*
X108673316Y-95970490D01*
X108605195Y-95950488D01*
X108558702Y-95896832D01*
X108548598Y-95826558D01*
X108584221Y-95755395D01*
X109189116Y-95150500D01*
X109332094Y-95150500D01*
X109427600Y-95264320D01*
G37*
%TD.AperFunction*%
%TA.AperFunction,Conductor*%
G36*
X120721082Y-95232208D02*
G01*
X120741787Y-95336300D01*
X120820660Y-95454340D01*
X120938700Y-95533213D01*
X121042792Y-95553918D01*
X121407208Y-95553918D01*
X121489977Y-95537454D01*
X122939103Y-96986581D01*
X122940596Y-96989690D01*
X122945985Y-97000914D01*
X122961944Y-97013676D01*
X122983182Y-97030660D01*
X122994290Y-97041768D01*
X123007280Y-97049933D01*
X123044149Y-97079416D01*
X123059947Y-97083035D01*
X123073739Y-97091703D01*
X123116626Y-97096551D01*
X123121246Y-97097073D01*
X123136207Y-97100500D01*
X123151558Y-97100500D01*
X123198637Y-97105822D01*
X123213877Y-97100500D01*
X123295084Y-97100500D01*
X123263831Y-97257610D01*
X123263830Y-97257612D01*
X123246082Y-97346836D01*
X123246082Y-97603164D01*
X123263830Y-97692388D01*
X123304396Y-97753100D01*
X123335733Y-97800000D01*
X123331434Y-97806434D01*
X123263830Y-97907612D01*
X123246082Y-97996836D01*
X123246082Y-98253164D01*
X123263830Y-98342388D01*
X123263831Y-98342390D01*
X123284740Y-98447500D01*
X120602500Y-98447500D01*
X120602500Y-96038649D01*
X120602941Y-96036435D01*
X120608915Y-96006399D01*
X120602500Y-95974148D01*
X120602500Y-95974146D01*
X120601773Y-95970490D01*
X120583498Y-95878616D01*
X120511114Y-95770286D01*
X120483771Y-95752016D01*
X119650490Y-94918736D01*
X119650490Y-93850490D01*
X120721082Y-93850490D01*
X120721082Y-95232208D01*
G37*
%TD.AperFunction*%
%TA.AperFunction,Conductor*%
G36*
X116999501Y-94539117D02*
G01*
X116999500Y-96328010D01*
X116994232Y-96343011D01*
X116999500Y-96390346D01*
X116999500Y-96406055D01*
X117002913Y-96421017D01*
X117005026Y-96440000D01*
X117008135Y-96467932D01*
X117016747Y-96481660D01*
X117020370Y-96497544D01*
X117050166Y-96534936D01*
X117058321Y-96547936D01*
X117069172Y-96558787D01*
X117098702Y-96595845D01*
X117113244Y-96602859D01*
X117274545Y-96764160D01*
X117274447Y-96877433D01*
X117274438Y-96887606D01*
X117328847Y-97000913D01*
X117427011Y-97079416D01*
X117519069Y-97100500D01*
X117519071Y-97100500D01*
X117588244Y-97116343D01*
X117606434Y-97143566D01*
X117612398Y-97147551D01*
X117606481Y-97156402D01*
X117606434Y-97156434D01*
X117538830Y-97257612D01*
X117521082Y-97346836D01*
X117521082Y-97603164D01*
X117538830Y-97692388D01*
X117579396Y-97753100D01*
X117610733Y-97800000D01*
X117606434Y-97806434D01*
X117538830Y-97907612D01*
X117521082Y-97996836D01*
X117521082Y-98253164D01*
X117524906Y-98272387D01*
X117518578Y-98343099D01*
X117475025Y-98399167D01*
X117408072Y-98422787D01*
X117338979Y-98406461D01*
X117296562Y-98366970D01*
X117225052Y-98259948D01*
X117107854Y-98181639D01*
X117004506Y-98161082D01*
X116696737Y-98161082D01*
X115783731Y-97248077D01*
X115783731Y-97064996D01*
X115771432Y-96995250D01*
X115770442Y-96992531D01*
X115769941Y-96989689D01*
X115754089Y-96942989D01*
X115775162Y-96837048D01*
X115778918Y-96818164D01*
X115778918Y-96561836D01*
X115761170Y-96472612D01*
X115761169Y-96472610D01*
X115754682Y-96440000D01*
X115761169Y-96407390D01*
X115761170Y-96407388D01*
X115778918Y-96318164D01*
X115778918Y-96061836D01*
X115761170Y-95972612D01*
X115760067Y-95967068D01*
X115775792Y-95877868D01*
X115777680Y-95873015D01*
X115777827Y-95866324D01*
X115778806Y-95860773D01*
X115780634Y-95850404D01*
X115783731Y-95815000D01*
X115783731Y-95564996D01*
X115771432Y-95495250D01*
X115770442Y-95492531D01*
X115769942Y-95489692D01*
X115749995Y-95430931D01*
X115749994Y-95430930D01*
X115749994Y-95430929D01*
X115736155Y-95413687D01*
X115722920Y-95389560D01*
X115702221Y-95371407D01*
X115700195Y-95368883D01*
X115700191Y-95368879D01*
X115694674Y-95364250D01*
X115694673Y-95364251D01*
X115680552Y-95352404D01*
X115663100Y-95337099D01*
X115660591Y-95335651D01*
X115658374Y-95333790D01*
X115658354Y-95333781D01*
X115641843Y-95319929D01*
X115558017Y-95287320D01*
X115551324Y-95287173D01*
X115545773Y-95286194D01*
X115535404Y-95284366D01*
X115500000Y-95281269D01*
X115231066Y-95281269D01*
X115188881Y-95288707D01*
X115179570Y-95289522D01*
X115175161Y-95291126D01*
X115161303Y-95293570D01*
X115037069Y-95338797D01*
X114974995Y-95155931D01*
X114974994Y-95155930D01*
X114974994Y-95155929D01*
X114961155Y-95138687D01*
X114947920Y-95114560D01*
X114927221Y-95096407D01*
X114925195Y-95093883D01*
X114925191Y-95093879D01*
X114919674Y-95089250D01*
X114919673Y-95089251D01*
X114905552Y-95077404D01*
X114888100Y-95062099D01*
X114885591Y-95060651D01*
X114883374Y-95058790D01*
X114883354Y-95058781D01*
X114866843Y-95044929D01*
X114783017Y-95012320D01*
X114776324Y-95012173D01*
X114770773Y-95011194D01*
X114760404Y-95009366D01*
X114725000Y-95006269D01*
X114550036Y-95006269D01*
X114481915Y-94986267D01*
X114435422Y-94932611D01*
X114425318Y-94862337D01*
X114460941Y-94791174D01*
X114548651Y-94703464D01*
X115083835Y-94703464D01*
X115245635Y-94665409D01*
X115372734Y-94569428D01*
X115456578Y-94434017D01*
X115474527Y-94338000D01*
X116798385Y-94338000D01*
X116999501Y-94539117D01*
G37*
%TD.AperFunction*%
%TA.AperFunction,Conductor*%
G36*
X118121536Y-91361912D02*
G01*
X118121536Y-92720480D01*
X115496135Y-92720480D01*
X115478464Y-92702809D01*
X115478464Y-92241166D01*
X115440409Y-92079365D01*
X115344428Y-91952266D01*
X115255113Y-91896964D01*
X115209017Y-91868422D01*
X115169989Y-91861127D01*
X115091935Y-91846536D01*
X114516165Y-91846536D01*
X114354365Y-91884591D01*
X114227266Y-91980572D01*
X114116168Y-92160000D01*
X113574374Y-92160000D01*
X113555409Y-92079365D01*
X113476595Y-91974998D01*
X113459428Y-91952266D01*
X113324017Y-91868422D01*
X113284989Y-91861127D01*
X113206935Y-91846536D01*
X112631165Y-91846536D01*
X112469365Y-91884591D01*
X112342266Y-91980572D01*
X112258422Y-92115983D01*
X112236536Y-92233067D01*
X112236536Y-92733835D01*
X112274591Y-92895635D01*
X112370572Y-93022734D01*
X112505983Y-93106578D01*
X112538028Y-93112568D01*
X112623065Y-93128464D01*
X113155230Y-93128464D01*
X113223351Y-93148466D01*
X113269844Y-93202122D01*
X113279948Y-93272396D01*
X113244325Y-93343559D01*
X113166348Y-93421536D01*
X112631165Y-93421536D01*
X112469365Y-93459591D01*
X112342266Y-93555572D01*
X112201894Y-93782278D01*
X111133918Y-92714303D01*
X111133918Y-91742792D01*
X111113213Y-91638700D01*
X111034340Y-91520660D01*
X110916300Y-91441787D01*
X110916299Y-91441787D01*
X110900552Y-91431265D01*
X110855024Y-91376788D01*
X110846176Y-91306345D01*
X110876818Y-91242301D01*
X110970554Y-91200500D01*
X118151707Y-91200500D01*
X118121536Y-91361912D01*
G37*
%TD.AperFunction*%
%TD*%
M02*
