%TF.GenerationSoftware,KiCad,Pcbnew,(5.99.0-3299-gfc1665ff2)*%
%TF.CreationDate,2020-09-21T16:58:29+07:00*%
%TF.ProjectId,smart_wristband,736d6172-745f-4777-9269-737462616e64,rev?*%
%TF.SameCoordinates,Original*%
%TF.FileFunction,Copper,L2,Bot*%
%TF.FilePolarity,Positive*%
%FSLAX46Y46*%
G04 Gerber Fmt 4.6, Leading zero omitted, Abs format (unit mm)*
G04 Created by KiCad (PCBNEW (5.99.0-3299-gfc1665ff2)) date 2020-09-21 16:58:29*
%MOMM*%
%LPD*%
G01*
G04 APERTURE LIST*
%TA.AperFunction,ComponentPad*%
%ADD10C,1.000000*%
%TD*%
%TA.AperFunction,ComponentPad*%
%ADD11R,1.700000X1.700000*%
%TD*%
%TA.AperFunction,ComponentPad*%
%ADD12O,1.700000X1.700000*%
%TD*%
%TA.AperFunction,SMDPad,CuDef*%
%ADD13R,1.350000X1.350000*%
%TD*%
%TA.AperFunction,SMDPad,CuDef*%
%ADD14O,1.350000X1.350000*%
%TD*%
%TA.AperFunction,SMDPad,CuDef*%
%ADD15R,1.560000X0.400000*%
%TD*%
%TA.AperFunction,SMDPad,CuDef*%
%ADD16R,1.200000X0.550000*%
%TD*%
%TA.AperFunction,SMDPad,CuDef*%
%ADD17R,1.500000X0.650000*%
%TD*%
%TA.AperFunction,ViaPad*%
%ADD18C,1.000000*%
%TD*%
%TA.AperFunction,ViaPad*%
%ADD19C,0.600000*%
%TD*%
%TA.AperFunction,Conductor*%
%ADD20C,0.150000*%
%TD*%
%TA.AperFunction,Conductor*%
%ADD21C,0.254000*%
%TD*%
%TA.AperFunction,Conductor*%
%ADD22C,0.500000*%
%TD*%
G04 APERTURE END LIST*
%TO.P,J5,MP*%
%TO.N,N/C*%
%TA.AperFunction,SMDPad,CuDef*%
G36*
G01*
X136100000Y-91575000D02*
X136100000Y-92875000D01*
G75*
G02*
X135850000Y-93125000I-250000J0D01*
G01*
X135150000Y-93125000D01*
G75*
G02*
X134900000Y-92875000I0J250000D01*
G01*
X134900000Y-91575000D01*
G75*
G02*
X135150000Y-91325000I250000J0D01*
G01*
X135850000Y-91325000D01*
G75*
G02*
X136100000Y-91575000I0J-250000D01*
G01*
G37*
%TD.AperFunction*%
%TA.AperFunction,SMDPad,CuDef*%
G36*
G01*
X141700000Y-91575000D02*
X141700000Y-92875000D01*
G75*
G02*
X141450000Y-93125000I-250000J0D01*
G01*
X140750000Y-93125000D01*
G75*
G02*
X140500000Y-92875000I0J250000D01*
G01*
X140500000Y-91575000D01*
G75*
G02*
X140750000Y-91325000I250000J0D01*
G01*
X141450000Y-91325000D01*
G75*
G02*
X141700000Y-91575000I0J-250000D01*
G01*
G37*
%TD.AperFunction*%
%TO.P,J5,4,Pin_4*%
%TO.N,GND*%
%TA.AperFunction,SMDPad,CuDef*%
G36*
G01*
X137100000Y-94125000D02*
X137100000Y-95375000D01*
G75*
G02*
X136950000Y-95525000I-150000J0D01*
G01*
X136650000Y-95525000D01*
G75*
G02*
X136500000Y-95375000I0J150000D01*
G01*
X136500000Y-94125000D01*
G75*
G02*
X136650000Y-93975000I150000J0D01*
G01*
X136950000Y-93975000D01*
G75*
G02*
X137100000Y-94125000I0J-150000D01*
G01*
G37*
%TD.AperFunction*%
%TO.P,J5,3,Pin_3*%
%TO.N,USB_DP*%
%TA.AperFunction,SMDPad,CuDef*%
G36*
G01*
X138100000Y-94125000D02*
X138100000Y-95375000D01*
G75*
G02*
X137950000Y-95525000I-150000J0D01*
G01*
X137650000Y-95525000D01*
G75*
G02*
X137500000Y-95375000I0J150000D01*
G01*
X137500000Y-94125000D01*
G75*
G02*
X137650000Y-93975000I150000J0D01*
G01*
X137950000Y-93975000D01*
G75*
G02*
X138100000Y-94125000I0J-150000D01*
G01*
G37*
%TD.AperFunction*%
%TO.P,J5,2,Pin_2*%
%TO.N,USB_DM*%
%TA.AperFunction,SMDPad,CuDef*%
G36*
G01*
X139100000Y-94125000D02*
X139100000Y-95375000D01*
G75*
G02*
X138950000Y-95525000I-150000J0D01*
G01*
X138650000Y-95525000D01*
G75*
G02*
X138500000Y-95375000I0J150000D01*
G01*
X138500000Y-94125000D01*
G75*
G02*
X138650000Y-93975000I150000J0D01*
G01*
X138950000Y-93975000D01*
G75*
G02*
X139100000Y-94125000I0J-150000D01*
G01*
G37*
%TD.AperFunction*%
%TO.P,J5,1,Pin_1*%
%TO.N,+3V3*%
%TA.AperFunction,SMDPad,CuDef*%
G36*
G01*
X140100000Y-94125000D02*
X140100000Y-95375000D01*
G75*
G02*
X139950000Y-95525000I-150000J0D01*
G01*
X139650000Y-95525000D01*
G75*
G02*
X139500000Y-95375000I0J150000D01*
G01*
X139500000Y-94125000D01*
G75*
G02*
X139650000Y-93975000I150000J0D01*
G01*
X139950000Y-93975000D01*
G75*
G02*
X140100000Y-94125000I0J-150000D01*
G01*
G37*
%TD.AperFunction*%
%TD*%
D10*
%TO.P,Y1,1,1*%
%TO.N,Net-(C4-Pad2)*%
X109600000Y-100350000D03*
%TO.P,Y1,2,2*%
%TO.N,Net-(C3-Pad2)*%
X107700000Y-100350000D03*
%TD*%
D11*
%TO.P,J2,1,Pin_1*%
%TO.N,+3V3*%
X104125000Y-92825000D03*
D12*
%TO.P,J2,2,Pin_2*%
%TO.N,SDA*%
X104125000Y-95365000D03*
%TO.P,J2,3,Pin_3*%
%TO.N,SCL*%
X104125000Y-97905000D03*
%TO.P,J2,4,Pin_4*%
%TO.N,GND*%
X104125000Y-100445000D03*
%TD*%
%TO.P,D1,1,K*%
%TO.N,Net-(D1-Pad1)*%
%TA.AperFunction,SMDPad,CuDef*%
G36*
G01*
X127400000Y-92068750D02*
X127400000Y-92581250D01*
G75*
G02*
X127181250Y-92800000I-218750J0D01*
G01*
X126743750Y-92800000D01*
G75*
G02*
X126525000Y-92581250I0J218750D01*
G01*
X126525000Y-92068750D01*
G75*
G02*
X126743750Y-91850000I218750J0D01*
G01*
X127181250Y-91850000D01*
G75*
G02*
X127400000Y-92068750I0J-218750D01*
G01*
G37*
%TD.AperFunction*%
%TO.P,D1,2,A*%
%TO.N,Net-(D1-Pad2)*%
%TA.AperFunction,SMDPad,CuDef*%
G36*
G01*
X125825000Y-92068750D02*
X125825000Y-92581250D01*
G75*
G02*
X125606250Y-92800000I-218750J0D01*
G01*
X125168750Y-92800000D01*
G75*
G02*
X124950000Y-92581250I0J218750D01*
G01*
X124950000Y-92068750D01*
G75*
G02*
X125168750Y-91850000I218750J0D01*
G01*
X125606250Y-91850000D01*
G75*
G02*
X125825000Y-92068750I0J-218750D01*
G01*
G37*
%TD.AperFunction*%
%TD*%
%TO.P,R4,1*%
%TO.N,Vdrive*%
%TA.AperFunction,SMDPad,CuDef*%
G36*
G01*
X112931250Y-101625000D02*
X112418750Y-101625000D01*
G75*
G02*
X112200000Y-101406250I0J218750D01*
G01*
X112200000Y-100968750D01*
G75*
G02*
X112418750Y-100750000I218750J0D01*
G01*
X112931250Y-100750000D01*
G75*
G02*
X113150000Y-100968750I0J-218750D01*
G01*
X113150000Y-101406250D01*
G75*
G02*
X112931250Y-101625000I-218750J0D01*
G01*
G37*
%TD.AperFunction*%
%TO.P,R4,2*%
%TO.N,Net-(IC2-Pad5)*%
%TA.AperFunction,SMDPad,CuDef*%
G36*
G01*
X112931250Y-100050000D02*
X112418750Y-100050000D01*
G75*
G02*
X112200000Y-99831250I0J218750D01*
G01*
X112200000Y-99393750D01*
G75*
G02*
X112418750Y-99175000I218750J0D01*
G01*
X112931250Y-99175000D01*
G75*
G02*
X113150000Y-99393750I0J-218750D01*
G01*
X113150000Y-99831250D01*
G75*
G02*
X112931250Y-100050000I-218750J0D01*
G01*
G37*
%TD.AperFunction*%
%TD*%
%TO.P,R7,1*%
%TO.N,+5V*%
%TA.AperFunction,SMDPad,CuDef*%
G36*
G01*
X131800000Y-92381250D02*
X131800000Y-91868750D01*
G75*
G02*
X132018750Y-91650000I218750J0D01*
G01*
X132456250Y-91650000D01*
G75*
G02*
X132675000Y-91868750I0J-218750D01*
G01*
X132675000Y-92381250D01*
G75*
G02*
X132456250Y-92600000I-218750J0D01*
G01*
X132018750Y-92600000D01*
G75*
G02*
X131800000Y-92381250I0J218750D01*
G01*
G37*
%TD.AperFunction*%
%TO.P,R7,2*%
%TO.N,Net-(D2-Pad2)*%
%TA.AperFunction,SMDPad,CuDef*%
G36*
G01*
X133375000Y-92381250D02*
X133375000Y-91868750D01*
G75*
G02*
X133593750Y-91650000I218750J0D01*
G01*
X134031250Y-91650000D01*
G75*
G02*
X134250000Y-91868750I0J-218750D01*
G01*
X134250000Y-92381250D01*
G75*
G02*
X134031250Y-92600000I-218750J0D01*
G01*
X133593750Y-92600000D01*
G75*
G02*
X133375000Y-92381250I0J218750D01*
G01*
G37*
%TD.AperFunction*%
%TD*%
D13*
%TO.P,J4,1,Pin_1*%
%TO.N,GND*%
X116950000Y-92700000D03*
D14*
%TO.P,J4,2,Pin_2*%
%TO.N,Net-(C10-Pad1)*%
X118950000Y-92700000D03*
%TD*%
%TO.P,C10,1*%
%TO.N,Net-(C10-Pad1)*%
%TA.AperFunction,SMDPad,CuDef*%
G36*
G01*
X120772500Y-93245000D02*
X120427500Y-93245000D01*
G75*
G02*
X120280000Y-93097500I0J147500D01*
G01*
X120280000Y-92802500D01*
G75*
G02*
X120427500Y-92655000I147500J0D01*
G01*
X120772500Y-92655000D01*
G75*
G02*
X120920000Y-92802500I0J-147500D01*
G01*
X120920000Y-93097500D01*
G75*
G02*
X120772500Y-93245000I-147500J0D01*
G01*
G37*
%TD.AperFunction*%
%TO.P,C10,2*%
%TO.N,GND*%
%TA.AperFunction,SMDPad,CuDef*%
G36*
G01*
X120772500Y-92275000D02*
X120427500Y-92275000D01*
G75*
G02*
X120280000Y-92127500I0J147500D01*
G01*
X120280000Y-91832500D01*
G75*
G02*
X120427500Y-91685000I147500J0D01*
G01*
X120772500Y-91685000D01*
G75*
G02*
X120920000Y-91832500I0J-147500D01*
G01*
X120920000Y-92127500D01*
G75*
G02*
X120772500Y-92275000I-147500J0D01*
G01*
G37*
%TD.AperFunction*%
%TD*%
D15*
%TO.P,Q1,1*%
%TO.N,GND*%
X126205000Y-99300000D03*
%TO.P,Q1,2*%
X126205000Y-99950000D03*
%TO.P,Q1,3*%
X126205000Y-100600000D03*
%TO.P,Q1,4*%
%TO.N,Net-(IC2-Pad1)*%
X126205000Y-101250000D03*
%TO.P,Q1,5*%
%TO.N,Net-(IC2-Pad3)*%
X120445000Y-101250000D03*
%TO.P,Q1,6*%
%TO.N,GND*%
X120445000Y-100600000D03*
%TO.P,Q1,7*%
X120445000Y-99950000D03*
%TO.P,Q1,8*%
X120445000Y-99300000D03*
%TD*%
%TO.P,C5,1*%
%TO.N,+5V*%
%TA.AperFunction,SMDPad,CuDef*%
G36*
G01*
X129437500Y-98550000D02*
X128962500Y-98550000D01*
G75*
G02*
X128725000Y-98312500I0J237500D01*
G01*
X128725000Y-97737500D01*
G75*
G02*
X128962500Y-97500000I237500J0D01*
G01*
X129437500Y-97500000D01*
G75*
G02*
X129675000Y-97737500I0J-237500D01*
G01*
X129675000Y-98312500D01*
G75*
G02*
X129437500Y-98550000I-237500J0D01*
G01*
G37*
%TD.AperFunction*%
%TO.P,C5,2*%
%TO.N,GND*%
%TA.AperFunction,SMDPad,CuDef*%
G36*
G01*
X129437500Y-96800000D02*
X128962500Y-96800000D01*
G75*
G02*
X128725000Y-96562500I0J237500D01*
G01*
X128725000Y-95987500D01*
G75*
G02*
X128962500Y-95750000I237500J0D01*
G01*
X129437500Y-95750000D01*
G75*
G02*
X129675000Y-95987500I0J-237500D01*
G01*
X129675000Y-96562500D01*
G75*
G02*
X129437500Y-96800000I-237500J0D01*
G01*
G37*
%TD.AperFunction*%
%TD*%
%TO.P,D2,1,K*%
%TO.N,Net-(D2-Pad1)*%
%TA.AperFunction,SMDPad,CuDef*%
G36*
G01*
X124225000Y-91868750D02*
X124225000Y-92381250D01*
G75*
G02*
X124006250Y-92600000I-218750J0D01*
G01*
X123568750Y-92600000D01*
G75*
G02*
X123350000Y-92381250I0J218750D01*
G01*
X123350000Y-91868750D01*
G75*
G02*
X123568750Y-91650000I218750J0D01*
G01*
X124006250Y-91650000D01*
G75*
G02*
X124225000Y-91868750I0J-218750D01*
G01*
G37*
%TD.AperFunction*%
%TO.P,D2,2,A*%
%TO.N,Net-(D2-Pad2)*%
%TA.AperFunction,SMDPad,CuDef*%
G36*
G01*
X122650000Y-91868750D02*
X122650000Y-92381250D01*
G75*
G02*
X122431250Y-92600000I-218750J0D01*
G01*
X121993750Y-92600000D01*
G75*
G02*
X121775000Y-92381250I0J218750D01*
G01*
X121775000Y-91868750D01*
G75*
G02*
X121993750Y-91650000I218750J0D01*
G01*
X122431250Y-91650000D01*
G75*
G02*
X122650000Y-91868750I0J-218750D01*
G01*
G37*
%TD.AperFunction*%
%TD*%
%TO.P,R6,1*%
%TO.N,+5V*%
%TA.AperFunction,SMDPad,CuDef*%
G36*
G01*
X131150000Y-91868750D02*
X131150000Y-92381250D01*
G75*
G02*
X130931250Y-92600000I-218750J0D01*
G01*
X130493750Y-92600000D01*
G75*
G02*
X130275000Y-92381250I0J218750D01*
G01*
X130275000Y-91868750D01*
G75*
G02*
X130493750Y-91650000I218750J0D01*
G01*
X130931250Y-91650000D01*
G75*
G02*
X131150000Y-91868750I0J-218750D01*
G01*
G37*
%TD.AperFunction*%
%TO.P,R6,2*%
%TO.N,Net-(D1-Pad2)*%
%TA.AperFunction,SMDPad,CuDef*%
G36*
G01*
X129575000Y-91868750D02*
X129575000Y-92381250D01*
G75*
G02*
X129356250Y-92600000I-218750J0D01*
G01*
X128918750Y-92600000D01*
G75*
G02*
X128700000Y-92381250I0J218750D01*
G01*
X128700000Y-91868750D01*
G75*
G02*
X128918750Y-91650000I218750J0D01*
G01*
X129356250Y-91650000D01*
G75*
G02*
X129575000Y-91868750I0J-218750D01*
G01*
G37*
%TD.AperFunction*%
%TD*%
D16*
%TO.P,IC2,1,OD*%
%TO.N,Net-(IC2-Pad1)*%
X117250000Y-95000000D03*
%TO.P,IC2,2,CS*%
%TO.N,Net-(IC2-Pad2)*%
X117250000Y-95950000D03*
%TO.P,IC2,3,OC*%
%TO.N,Net-(IC2-Pad3)*%
X117250000Y-96900000D03*
%TO.P,IC2,4,TD*%
%TO.N,Net-(IC2-Pad4)*%
X114650000Y-96900000D03*
%TO.P,IC2,5,VCC*%
%TO.N,Net-(IC2-Pad5)*%
X114650000Y-95950000D03*
%TO.P,IC2,6,GND*%
%TO.N,GND*%
X114650000Y-95000000D03*
%TD*%
%TO.P,R3,1*%
%TO.N,Net-(IC1-Pad2)*%
%TA.AperFunction,SMDPad,CuDef*%
G36*
G01*
X119718750Y-95800000D02*
X120231250Y-95800000D01*
G75*
G02*
X120450000Y-96018750I0J-218750D01*
G01*
X120450000Y-96456250D01*
G75*
G02*
X120231250Y-96675000I-218750J0D01*
G01*
X119718750Y-96675000D01*
G75*
G02*
X119500000Y-96456250I0J218750D01*
G01*
X119500000Y-96018750D01*
G75*
G02*
X119718750Y-95800000I218750J0D01*
G01*
G37*
%TD.AperFunction*%
%TO.P,R3,2*%
%TO.N,GND*%
%TA.AperFunction,SMDPad,CuDef*%
G36*
G01*
X119718750Y-97375000D02*
X120231250Y-97375000D01*
G75*
G02*
X120450000Y-97593750I0J-218750D01*
G01*
X120450000Y-98031250D01*
G75*
G02*
X120231250Y-98250000I-218750J0D01*
G01*
X119718750Y-98250000D01*
G75*
G02*
X119500000Y-98031250I0J218750D01*
G01*
X119500000Y-97593750D01*
G75*
G02*
X119718750Y-97375000I218750J0D01*
G01*
G37*
%TD.AperFunction*%
%TD*%
D17*
%TO.P,IC1,1,TEMP*%
%TO.N,GND*%
X121725000Y-97630000D03*
%TO.P,IC1,2,PROG*%
%TO.N,Net-(IC1-Pad2)*%
X121725000Y-96360000D03*
%TO.P,IC1,3,GND*%
%TO.N,GND*%
X121725000Y-95090000D03*
%TO.P,IC1,4,VCC*%
%TO.N,+5V*%
X121725000Y-93820000D03*
%TO.P,IC1,5,BAT*%
%TO.N,Net-(C10-Pad1)*%
X127125000Y-93820000D03*
%TO.P,IC1,6,STDBY*%
%TO.N,Net-(D2-Pad1)*%
X127125000Y-95090000D03*
%TO.P,IC1,7,CHRG*%
%TO.N,Net-(D1-Pad1)*%
X127125000Y-96360000D03*
%TO.P,IC1,8,CE*%
%TO.N,+5V*%
X127125000Y-97630000D03*
%TD*%
%TO.P,R5,1*%
%TO.N,Net-(IC2-Pad2)*%
%TA.AperFunction,SMDPad,CuDef*%
G36*
G01*
X117050000Y-98168750D02*
X117050000Y-98681250D01*
G75*
G02*
X116831250Y-98900000I-218750J0D01*
G01*
X116393750Y-98900000D01*
G75*
G02*
X116175000Y-98681250I0J218750D01*
G01*
X116175000Y-98168750D01*
G75*
G02*
X116393750Y-97950000I218750J0D01*
G01*
X116831250Y-97950000D01*
G75*
G02*
X117050000Y-98168750I0J-218750D01*
G01*
G37*
%TD.AperFunction*%
%TO.P,R5,2*%
%TO.N,GND*%
%TA.AperFunction,SMDPad,CuDef*%
G36*
G01*
X115475000Y-98168750D02*
X115475000Y-98681250D01*
G75*
G02*
X115256250Y-98900000I-218750J0D01*
G01*
X114818750Y-98900000D01*
G75*
G02*
X114600000Y-98681250I0J218750D01*
G01*
X114600000Y-98168750D01*
G75*
G02*
X114818750Y-97950000I218750J0D01*
G01*
X115256250Y-97950000D01*
G75*
G02*
X115475000Y-98168750I0J-218750D01*
G01*
G37*
%TD.AperFunction*%
%TD*%
%TO.P,C8,1*%
%TO.N,Vdrive*%
%TA.AperFunction,SMDPad,CuDef*%
G36*
G01*
X114462500Y-101725000D02*
X113987500Y-101725000D01*
G75*
G02*
X113750000Y-101487500I0J237500D01*
G01*
X113750000Y-100912500D01*
G75*
G02*
X113987500Y-100675000I237500J0D01*
G01*
X114462500Y-100675000D01*
G75*
G02*
X114700000Y-100912500I0J-237500D01*
G01*
X114700000Y-101487500D01*
G75*
G02*
X114462500Y-101725000I-237500J0D01*
G01*
G37*
%TD.AperFunction*%
%TO.P,C8,2*%
%TO.N,GND*%
%TA.AperFunction,SMDPad,CuDef*%
G36*
G01*
X114462500Y-99975000D02*
X113987500Y-99975000D01*
G75*
G02*
X113750000Y-99737500I0J237500D01*
G01*
X113750000Y-99162500D01*
G75*
G02*
X113987500Y-98925000I237500J0D01*
G01*
X114462500Y-98925000D01*
G75*
G02*
X114700000Y-99162500I0J-237500D01*
G01*
X114700000Y-99737500D01*
G75*
G02*
X114462500Y-99975000I-237500J0D01*
G01*
G37*
%TD.AperFunction*%
%TD*%
D18*
%TO.N,CAP_Touch1*%
X142000000Y-99325000D03*
%TO.N,CAP_Touch*%
X141875000Y-94575000D03*
D19*
%TO.N,GND*%
X120600000Y-91925000D03*
X133650000Y-94800000D03*
X122450000Y-100600000D03*
X111775000Y-92275000D03*
X110850000Y-96050000D03*
X121975000Y-99775000D03*
X127850000Y-99435000D03*
%TO.N,+3V3*%
X126562500Y-98462500D03*
%TO.N,GND*%
X116000000Y-94625000D03*
X119975000Y-99875000D03*
%TO.N,USB_DM*%
X132750000Y-94425000D03*
%TO.N,USB_DP*%
X133550010Y-93749990D03*
%TO.N,GND*%
X115825000Y-99775000D03*
X114225000Y-99450000D03*
X122150000Y-97630000D03*
X114225000Y-98625000D03*
X134075000Y-100975000D03*
X109975000Y-96025000D03*
X129450000Y-93800000D03*
X110992500Y-100942500D03*
X116425000Y-92250000D03*
%TO.N,SDA*%
X112887500Y-94062500D03*
X111777500Y-95425000D03*
%TO.N,SCL*%
X109754278Y-94875000D03*
X109360000Y-92600000D03*
%TO.N,+5V*%
X131900000Y-95175000D03*
%TO.N,Vdrive*%
X116775000Y-100925000D03*
%TD*%
D20*
%TO.N,Net-(D2-Pad1)*%
X123787500Y-92125000D02*
X124687510Y-93025010D01*
X124687510Y-93025010D02*
X127810012Y-93025010D01*
X127810012Y-93025010D02*
X128100001Y-93314999D01*
X128100001Y-93314999D02*
X128100001Y-94539999D01*
X128100001Y-94539999D02*
X127550000Y-95090000D01*
X127550000Y-95090000D02*
X127125000Y-95090000D01*
%TO.N,Net-(D1-Pad1)*%
X126962500Y-92325000D02*
X127534280Y-92325000D01*
X127534280Y-92325000D02*
X128600010Y-93390730D01*
X128600010Y-93390730D02*
X128600010Y-95094992D01*
X128600010Y-95094992D02*
X127335002Y-96360000D01*
X127335002Y-96360000D02*
X127125000Y-96360000D01*
D21*
%TO.N,GND*%
X122450000Y-100600000D02*
X126205000Y-100600000D01*
%TO.N,+3V3*%
X128675000Y-99200000D02*
X127825000Y-98350000D01*
X129281614Y-99200000D02*
X128675000Y-99200000D01*
X127825000Y-98350000D02*
X126625000Y-98350000D01*
X132175000Y-96400000D02*
X129450000Y-99125000D01*
X129450000Y-99125000D02*
X129375000Y-99200000D01*
X129375000Y-99200000D02*
X129281614Y-99200000D01*
X132772990Y-95802010D02*
X132175000Y-96400000D01*
X134352010Y-95802010D02*
X132772990Y-95802010D01*
X139522990Y-95802010D02*
X134352010Y-95802010D01*
X139800000Y-95525000D02*
X139522990Y-95802010D01*
X139800000Y-94750000D02*
X139800000Y-95525000D01*
%TO.N,GND*%
X119975000Y-99875000D02*
X119975000Y-100130000D01*
D20*
%TO.N,USB_DM*%
X133802011Y-93224989D02*
X133200011Y-93224989D01*
X132750000Y-94425000D02*
X132750000Y-93675000D01*
X132750000Y-93675000D02*
X133200011Y-93224989D01*
D22*
%TO.N,+5V*%
X130712500Y-92125000D02*
X130712500Y-93987500D01*
X130712500Y-93987500D02*
X131900000Y-95175000D01*
D20*
%TO.N,USB_DM*%
X133927032Y-93350010D02*
X133802011Y-93224989D01*
X138175010Y-93350010D02*
X133927032Y-93350010D01*
X138250000Y-93425000D02*
X138175010Y-93350010D01*
D22*
%TO.N,+5V*%
X132237500Y-92125000D02*
X130712500Y-92125000D01*
D20*
%TO.N,Net-(D2-Pad2)*%
X131437480Y-91324980D02*
X130975020Y-91324980D01*
X130975020Y-91324980D02*
X123175020Y-91324980D01*
X133812500Y-92125000D02*
X133012480Y-91324980D01*
X133012480Y-91324980D02*
X130975020Y-91324980D01*
%TO.N,USB_DM*%
X138800000Y-93975000D02*
X138250000Y-93425000D01*
X138800000Y-94750000D02*
X138800000Y-93975000D01*
%TO.N,USB_DP*%
X137574990Y-93749990D02*
X133550010Y-93749990D01*
X137800000Y-93975000D02*
X137574990Y-93749990D01*
X137800000Y-94750000D02*
X137800000Y-93975000D01*
D21*
%TO.N,GND*%
X121725000Y-95090000D02*
X118702176Y-95090000D01*
X121725000Y-97630000D02*
X120157500Y-97630000D01*
D22*
X114225000Y-99237500D02*
X115037500Y-98425000D01*
D21*
X118702176Y-95090000D02*
X117887176Y-94275000D01*
X122752001Y-97027999D02*
X122150000Y-97630000D01*
D22*
X114225000Y-99450000D02*
X114225000Y-99237500D01*
D21*
X126205000Y-99470000D02*
X126205000Y-99300000D01*
X120445000Y-100600000D02*
X122450000Y-100600000D01*
X117350000Y-92250000D02*
X117350000Y-93785000D01*
X122150000Y-97630000D02*
X121725000Y-97630000D01*
X117887176Y-94275000D02*
X117840000Y-94275000D01*
X119975000Y-97812500D02*
X119975000Y-99875000D01*
X117350000Y-93785000D02*
X117840000Y-94275000D01*
D22*
X118780700Y-95090000D02*
X116950000Y-93259300D01*
X121725000Y-95090000D02*
X118780700Y-95090000D01*
D21*
X122150000Y-95090000D02*
X122752001Y-95692001D01*
X126205000Y-100600000D02*
X126205000Y-99470000D01*
X122752001Y-95692001D02*
X122752001Y-97027999D01*
X119975000Y-100130000D02*
X120445000Y-100600000D01*
X121725000Y-95090000D02*
X122150000Y-95090000D01*
X120157500Y-97630000D02*
X119975000Y-97812500D01*
D22*
X116950000Y-93259300D02*
X116950000Y-92700000D01*
D20*
%TO.N,SDA*%
X112887500Y-94315000D02*
X112887500Y-94062500D01*
X111777500Y-95425000D02*
X112887500Y-94315000D01*
D21*
%TO.N,SCL*%
X109360000Y-92600000D02*
X109360000Y-94480722D01*
X109360000Y-94480722D02*
X109754278Y-94875000D01*
D22*
%TO.N,+5V*%
X129200000Y-98025000D02*
X129025000Y-98025000D01*
X128705000Y-97630000D02*
X127125000Y-97630000D01*
X126410750Y-97630000D02*
X127125000Y-97630000D01*
D20*
X129445000Y-97630000D02*
X128705000Y-97630000D01*
D21*
X127130000Y-97635000D02*
X127125000Y-97630000D01*
D22*
X121725000Y-93820000D02*
X122600750Y-93820000D01*
X131900000Y-95325000D02*
X129200000Y-98025000D01*
D21*
X129200000Y-97635000D02*
X129440000Y-97635000D01*
D20*
X131900000Y-95175000D02*
X129445000Y-97630000D01*
D21*
X129440000Y-97635000D02*
X131900000Y-95175000D01*
D22*
X129025000Y-98025000D02*
X128635000Y-97635000D01*
D21*
X128635000Y-97635000D02*
X127130000Y-97635000D01*
D22*
X122600750Y-93820000D02*
X126410750Y-97630000D01*
D21*
X129200000Y-97635000D02*
X128635000Y-97635000D01*
D22*
X131900000Y-95175000D02*
X131900000Y-95325000D01*
%TO.N,Net-(C10-Pad1)*%
X123520002Y-93820000D02*
X122700012Y-93000010D01*
X122700012Y-93000010D02*
X120100010Y-93000010D01*
X119200000Y-92950000D02*
X118950000Y-92700000D01*
X127125000Y-93820000D02*
X123520002Y-93820000D01*
X120600000Y-92950000D02*
X119200000Y-92950000D01*
D21*
X125355000Y-93820000D02*
X127125000Y-93820000D01*
D20*
%TO.N,Net-(D2-Pad1)*%
X124550010Y-93025010D02*
X123800000Y-92275000D01*
X127810012Y-93025010D02*
X124550010Y-93025010D01*
D21*
%TO.N,Net-(IC1-Pad2)*%
X121725000Y-96360000D02*
X120097500Y-96360000D01*
X120097500Y-96360000D02*
X119975000Y-96237500D01*
%TO.N,Net-(IC2-Pad5)*%
X114050000Y-95950000D02*
X112850000Y-97150000D01*
D22*
X114650000Y-95950000D02*
X114050000Y-95950000D01*
D21*
X112850000Y-97650000D02*
X112850000Y-99675000D01*
D22*
X114050000Y-95950000D02*
X112675000Y-97325000D01*
X112675000Y-97325000D02*
X112675000Y-99612500D01*
D21*
X112850000Y-97500000D02*
X112850000Y-97650000D01*
X112850000Y-97150000D02*
X112850000Y-97650000D01*
X112850000Y-99675000D02*
X112950000Y-99775000D01*
%TO.N,Net-(IC2-Pad2)*%
X116650000Y-95950000D02*
X116372990Y-96227010D01*
X117250000Y-95950000D02*
X116650000Y-95950000D01*
X116372990Y-98710490D02*
X116437500Y-98775000D01*
X116372990Y-96227010D02*
X116372990Y-98185490D01*
X116372990Y-98185490D02*
X116612500Y-98425000D01*
D22*
%TO.N,Net-(IC2-Pad3)*%
X119411000Y-101250000D02*
X118755500Y-100594500D01*
X117250000Y-96900000D02*
X117850000Y-96900000D01*
X117850000Y-96900000D02*
X118575000Y-97625000D01*
X117250000Y-96900000D02*
X117775000Y-96900000D01*
X120445000Y-101250000D02*
X119411000Y-101250000D01*
D21*
X117775000Y-96900000D02*
X117850000Y-96900000D01*
X118575000Y-97625000D02*
X118200000Y-97250000D01*
D22*
X118575000Y-97625000D02*
X118755500Y-97805500D01*
X118755500Y-97805500D02*
X118755500Y-100594500D01*
D21*
%TO.N,Net-(IC2-Pad1)*%
X119082720Y-102075000D02*
X115897990Y-98890270D01*
X123650000Y-102075000D02*
X119082720Y-102075000D01*
X124475000Y-101250000D02*
X123650000Y-102075000D01*
X115897990Y-95752010D02*
X116650000Y-95000000D01*
X116650000Y-95000000D02*
X117250000Y-95000000D01*
X126205000Y-101250000D02*
X124475000Y-101250000D01*
X115897990Y-98890270D02*
X115897990Y-95752010D01*
D22*
%TO.N,Vdrive*%
X114225000Y-101200000D02*
X116325000Y-101200000D01*
D21*
X114225000Y-101200000D02*
X115050000Y-101200000D01*
D22*
X112675000Y-101187500D02*
X114212500Y-101187500D01*
X114212500Y-101187500D02*
X114225000Y-101200000D01*
D20*
%TO.N,Net-(D1-Pad2)*%
X128637490Y-91624990D02*
X126087510Y-91624990D01*
X129137500Y-92125000D02*
X128637490Y-91624990D01*
X126087510Y-91624990D02*
X125387500Y-92325000D01*
%TO.N,Net-(D2-Pad2)*%
X123175020Y-91324980D02*
X122225000Y-92275000D01*
%TD*%
%TA.AperFunction,Conductor*%
%TO.N,GND*%
G36*
X121994311Y-91220502D02*
G01*
X122040804Y-91274158D01*
X122050908Y-91344432D01*
X122021414Y-91409012D01*
X121955038Y-91449153D01*
X121804365Y-91484591D01*
X121677266Y-91580572D01*
X121593422Y-91715983D01*
X121593422Y-91715984D01*
X121571536Y-91833065D01*
X121571536Y-92408834D01*
X121604622Y-92549510D01*
X121024396Y-92549510D01*
X120907854Y-92471639D01*
X120804506Y-92451082D01*
X120395494Y-92451082D01*
X120292145Y-92471639D01*
X120250449Y-92499500D01*
X119821261Y-92499500D01*
X119755450Y-92357073D01*
X119704444Y-92246685D01*
X119589501Y-92095254D01*
X119444723Y-91972038D01*
X119388770Y-91942287D01*
X119276865Y-91882785D01*
X119215826Y-91865743D01*
X119093753Y-91831660D01*
X119060573Y-91829805D01*
X118903937Y-91821046D01*
X118716270Y-91851442D01*
X118553256Y-91915984D01*
X118539506Y-91921428D01*
X118381895Y-92027738D01*
X118381893Y-92027740D01*
X118250792Y-92165409D01*
X118250791Y-92165411D01*
X118250789Y-92165413D01*
X118201569Y-92246685D01*
X118152304Y-92328031D01*
X118091038Y-92507998D01*
X118069846Y-92696928D01*
X118089719Y-92886002D01*
X118149727Y-93066393D01*
X118233512Y-93206943D01*
X118247074Y-93229693D01*
X118377215Y-93368279D01*
X118534080Y-93475687D01*
X118710350Y-93546905D01*
X118897801Y-93578610D01*
X119070770Y-93570150D01*
X119087689Y-93569323D01*
X119209996Y-93536092D01*
X119271150Y-93519477D01*
X119355389Y-93475438D01*
X119439630Y-93431398D01*
X119458040Y-93415949D01*
X119476452Y-93400500D01*
X119892681Y-93400500D01*
X119943553Y-93429871D01*
X120060601Y-93450510D01*
X120771082Y-93450510D01*
X120771082Y-94145002D01*
X120786603Y-94223036D01*
X120830808Y-94289192D01*
X120896964Y-94333397D01*
X120974998Y-94348918D01*
X122492566Y-94348918D01*
X126078300Y-97934654D01*
X126115817Y-97979365D01*
X126116707Y-97980426D01*
X126168467Y-98010309D01*
X126184287Y-98021387D01*
X126186604Y-98033036D01*
X126223355Y-98088038D01*
X126122368Y-98208390D01*
X126062000Y-98374248D01*
X126062000Y-98550752D01*
X126122368Y-98716610D01*
X126235822Y-98851820D01*
X126333892Y-98908441D01*
X126388678Y-98940072D01*
X126562500Y-98970721D01*
X126736322Y-98940072D01*
X126889178Y-98851820D01*
X127002632Y-98716610D01*
X127035449Y-98677500D01*
X127689346Y-98677500D01*
X128420616Y-99408771D01*
X128438886Y-99436114D01*
X128547216Y-99508498D01*
X128642745Y-99527500D01*
X128642749Y-99527500D01*
X128675000Y-99533915D01*
X128707251Y-99527500D01*
X129342749Y-99527500D01*
X129375000Y-99533915D01*
X129407251Y-99527500D01*
X129407255Y-99527500D01*
X129502784Y-99508498D01*
X129611114Y-99436114D01*
X129629386Y-99408768D01*
X129718717Y-99319437D01*
X141291610Y-99319437D01*
X141321290Y-99527979D01*
X141410976Y-99718573D01*
X141502024Y-99818632D01*
X141552742Y-99874370D01*
X141734051Y-99981596D01*
X141938874Y-100030770D01*
X141938878Y-100030770D01*
X142149099Y-100017545D01*
X142346145Y-99943087D01*
X142434734Y-99874370D01*
X142512586Y-99813982D01*
X142633706Y-99641645D01*
X142698798Y-99441312D01*
X142700539Y-99219679D01*
X142638602Y-99018348D01*
X142520203Y-98844129D01*
X142520201Y-98844127D01*
X142355814Y-98712429D01*
X142355813Y-98712429D01*
X142355811Y-98712427D01*
X142159960Y-98634884D01*
X141949967Y-98618357D01*
X141744397Y-98664307D01*
X141561426Y-98768672D01*
X141417232Y-98922224D01*
X141324562Y-99111387D01*
X141291902Y-99317592D01*
X141291610Y-99319437D01*
X129718717Y-99319437D01*
X130373847Y-98664307D01*
X132429383Y-96608773D01*
X132429387Y-96608767D01*
X132908645Y-96129510D01*
X139490739Y-96129510D01*
X139522990Y-96135925D01*
X139555241Y-96129510D01*
X139555245Y-96129510D01*
X139650774Y-96110508D01*
X139759104Y-96038124D01*
X139777376Y-96010778D01*
X140008768Y-95779386D01*
X140036114Y-95761114D01*
X140059494Y-95726124D01*
X140086299Y-95708213D01*
X140086300Y-95708213D01*
X140204340Y-95629340D01*
X140283213Y-95511300D01*
X140303918Y-95407208D01*
X140303918Y-94569437D01*
X141166610Y-94569437D01*
X141196290Y-94777979D01*
X141285976Y-94968573D01*
X141393508Y-95086748D01*
X141427742Y-95124370D01*
X141609051Y-95231596D01*
X141813874Y-95280770D01*
X141813878Y-95280770D01*
X142024099Y-95267545D01*
X142221145Y-95193087D01*
X142288437Y-95140890D01*
X142387586Y-95063982D01*
X142390350Y-95060050D01*
X142508706Y-94891645D01*
X142573798Y-94691312D01*
X142575539Y-94469680D01*
X142533614Y-94333397D01*
X142513602Y-94268348D01*
X142395203Y-94094129D01*
X142395201Y-94094127D01*
X142230814Y-93962429D01*
X142230813Y-93962429D01*
X142230811Y-93962427D01*
X142034960Y-93884884D01*
X141824967Y-93868357D01*
X141619397Y-93914307D01*
X141436426Y-94018672D01*
X141436425Y-94018673D01*
X141385320Y-94073095D01*
X141292232Y-94172224D01*
X141199562Y-94361387D01*
X141168975Y-94554504D01*
X141166610Y-94569437D01*
X140303918Y-94569437D01*
X140303918Y-94092792D01*
X140283213Y-93988700D01*
X140204340Y-93870660D01*
X140086300Y-93791787D01*
X139982208Y-93771082D01*
X139617792Y-93771082D01*
X139513700Y-93791787D01*
X139425070Y-93851009D01*
X139395661Y-93870659D01*
X139300000Y-94013822D01*
X139204339Y-93870659D01*
X139086300Y-93791787D01*
X139072867Y-93789115D01*
X138991214Y-93772873D01*
X138976298Y-93754155D01*
X138961757Y-93747141D01*
X138422848Y-93208233D01*
X138403046Y-93188431D01*
X138396163Y-93174097D01*
X138396163Y-93174096D01*
X138371539Y-93154405D01*
X138358961Y-93144346D01*
X138347858Y-93133243D01*
X138334869Y-93125079D01*
X138316433Y-93110336D01*
X138297999Y-93095594D01*
X138297998Y-93095594D01*
X138297997Y-93095593D01*
X138282200Y-93091975D01*
X138268410Y-93083307D01*
X138220902Y-93077937D01*
X138205941Y-93074510D01*
X138190593Y-93074510D01*
X138143511Y-93069188D01*
X138128271Y-93074510D01*
X136273291Y-93074510D01*
X136303464Y-92913087D01*
X136303464Y-91545618D01*
X136222293Y-91200500D01*
X140224236Y-91200500D01*
X140292357Y-91220502D01*
X140338850Y-91274158D01*
X140348954Y-91344432D01*
X140331362Y-91392832D01*
X140320056Y-91411091D01*
X140296536Y-91536915D01*
X140296536Y-92904382D01*
X140337432Y-93078260D01*
X140440575Y-93214843D01*
X140586091Y-93304944D01*
X140649003Y-93316704D01*
X140711914Y-93328464D01*
X141479382Y-93328464D01*
X141653260Y-93287568D01*
X141789843Y-93184425D01*
X141879944Y-93038909D01*
X141895045Y-92958124D01*
X141903464Y-92913086D01*
X141903464Y-91545619D01*
X141890519Y-91490581D01*
X141822293Y-91200500D01*
X147224501Y-91200500D01*
X147224500Y-102299500D01*
X124192845Y-102299500D01*
X124124724Y-102279498D01*
X124078231Y-102225842D01*
X124068127Y-102155568D01*
X124103750Y-102084404D01*
X124259691Y-101928464D01*
X124610655Y-101577500D01*
X125255827Y-101577500D01*
X125346965Y-101638397D01*
X125424998Y-101653918D01*
X126985002Y-101653918D01*
X127063036Y-101638397D01*
X127129192Y-101594192D01*
X127173397Y-101528036D01*
X127188918Y-101450002D01*
X127188918Y-101049998D01*
X127173397Y-100971964D01*
X127129192Y-100905808D01*
X127063036Y-100861603D01*
X126985002Y-100846082D01*
X125424998Y-100846082D01*
X125346965Y-100861603D01*
X125255827Y-100922500D01*
X124507250Y-100922500D01*
X124474999Y-100916085D01*
X124442748Y-100922500D01*
X124442745Y-100922500D01*
X124347216Y-100941502D01*
X124238886Y-101013886D01*
X124220616Y-101041229D01*
X123514346Y-101747500D01*
X121502485Y-101747500D01*
X121434364Y-101727498D01*
X121387871Y-101673842D01*
X121377767Y-101603568D01*
X121397720Y-101551498D01*
X121413397Y-101528036D01*
X121428918Y-101450002D01*
X121428918Y-101049998D01*
X121413397Y-100971964D01*
X121369192Y-100905808D01*
X121303036Y-100861603D01*
X121225002Y-100846082D01*
X120646392Y-100846082D01*
X120601457Y-100820139D01*
X120484409Y-100799500D01*
X119597603Y-100799500D01*
X119206000Y-100407898D01*
X119206000Y-97825156D01*
X119211208Y-97765631D01*
X119195742Y-97707911D01*
X119185361Y-97649044D01*
X119185361Y-97649043D01*
X119175297Y-97631612D01*
X119170089Y-97612175D01*
X119135814Y-97563225D01*
X119105926Y-97511457D01*
X119060142Y-97473040D01*
X118921423Y-97334321D01*
X118921418Y-97334314D01*
X118182459Y-96595357D01*
X118155856Y-96563652D01*
X118144044Y-96549574D01*
X118092272Y-96519684D01*
X117956950Y-96424931D01*
X118038397Y-96303037D01*
X118053918Y-96225002D01*
X118053918Y-95983067D01*
X119296536Y-95983067D01*
X119296536Y-96483835D01*
X119334591Y-96645635D01*
X119430572Y-96772734D01*
X119565983Y-96856578D01*
X119605011Y-96863873D01*
X119683065Y-96878464D01*
X120258835Y-96878464D01*
X120420635Y-96840409D01*
X120547734Y-96744428D01*
X120582983Y-96687500D01*
X120736132Y-96687500D01*
X120830808Y-96829192D01*
X120896964Y-96873397D01*
X120974998Y-96888918D01*
X122475002Y-96888918D01*
X122553036Y-96873397D01*
X122619192Y-96829192D01*
X122663397Y-96763036D01*
X122678918Y-96685002D01*
X122678918Y-96034998D01*
X122663397Y-95956964D01*
X122619192Y-95890808D01*
X122553036Y-95846603D01*
X122475002Y-95831082D01*
X120974998Y-95831082D01*
X120896964Y-95846603D01*
X120809969Y-95904732D01*
X120807946Y-95901705D01*
X120788741Y-95917753D01*
X120718297Y-95926595D01*
X120654255Y-95895949D01*
X120615809Y-95831066D01*
X120615409Y-95829365D01*
X120519428Y-95702266D01*
X120482030Y-95679110D01*
X120384017Y-95618422D01*
X120344989Y-95611127D01*
X120266935Y-95596536D01*
X119691165Y-95596536D01*
X119529365Y-95634591D01*
X119402266Y-95730572D01*
X119318422Y-95865983D01*
X119296536Y-95983067D01*
X118053918Y-95983067D01*
X118053918Y-95674998D01*
X118038397Y-95596964D01*
X117956903Y-95475000D01*
X118038397Y-95353036D01*
X118053918Y-95275002D01*
X118053918Y-94724998D01*
X118038397Y-94646964D01*
X117994192Y-94580808D01*
X117928036Y-94536603D01*
X117850002Y-94521082D01*
X116649998Y-94521082D01*
X116571964Y-94536603D01*
X116505808Y-94580808D01*
X116461604Y-94646963D01*
X116442097Y-94745035D01*
X116413886Y-94763885D01*
X116411114Y-94768034D01*
X116395616Y-94791229D01*
X115689220Y-95497626D01*
X115661877Y-95515896D01*
X115648838Y-95535411D01*
X115643608Y-95543238D01*
X115643604Y-95543242D01*
X115523051Y-95723662D01*
X115394193Y-95530808D01*
X115328036Y-95486603D01*
X115250002Y-95471082D01*
X114049998Y-95471082D01*
X113971965Y-95486603D01*
X113971963Y-95486604D01*
X113971964Y-95486604D01*
X113931897Y-95513376D01*
X113917606Y-95515896D01*
X113893542Y-95520139D01*
X113876112Y-95530202D01*
X113856675Y-95535410D01*
X113807721Y-95569688D01*
X113755957Y-95599573D01*
X113730980Y-95629340D01*
X113717544Y-95645353D01*
X112370358Y-96992540D01*
X112324574Y-97030956D01*
X112294686Y-97082725D01*
X112281833Y-97101082D01*
X112260410Y-97131677D01*
X112255201Y-97151115D01*
X112245138Y-97168546D01*
X112234759Y-97227404D01*
X112220781Y-97279574D01*
X112219292Y-97285132D01*
X112224500Y-97344657D01*
X112224501Y-99013264D01*
X112139749Y-99077266D01*
X112102266Y-99105572D01*
X112018422Y-99240983D01*
X111996536Y-99358067D01*
X111996536Y-99858835D01*
X112034591Y-100020635D01*
X112130572Y-100147734D01*
X112265983Y-100231578D01*
X112305011Y-100238873D01*
X112383065Y-100253464D01*
X112958835Y-100253464D01*
X113120635Y-100215409D01*
X113247734Y-100119428D01*
X113331578Y-99984017D01*
X113353464Y-99866933D01*
X113353464Y-99366165D01*
X113315409Y-99204365D01*
X113219431Y-99077269D01*
X113219428Y-99077266D01*
X113177500Y-99051305D01*
X113177500Y-97459602D01*
X113398943Y-97238159D01*
X113630987Y-97006116D01*
X113693299Y-96972091D01*
X113764115Y-96977156D01*
X113820950Y-97019703D01*
X113846082Y-97095212D01*
X113846082Y-97175002D01*
X113861603Y-97253036D01*
X113905808Y-97319192D01*
X113971964Y-97363397D01*
X114049998Y-97378918D01*
X115250002Y-97378918D01*
X115328036Y-97363397D01*
X115374488Y-97332358D01*
X115442240Y-97311143D01*
X115510707Y-97329926D01*
X115558151Y-97382743D01*
X115570490Y-97437123D01*
X115570490Y-98858020D01*
X115564075Y-98890270D01*
X115570490Y-98922520D01*
X115570490Y-98922524D01*
X115589492Y-99018053D01*
X115589493Y-99018054D01*
X115589493Y-99018055D01*
X115661875Y-99126384D01*
X115680067Y-99138539D01*
X115689222Y-99144656D01*
X116762262Y-100217696D01*
X116796288Y-100280008D01*
X116791223Y-100350823D01*
X116748676Y-100407659D01*
X116695047Y-100430877D01*
X116601178Y-100447428D01*
X116448322Y-100535680D01*
X116334868Y-100670890D01*
X116306256Y-100749500D01*
X114889916Y-100749500D01*
X114837865Y-100680572D01*
X114763427Y-100582000D01*
X114763426Y-100581999D01*
X114621954Y-100494403D01*
X114540401Y-100479158D01*
X114499625Y-100471536D01*
X113958836Y-100471536D01*
X113789789Y-100511296D01*
X113682485Y-100592328D01*
X113657000Y-100611573D01*
X113579339Y-100737000D01*
X113283417Y-100737000D01*
X113219428Y-100652266D01*
X113084017Y-100568422D01*
X113044989Y-100561127D01*
X112966935Y-100546536D01*
X112391165Y-100546536D01*
X112229365Y-100584591D01*
X112102266Y-100680572D01*
X112018422Y-100815983D01*
X111996536Y-100933067D01*
X111996536Y-101433835D01*
X112034591Y-101595635D01*
X112130572Y-101722734D01*
X112265983Y-101806578D01*
X112305011Y-101813873D01*
X112383065Y-101828464D01*
X112958835Y-101828464D01*
X113120635Y-101790409D01*
X113247734Y-101694428D01*
X113253441Y-101685211D01*
X113282673Y-101638000D01*
X113550644Y-101638000D01*
X113586296Y-101685211D01*
X113665738Y-101790409D01*
X113686574Y-101818001D01*
X113828046Y-101905597D01*
X113909599Y-101920842D01*
X113950375Y-101928464D01*
X114491164Y-101928464D01*
X114660211Y-101888704D01*
X114793001Y-101788426D01*
X114878400Y-101650500D01*
X116364409Y-101650500D01*
X116435299Y-101638000D01*
X116481458Y-101629861D01*
X116619043Y-101550427D01*
X116724815Y-101424372D01*
X116775000Y-101433221D01*
X116775035Y-101433215D01*
X116948822Y-101402572D01*
X117101678Y-101314320D01*
X117215132Y-101179110D01*
X117275500Y-101013252D01*
X117283099Y-100992374D01*
X117287574Y-100994003D01*
X117295502Y-100967003D01*
X117349158Y-100920510D01*
X117419432Y-100910406D01*
X117490595Y-100946029D01*
X118628971Y-102084405D01*
X118662997Y-102146717D01*
X118657932Y-102217532D01*
X118615385Y-102274368D01*
X118539876Y-102299500D01*
X102675500Y-102299500D01*
X102675500Y-100427378D01*
X106999117Y-100427378D01*
X107037806Y-100592329D01*
X107114724Y-100743289D01*
X107225431Y-100871544D01*
X107330242Y-100946029D01*
X107363536Y-100969690D01*
X107521067Y-101032061D01*
X107688921Y-101055054D01*
X107688924Y-101055054D01*
X107820469Y-101041228D01*
X107857424Y-101037344D01*
X107924341Y-101013252D01*
X108016833Y-100979953D01*
X108157952Y-100886193D01*
X108272633Y-100761479D01*
X108354255Y-100613009D01*
X108398106Y-100449355D01*
X108398336Y-100427378D01*
X108899117Y-100427378D01*
X108937806Y-100592329D01*
X109014724Y-100743289D01*
X109125431Y-100871544D01*
X109230242Y-100946029D01*
X109263536Y-100969690D01*
X109421067Y-101032061D01*
X109588921Y-101055054D01*
X109588924Y-101055054D01*
X109720469Y-101041228D01*
X109757424Y-101037344D01*
X109824341Y-101013252D01*
X109916833Y-100979953D01*
X110057952Y-100886193D01*
X110172633Y-100761479D01*
X110254255Y-100613009D01*
X110298106Y-100449355D01*
X110300034Y-100265287D01*
X110287783Y-100215409D01*
X110259620Y-100100749D01*
X110181125Y-99950604D01*
X110069082Y-99823516D01*
X110062055Y-99818632D01*
X109929956Y-99726821D01*
X109771783Y-99666103D01*
X109603692Y-99644869D01*
X109435388Y-99664342D01*
X109435385Y-99664343D01*
X109276589Y-99723399D01*
X109276588Y-99723400D01*
X109276587Y-99723400D01*
X109136458Y-99818632D01*
X109086272Y-99874369D01*
X109023087Y-99944542D01*
X108943027Y-100093855D01*
X108943026Y-100093857D01*
X108900892Y-100257961D01*
X108899117Y-100427378D01*
X108398336Y-100427378D01*
X108400034Y-100265287D01*
X108387783Y-100215409D01*
X108359620Y-100100749D01*
X108281125Y-99950604D01*
X108169082Y-99823516D01*
X108162055Y-99818632D01*
X108029956Y-99726821D01*
X107871783Y-99666103D01*
X107703692Y-99644869D01*
X107535388Y-99664342D01*
X107535385Y-99664343D01*
X107376589Y-99723399D01*
X107376588Y-99723400D01*
X107376587Y-99723400D01*
X107236458Y-99818632D01*
X107186272Y-99874369D01*
X107123087Y-99944542D01*
X107043027Y-100093855D01*
X107043026Y-100093857D01*
X107000892Y-100257961D01*
X106999117Y-100427378D01*
X102675500Y-100427378D01*
X102675500Y-97993289D01*
X103073620Y-97993289D01*
X103110791Y-98195817D01*
X103186596Y-98387279D01*
X103298139Y-98560359D01*
X103441182Y-98708484D01*
X103610269Y-98826003D01*
X103798962Y-98908441D01*
X104000077Y-98952659D01*
X104205943Y-98956970D01*
X104205945Y-98956970D01*
X104266736Y-98946251D01*
X104408731Y-98921215D01*
X104600715Y-98846748D01*
X104734668Y-98761738D01*
X104774572Y-98736414D01*
X104923690Y-98594411D01*
X105042387Y-98426148D01*
X105126140Y-98238035D01*
X105171760Y-98037237D01*
X105175045Y-97802042D01*
X105168388Y-97768422D01*
X105135050Y-97600050D01*
X105095814Y-97504859D01*
X105056580Y-97409670D01*
X105038690Y-97382743D01*
X104942629Y-97238160D01*
X104797535Y-97092049D01*
X104797533Y-97092047D01*
X104626822Y-96976900D01*
X104436996Y-96897105D01*
X104436995Y-96897105D01*
X104436993Y-96897104D01*
X104235289Y-96855700D01*
X104080853Y-96854622D01*
X104029375Y-96854262D01*
X104029374Y-96854262D01*
X103827106Y-96892847D01*
X103731646Y-96931416D01*
X103636186Y-96969984D01*
X103463883Y-97082736D01*
X103316762Y-97226808D01*
X103200426Y-97396711D01*
X103200426Y-97396712D01*
X103129058Y-97563228D01*
X103119308Y-97585976D01*
X103105902Y-97649044D01*
X103076495Y-97787391D01*
X103073620Y-97993289D01*
X102675500Y-97993289D01*
X102675500Y-95453289D01*
X103073620Y-95453289D01*
X103110791Y-95655817D01*
X103186596Y-95847279D01*
X103298139Y-96020359D01*
X103441182Y-96168484D01*
X103610269Y-96286003D01*
X103798962Y-96368441D01*
X104000077Y-96412659D01*
X104205943Y-96416970D01*
X104205945Y-96416970D01*
X104266736Y-96406251D01*
X104408731Y-96381215D01*
X104600715Y-96306748D01*
X104774570Y-96196415D01*
X104774572Y-96196414D01*
X104923690Y-96054411D01*
X104935180Y-96038124D01*
X104992432Y-95956964D01*
X105042387Y-95886148D01*
X105126140Y-95698035D01*
X105171760Y-95497237D01*
X105175045Y-95262042D01*
X105169017Y-95231596D01*
X105135050Y-95060050D01*
X105068361Y-94898252D01*
X105056580Y-94869670D01*
X105035308Y-94837653D01*
X104942629Y-94698160D01*
X104797535Y-94552049D01*
X104797533Y-94552047D01*
X104626822Y-94436900D01*
X104436996Y-94357105D01*
X104436995Y-94357105D01*
X104436993Y-94357104D01*
X104235289Y-94315700D01*
X104080853Y-94314621D01*
X104029375Y-94314262D01*
X104029374Y-94314262D01*
X103827106Y-94352847D01*
X103731646Y-94391416D01*
X103636186Y-94429984D01*
X103463883Y-94542736D01*
X103316762Y-94686808D01*
X103200426Y-94856711D01*
X103119308Y-95045976D01*
X103102314Y-95125924D01*
X103076495Y-95247391D01*
X103073620Y-95453289D01*
X102675500Y-95453289D01*
X102675500Y-91974998D01*
X103071082Y-91974998D01*
X103071082Y-93675002D01*
X103086603Y-93753036D01*
X103130808Y-93819192D01*
X103196964Y-93863397D01*
X103274998Y-93878918D01*
X104975002Y-93878918D01*
X105053036Y-93863397D01*
X105119192Y-93819192D01*
X105163397Y-93753036D01*
X105178918Y-93675002D01*
X105178918Y-92511748D01*
X108859500Y-92511748D01*
X108859500Y-92688252D01*
X108919867Y-92854110D01*
X109017411Y-92970359D01*
X109032500Y-92988341D01*
X109032501Y-94448467D01*
X109026085Y-94480722D01*
X109051503Y-94608506D01*
X109105615Y-94689491D01*
X109105617Y-94689493D01*
X109123887Y-94716836D01*
X109151230Y-94735106D01*
X109253778Y-94837654D01*
X109253778Y-94963252D01*
X109314146Y-95129110D01*
X109427600Y-95264320D01*
X109580456Y-95352572D01*
X109754278Y-95383221D01*
X109928100Y-95352572D01*
X109955507Y-95336748D01*
X111277000Y-95336748D01*
X111277000Y-95513252D01*
X111337368Y-95679110D01*
X111450822Y-95814320D01*
X111575231Y-95886148D01*
X111603678Y-95902572D01*
X111777500Y-95933221D01*
X111951322Y-95902572D01*
X112104178Y-95814320D01*
X112217632Y-95679110D01*
X112278000Y-95513252D01*
X112278000Y-95314115D01*
X113039370Y-94552746D01*
X113061322Y-94540072D01*
X113214178Y-94451820D01*
X113327632Y-94316610D01*
X113388000Y-94150752D01*
X113388000Y-93974248D01*
X113327632Y-93808390D01*
X113214178Y-93673180D01*
X113061322Y-93584928D01*
X112887500Y-93554279D01*
X112713678Y-93584928D01*
X112560822Y-93673180D01*
X112447368Y-93808390D01*
X112387000Y-93974248D01*
X112387000Y-94150752D01*
X112446514Y-94314262D01*
X112460419Y-94352466D01*
X111878328Y-94934556D01*
X111777501Y-94916779D01*
X111777500Y-94916779D01*
X111603678Y-94947428D01*
X111450822Y-95035680D01*
X111337368Y-95170890D01*
X111277000Y-95336748D01*
X109955507Y-95336748D01*
X109979273Y-95323027D01*
X110080956Y-95264320D01*
X110194410Y-95129110D01*
X110254778Y-94963252D01*
X110254778Y-94786748D01*
X110194410Y-94620890D01*
X110080956Y-94485680D01*
X109996467Y-94436900D01*
X109928101Y-94397428D01*
X109699563Y-94357131D01*
X109687500Y-94345068D01*
X109687500Y-92988340D01*
X109800132Y-92854110D01*
X109860500Y-92688252D01*
X109860500Y-92511748D01*
X109800132Y-92345890D01*
X109686678Y-92210680D01*
X109533822Y-92122428D01*
X109360000Y-92091779D01*
X109186178Y-92122428D01*
X109033322Y-92210680D01*
X108919868Y-92345890D01*
X108881581Y-92451082D01*
X108859500Y-92511748D01*
X105178918Y-92511748D01*
X105178918Y-91974998D01*
X105163397Y-91896964D01*
X105119192Y-91830808D01*
X105053036Y-91786603D01*
X104975002Y-91771082D01*
X103274998Y-91771082D01*
X103196964Y-91786603D01*
X103130808Y-91830808D01*
X103086603Y-91896964D01*
X103071082Y-91974998D01*
X102675500Y-91974998D01*
X102675500Y-91200500D01*
X121926190Y-91200500D01*
X121994311Y-91220502D01*
G37*
%TD.AperFunction*%
%TA.AperFunction,Conductor*%
G36*
X130071536Y-91833066D02*
G01*
X130071536Y-92408835D01*
X130087421Y-92476372D01*
X130109591Y-92570635D01*
X130205572Y-92697734D01*
X130262000Y-92732673D01*
X130262001Y-93967832D01*
X130258828Y-94004100D01*
X130256792Y-94027369D01*
X130272261Y-94085099D01*
X130282640Y-94143957D01*
X130292701Y-94161383D01*
X130297911Y-94180825D01*
X130332193Y-94229785D01*
X130362075Y-94281543D01*
X130407854Y-94319956D01*
X131337897Y-95250000D01*
X129291362Y-97296536D01*
X129028423Y-97296536D01*
X128861458Y-97200139D01*
X128802933Y-97189820D01*
X128744409Y-97179500D01*
X128675644Y-97179500D01*
X128674869Y-97179292D01*
X128674868Y-97179292D01*
X128672491Y-97179500D01*
X128047166Y-97179500D01*
X127932196Y-97102679D01*
X127932293Y-97102534D01*
X127900058Y-97085672D01*
X127864926Y-97023977D01*
X127868726Y-96953082D01*
X127910251Y-96895496D01*
X127940932Y-96881485D01*
X128019192Y-96829192D01*
X128063397Y-96763036D01*
X128078918Y-96685002D01*
X128078918Y-96005700D01*
X128761591Y-95323027D01*
X128768757Y-95319586D01*
X128775924Y-95316145D01*
X128794522Y-95292887D01*
X128805670Y-95278948D01*
X128816776Y-95267842D01*
X128824943Y-95254849D01*
X128854426Y-95217981D01*
X128854426Y-95217980D01*
X128854427Y-95217979D01*
X128858045Y-95202182D01*
X128866712Y-95188392D01*
X128872081Y-95140896D01*
X128875510Y-95125924D01*
X128875510Y-95110569D01*
X128880832Y-95063493D01*
X128875510Y-95048253D01*
X128875510Y-93437720D01*
X128880778Y-93422719D01*
X128875510Y-93375385D01*
X128875510Y-93359674D01*
X128872096Y-93344707D01*
X128866875Y-93297796D01*
X128858264Y-93284069D01*
X128854641Y-93268186D01*
X128824844Y-93230794D01*
X128824769Y-93230674D01*
X128816689Y-93217793D01*
X128805839Y-93206943D01*
X128776308Y-93169885D01*
X128761767Y-93162871D01*
X128521640Y-92922744D01*
X128487614Y-92860432D01*
X128491421Y-92807212D01*
X128457623Y-92814713D01*
X128376989Y-92778094D01*
X127762317Y-92163422D01*
X127755434Y-92149088D01*
X127755433Y-92149087D01*
X127725179Y-92124892D01*
X127684472Y-92066728D01*
X127681672Y-91995786D01*
X127717671Y-91934593D01*
X127803874Y-91900490D01*
X128496536Y-91900490D01*
X128496536Y-92408835D01*
X128534590Y-92570633D01*
X128534591Y-92570634D01*
X128534591Y-92570635D01*
X128566634Y-92613067D01*
X128591723Y-92679480D01*
X128584261Y-92714492D01*
X128601746Y-92707970D01*
X128677066Y-92726522D01*
X128765983Y-92781578D01*
X128800291Y-92787991D01*
X128883065Y-92803464D01*
X129383835Y-92803464D01*
X129545635Y-92765409D01*
X129672734Y-92669428D01*
X129756578Y-92534017D01*
X129778464Y-92416933D01*
X129778464Y-91841166D01*
X129765631Y-91786603D01*
X129740409Y-91679365D01*
X129740408Y-91679364D01*
X129721855Y-91600480D01*
X130115012Y-91600480D01*
X130071536Y-91833066D01*
G37*
%TD.AperFunction*%
%TA.AperFunction,Conductor*%
G36*
X137296082Y-95474510D02*
G01*
X132805241Y-95474510D01*
X132772990Y-95468095D01*
X132740739Y-95474510D01*
X132740735Y-95474510D01*
X132647598Y-95493036D01*
X132645208Y-95493511D01*
X132645207Y-95493512D01*
X132645206Y-95493512D01*
X132639049Y-95497626D01*
X132570783Y-95543240D01*
X132531180Y-95569702D01*
X132463427Y-95590917D01*
X132394960Y-95572134D01*
X132347517Y-95519317D01*
X132342777Y-95421842D01*
X132345268Y-95415000D01*
X132400500Y-95263252D01*
X132400500Y-95086748D01*
X132387294Y-95050465D01*
X132382791Y-94979613D01*
X132417309Y-94917572D01*
X132479888Y-94884042D01*
X132568695Y-94898252D01*
X132576177Y-94902572D01*
X132750000Y-94933221D01*
X132923822Y-94902572D01*
X133076678Y-94814320D01*
X133190132Y-94679110D01*
X133250500Y-94513252D01*
X133250500Y-94205400D01*
X133376188Y-94227562D01*
X133550010Y-94258211D01*
X133723832Y-94227562D01*
X133876688Y-94139310D01*
X133972194Y-94025490D01*
X137296082Y-94025490D01*
X137296082Y-95474510D01*
G37*
%TD.AperFunction*%
%TD*%
M02*
