%TF.GenerationSoftware,KiCad,Pcbnew,(5.99.0-3299-gfc1665ff2)*%
%TF.CreationDate,2020-09-21T16:58:29+07:00*%
%TF.ProjectId,smart_wristband,736d6172-745f-4777-9269-737462616e64,rev?*%
%TF.SameCoordinates,Original*%
%TF.FileFunction,Legend,Bot*%
%TF.FilePolarity,Positive*%
%FSLAX46Y46*%
G04 Gerber Fmt 4.6, Leading zero omitted, Abs format (unit mm)*
G04 Created by KiCad (PCBNEW (5.99.0-3299-gfc1665ff2)) date 2020-09-21 16:58:29*
%MOMM*%
%LPD*%
G01*
G04 APERTURE LIST*
%ADD10C,0.300000*%
%ADD11C,0.150000*%
%ADD12C,0.015000*%
%ADD13C,0.120000*%
%ADD14C,0.127000*%
%ADD15C,0.200000*%
%ADD16C,0.152400*%
G04 APERTURE END LIST*
D10*
%TO.C,G\u002A\u002A\u002A*%
X140842571Y-96738000D02*
X140987714Y-96665428D01*
X141205428Y-96665428D01*
X141423142Y-96738000D01*
X141568285Y-96883142D01*
X141640857Y-97028285D01*
X141713428Y-97318571D01*
X141713428Y-97536285D01*
X141640857Y-97826571D01*
X141568285Y-97971714D01*
X141423142Y-98116857D01*
X141205428Y-98189428D01*
X141060285Y-98189428D01*
X140842571Y-98116857D01*
X140770000Y-98044285D01*
X140770000Y-97536285D01*
X141060285Y-97536285D01*
X139899142Y-96665428D02*
X139899142Y-97028285D01*
X140262000Y-96883142D02*
X139899142Y-97028285D01*
X139536285Y-96883142D01*
X140116857Y-97318571D02*
X139899142Y-97028285D01*
X139681428Y-97318571D01*
X138738000Y-96665428D02*
X138738000Y-97028285D01*
X139100857Y-96883142D02*
X138738000Y-97028285D01*
X138375142Y-96883142D01*
X138955714Y-97318571D02*
X138738000Y-97028285D01*
X138520285Y-97318571D01*
X137576857Y-96665428D02*
X137576857Y-97028285D01*
X137939714Y-96883142D02*
X137576857Y-97028285D01*
X137214000Y-96883142D01*
X137794571Y-97318571D02*
X137576857Y-97028285D01*
X137359142Y-97318571D01*
D11*
%TO.C,R4*%
X114557380Y-100233333D02*
X114081190Y-99900000D01*
X114557380Y-99661904D02*
X113557380Y-99661904D01*
X113557380Y-100042857D01*
X113605000Y-100138095D01*
X113652619Y-100185714D01*
X113747857Y-100233333D01*
X113890714Y-100233333D01*
X113985952Y-100185714D01*
X114033571Y-100138095D01*
X114081190Y-100042857D01*
X114081190Y-99661904D01*
X113890714Y-101090476D02*
X114557380Y-101090476D01*
X113509761Y-100852380D02*
X114224047Y-100614285D01*
X114224047Y-101233333D01*
%TO.C,J4*%
X114997619Y-93033333D02*
X114283333Y-93033333D01*
X114140476Y-93080952D01*
X114045238Y-93176190D01*
X113997619Y-93319047D01*
X113997619Y-93414285D01*
X114664285Y-92128571D02*
X113997619Y-92128571D01*
X115045238Y-92366666D02*
X114330952Y-92604761D01*
X114330952Y-91985714D01*
%TO.C,C5*%
X130987142Y-96983333D02*
X131034761Y-96935714D01*
X131082380Y-96792857D01*
X131082380Y-96697619D01*
X131034761Y-96554761D01*
X130939523Y-96459523D01*
X130844285Y-96411904D01*
X130653809Y-96364285D01*
X130510952Y-96364285D01*
X130320476Y-96411904D01*
X130225238Y-96459523D01*
X130130000Y-96554761D01*
X130082380Y-96697619D01*
X130082380Y-96792857D01*
X130130000Y-96935714D01*
X130177619Y-96983333D01*
X130082380Y-97888095D02*
X130082380Y-97411904D01*
X130558571Y-97364285D01*
X130510952Y-97411904D01*
X130463333Y-97507142D01*
X130463333Y-97745238D01*
X130510952Y-97840476D01*
X130558571Y-97888095D01*
X130653809Y-97935714D01*
X130891904Y-97935714D01*
X130987142Y-97888095D01*
X131034761Y-97840476D01*
X131082380Y-97745238D01*
X131082380Y-97507142D01*
X131034761Y-97411904D01*
X130987142Y-97364285D01*
D12*
%TO.C,IC2*%
X113862380Y-96243809D02*
X112862380Y-96243809D01*
X113767142Y-97291428D02*
X113814761Y-97243809D01*
X113862380Y-97100952D01*
X113862380Y-97005714D01*
X113814761Y-96862857D01*
X113719523Y-96767619D01*
X113624285Y-96720000D01*
X113433809Y-96672380D01*
X113290952Y-96672380D01*
X113100476Y-96720000D01*
X113005238Y-96767619D01*
X112910000Y-96862857D01*
X112862380Y-97005714D01*
X112862380Y-97100952D01*
X112910000Y-97243809D01*
X112957619Y-97291428D01*
X112957619Y-97672380D02*
X112910000Y-97720000D01*
X112862380Y-97815238D01*
X112862380Y-98053333D01*
X112910000Y-98148571D01*
X112957619Y-98196190D01*
X113052857Y-98243809D01*
X113148095Y-98243809D01*
X113290952Y-98196190D01*
X113862380Y-97624761D01*
X113862380Y-98243809D01*
D11*
%TO.C,C8*%
X116012142Y-100158333D02*
X116059761Y-100110714D01*
X116107380Y-99967857D01*
X116107380Y-99872619D01*
X116059761Y-99729761D01*
X115964523Y-99634523D01*
X115869285Y-99586904D01*
X115678809Y-99539285D01*
X115535952Y-99539285D01*
X115345476Y-99586904D01*
X115250238Y-99634523D01*
X115155000Y-99729761D01*
X115107380Y-99872619D01*
X115107380Y-99967857D01*
X115155000Y-100110714D01*
X115202619Y-100158333D01*
X115535952Y-100729761D02*
X115488333Y-100634523D01*
X115440714Y-100586904D01*
X115345476Y-100539285D01*
X115297857Y-100539285D01*
X115202619Y-100586904D01*
X115155000Y-100634523D01*
X115107380Y-100729761D01*
X115107380Y-100920238D01*
X115155000Y-101015476D01*
X115202619Y-101063095D01*
X115297857Y-101110714D01*
X115345476Y-101110714D01*
X115440714Y-101063095D01*
X115488333Y-101015476D01*
X115535952Y-100920238D01*
X115535952Y-100729761D01*
X115583571Y-100634523D01*
X115631190Y-100586904D01*
X115726428Y-100539285D01*
X115916904Y-100539285D01*
X116012142Y-100586904D01*
X116059761Y-100634523D01*
X116107380Y-100729761D01*
X116107380Y-100920238D01*
X116059761Y-101015476D01*
X116012142Y-101063095D01*
X115916904Y-101110714D01*
X115726428Y-101110714D01*
X115631190Y-101063095D01*
X115583571Y-101015476D01*
X115535952Y-100920238D01*
%TO.C,G\u002A\u002A\u002A*%
G36*
X141153251Y-95436964D02*
G01*
X141195656Y-95456933D01*
X141293639Y-95576820D01*
X141326354Y-95738059D01*
X141277316Y-95881574D01*
X141163169Y-95955322D01*
X140992191Y-95968585D01*
X140846200Y-95899800D01*
X140784512Y-95806749D01*
X140775105Y-95653386D01*
X140848675Y-95517649D01*
X140982348Y-95434016D01*
X141153251Y-95436964D01*
G37*
G36*
X139677250Y-95609293D02*
G01*
X139903884Y-95623053D01*
X140032536Y-95645926D01*
X140090045Y-95686597D01*
X140103250Y-95753750D01*
X140102976Y-95766608D01*
X140083598Y-95828441D01*
X140015094Y-95868322D01*
X139871537Y-95895193D01*
X139627000Y-95917996D01*
X139539231Y-95924758D01*
X139253104Y-95943515D01*
X139065860Y-95946238D01*
X138955446Y-95930438D01*
X138899811Y-95893625D01*
X138876904Y-95833310D01*
X138906750Y-95731047D01*
X139050356Y-95653446D01*
X139301951Y-95611782D01*
X139653749Y-95608312D01*
X139677250Y-95609293D01*
G37*
G36*
X143507941Y-95480861D02*
G01*
X143605031Y-95602370D01*
X143627108Y-95753508D01*
X143551300Y-95899800D01*
X143430307Y-95963607D01*
X143258730Y-95962388D01*
X143120185Y-95881574D01*
X143094613Y-95841218D01*
X143073504Y-95685613D01*
X143128878Y-95531169D01*
X143244250Y-95436964D01*
X143358710Y-95423460D01*
X143507941Y-95480861D01*
G37*
G36*
X139478861Y-95083549D02*
G01*
X139736834Y-95137202D01*
X139998441Y-95225572D01*
X140138986Y-95327676D01*
X140155733Y-95442063D01*
X140096284Y-95507145D01*
X139951399Y-95507859D01*
X139836778Y-95484832D01*
X139624259Y-95444129D01*
X139384059Y-95399565D01*
X139196492Y-95357068D01*
X139002596Y-95277144D01*
X138928773Y-95182345D01*
X138978304Y-95075296D01*
X139040584Y-95048179D01*
X139206250Y-95046196D01*
X139478861Y-95083549D01*
G37*
G36*
X142285041Y-95461736D02*
G01*
X142345530Y-95575220D01*
X142378526Y-95660454D01*
X142503632Y-95733970D01*
X142563947Y-95750871D01*
X142651442Y-95834792D01*
X142651855Y-95941680D01*
X142556504Y-96023927D01*
X142461429Y-96046162D01*
X142268007Y-96059829D01*
X142055800Y-96052353D01*
X141873153Y-96026193D01*
X141768413Y-95983812D01*
X141763831Y-95979011D01*
X141731520Y-95870483D01*
X141788147Y-95767684D01*
X141906591Y-95722000D01*
X141988410Y-95698625D01*
X142051459Y-95579125D01*
X142086367Y-95490611D01*
X142181805Y-95433757D01*
X142285041Y-95461736D01*
G37*
G36*
X144926371Y-99214500D02*
G01*
X144726157Y-99700678D01*
X144414976Y-100187022D01*
X144022741Y-100614838D01*
X144007030Y-100629229D01*
X143816851Y-100818910D01*
X143658121Y-101003023D01*
X143563805Y-101143591D01*
X143522036Y-101220266D01*
X143413608Y-101322600D01*
X143237713Y-101361024D01*
X143154419Y-101364824D01*
X143001681Y-101331893D01*
X142879519Y-101218149D01*
X142829978Y-101159945D01*
X142754427Y-101103141D01*
X142646091Y-101071916D01*
X142473575Y-101058720D01*
X142205487Y-101056000D01*
X142130689Y-101056486D01*
X141883319Y-101066825D01*
X141718750Y-101088683D01*
X141659000Y-101119500D01*
X141625231Y-101196275D01*
X141532000Y-101310000D01*
X141497893Y-101341382D01*
X141310836Y-101431165D01*
X141121983Y-101398841D01*
X140950460Y-101246500D01*
X140809617Y-101056000D01*
X139892215Y-101056000D01*
X139725956Y-101056088D01*
X139413756Y-101058132D01*
X139196541Y-101065463D01*
X139051819Y-101081436D01*
X138957098Y-101109406D01*
X138889885Y-101152725D01*
X138827689Y-101214750D01*
X138821773Y-101221022D01*
X138681032Y-101328924D01*
X138547501Y-101373500D01*
X138542129Y-101373376D01*
X138406640Y-101324772D01*
X138267312Y-101214750D01*
X138210857Y-101158407D01*
X138126342Y-101102989D01*
X138010080Y-101072166D01*
X137830334Y-101058862D01*
X137555369Y-101056000D01*
X137418944Y-101056541D01*
X137190151Y-101063658D01*
X137047910Y-101083430D01*
X136964259Y-101121373D01*
X136911237Y-101182999D01*
X136791522Y-101277118D01*
X136623332Y-101298256D01*
X136450623Y-101254808D01*
X136315858Y-101157593D01*
X136261500Y-101017432D01*
X136261478Y-101016407D01*
X136217419Y-100931314D01*
X136105220Y-100789898D01*
X135948676Y-100622223D01*
X135922705Y-100595609D01*
X135683042Y-100293704D01*
X135452619Y-99913071D01*
X135246622Y-99488298D01*
X135080235Y-99053974D01*
X134968642Y-98644687D01*
X134927028Y-98295026D01*
X134920346Y-98169060D01*
X134886494Y-98069850D01*
X134803531Y-97983825D01*
X134649478Y-97888661D01*
X134402358Y-97762029D01*
X134281431Y-97698143D01*
X134137328Y-97598228D01*
X135191852Y-97598228D01*
X135205773Y-97912750D01*
X135215397Y-98051492D01*
X135248340Y-98375878D01*
X135291310Y-98674594D01*
X135337529Y-98897000D01*
X135458524Y-99262218D01*
X135670625Y-99722280D01*
X135925278Y-100130735D01*
X136201510Y-100449887D01*
X136367165Y-100619079D01*
X136493136Y-100774734D01*
X136550304Y-100881355D01*
X136584996Y-101005376D01*
X136633966Y-101030008D01*
X136703090Y-100934438D01*
X136732720Y-100888575D01*
X136785182Y-100848753D01*
X136876400Y-100823430D01*
X137028433Y-100809360D01*
X137263340Y-100803299D01*
X137603180Y-100802000D01*
X137893657Y-100802799D01*
X138142853Y-100807605D01*
X138303615Y-100819531D01*
X138396974Y-100841675D01*
X138443960Y-100877132D01*
X138465601Y-100929000D01*
X138511417Y-101029972D01*
X138579438Y-101040347D01*
X138643180Y-100927645D01*
X138648176Y-100912866D01*
X138671142Y-100872292D01*
X138717313Y-100843200D01*
X138803985Y-100824064D01*
X138948451Y-100813355D01*
X139168010Y-100809546D01*
X139479956Y-100811110D01*
X139901585Y-100816520D01*
X140138239Y-100819932D01*
X140499148Y-100826272D01*
X140759064Y-100834291D01*
X140935009Y-100846190D01*
X141044007Y-100864171D01*
X141103079Y-100890437D01*
X141129250Y-100927187D01*
X141139542Y-100976625D01*
X141152421Y-101031893D01*
X141218818Y-101111618D01*
X141302522Y-101086376D01*
X141368036Y-100958918D01*
X141408339Y-100798337D01*
X142248045Y-100816043D01*
X142294656Y-100817031D01*
X142621141Y-100825106D01*
X142843734Y-100835451D01*
X142983079Y-100851921D01*
X143059816Y-100878371D01*
X143094590Y-100918654D01*
X143108042Y-100976625D01*
X143150077Y-101092884D01*
X143218764Y-101117792D01*
X143282152Y-101049496D01*
X143310000Y-100899540D01*
X143321935Y-100843186D01*
X143425679Y-100709146D01*
X143642545Y-100544998D01*
X143754144Y-100464279D01*
X144077381Y-100148135D01*
X144364691Y-99744944D01*
X144593528Y-99284584D01*
X144611423Y-99239153D01*
X144659669Y-99099478D01*
X144693485Y-98955807D01*
X144715243Y-98783544D01*
X144727314Y-98558094D01*
X144732068Y-98254861D01*
X144731875Y-97849250D01*
X144730933Y-97668160D01*
X144725981Y-97300001D01*
X144714369Y-97013069D01*
X144692477Y-96774865D01*
X144656681Y-96552889D01*
X144603362Y-96314641D01*
X144528898Y-96027623D01*
X144502600Y-95930671D01*
X144338901Y-95381909D01*
X144172461Y-94912001D01*
X144007717Y-94530276D01*
X143849108Y-94246064D01*
X143701069Y-94068696D01*
X143568040Y-94007499D01*
X143514434Y-94022276D01*
X143380152Y-94116691D01*
X143225973Y-94270049D01*
X143080433Y-94449111D01*
X142972067Y-94620638D01*
X142929410Y-94751390D01*
X142887052Y-94878030D01*
X142769932Y-94971522D01*
X142627375Y-94977877D01*
X142585138Y-94944522D01*
X142548000Y-94831455D01*
X142538632Y-94764188D01*
X142484500Y-94674249D01*
X142445804Y-94677130D01*
X142421000Y-94763518D01*
X142379586Y-94880547D01*
X142261181Y-94971318D01*
X142119375Y-94977877D01*
X142077138Y-94944522D01*
X142040000Y-94831455D01*
X142039413Y-94809278D01*
X142000831Y-94693533D01*
X141926492Y-94687510D01*
X141850953Y-94797428D01*
X141772144Y-94926581D01*
X141665233Y-94954485D01*
X141546180Y-94864132D01*
X141423748Y-94658375D01*
X141368953Y-94546731D01*
X141219506Y-94296029D01*
X141065976Y-94101213D01*
X140926100Y-93982692D01*
X140817614Y-93960875D01*
X140816687Y-93961242D01*
X140728781Y-94031100D01*
X140597144Y-94174291D01*
X140449909Y-94360258D01*
X140363984Y-94475719D01*
X140249729Y-94614719D01*
X140159629Y-94682066D01*
X140061006Y-94697591D01*
X139921183Y-94681124D01*
X139756086Y-94656212D01*
X139469871Y-94615044D01*
X139276980Y-94595457D01*
X139155081Y-94599849D01*
X139081841Y-94630617D01*
X139034925Y-94690158D01*
X138992000Y-94780869D01*
X138948925Y-94857987D01*
X138783489Y-95008720D01*
X138576007Y-95070089D01*
X138360174Y-95043737D01*
X138169686Y-94931303D01*
X138038238Y-94734429D01*
X138010603Y-94674804D01*
X137918747Y-94588003D01*
X137827596Y-94618945D01*
X137764247Y-94764642D01*
X137707122Y-94925322D01*
X137551431Y-95105195D01*
X137339953Y-95198816D01*
X137103761Y-95195077D01*
X136873927Y-95082873D01*
X136789688Y-95021715D01*
X136705099Y-94992254D01*
X136609294Y-95017468D01*
X136473412Y-95106139D01*
X136268590Y-95267048D01*
X136083943Y-95438325D01*
X135789965Y-95810822D01*
X135533699Y-96262847D01*
X135333639Y-96764770D01*
X135281837Y-96931675D01*
X135235092Y-97114473D01*
X135224527Y-97155788D01*
X135196318Y-97361940D01*
X135191852Y-97598228D01*
X134137328Y-97598228D01*
X133923179Y-97449747D01*
X133828128Y-97349960D01*
X134332237Y-97349960D01*
X134373048Y-97419396D01*
X134425162Y-97458535D01*
X134543425Y-97521074D01*
X134613931Y-97481433D01*
X134669055Y-97329813D01*
X134687964Y-97255159D01*
X134701280Y-97114473D01*
X134656613Y-97043410D01*
X134639091Y-97032481D01*
X134556482Y-96999918D01*
X134490156Y-97041029D01*
X134402615Y-97175283D01*
X134368390Y-97236632D01*
X134332237Y-97349960D01*
X133828128Y-97349960D01*
X133616761Y-97128064D01*
X133335039Y-96706250D01*
X133272426Y-96587941D01*
X133601977Y-96587941D01*
X133625650Y-96649404D01*
X133705206Y-96763457D01*
X133830390Y-96922602D01*
X133999508Y-96746081D01*
X134036754Y-96706916D01*
X134119245Y-96605503D01*
X134121834Y-96539007D01*
X134052608Y-96464564D01*
X133988154Y-96416588D01*
X133900822Y-96403400D01*
X133783248Y-96457147D01*
X133603136Y-96586599D01*
X133601977Y-96587941D01*
X133272426Y-96587941D01*
X133260841Y-96566053D01*
X133162854Y-96267687D01*
X133177921Y-96018944D01*
X133305864Y-95814363D01*
X133395176Y-95735952D01*
X133577864Y-95652535D01*
X133760468Y-95683243D01*
X133952591Y-95831271D01*
X134163836Y-96099813D01*
X134309744Y-96296839D01*
X134491856Y-96509508D01*
X134520971Y-96539007D01*
X134671028Y-96691047D01*
X134823444Y-96817522D01*
X134925286Y-96864999D01*
X134938308Y-96860040D01*
X134996610Y-96777935D01*
X135057783Y-96626875D01*
X135116261Y-96459322D01*
X135376165Y-95916826D01*
X135717897Y-95429810D01*
X136123358Y-95021107D01*
X136574447Y-94713550D01*
X137000175Y-94511429D01*
X137472416Y-94351877D01*
X137964321Y-94259451D01*
X138499373Y-94231565D01*
X139101058Y-94265630D01*
X139792858Y-94359062D01*
X139804346Y-94360942D01*
X139950867Y-94377934D01*
X140050531Y-94354914D01*
X140143140Y-94270474D01*
X140268494Y-94103202D01*
X140324519Y-94028142D01*
X140555943Y-93785837D01*
X140777239Y-93669711D01*
X140991305Y-93679699D01*
X141201038Y-93815736D01*
X141409337Y-94077758D01*
X141608740Y-94388500D01*
X142732516Y-94388500D01*
X142941883Y-94127937D01*
X142951627Y-94115916D01*
X143170669Y-93892404D01*
X143392367Y-93743878D01*
X143587725Y-93689999D01*
X143669478Y-93707300D01*
X143840545Y-93822023D01*
X144025171Y-94026711D01*
X144208552Y-94300794D01*
X144375884Y-94623699D01*
X144512363Y-94974856D01*
X144589178Y-95211963D01*
X145156089Y-95171723D01*
X145327981Y-95160237D01*
X145536356Y-95151874D01*
X145655849Y-95160232D01*
X145710163Y-95188092D01*
X145723001Y-95238234D01*
X145716193Y-95297462D01*
X145677413Y-95346196D01*
X145582906Y-95380418D01*
X145409030Y-95408090D01*
X145132143Y-95437171D01*
X144983162Y-95454802D01*
X144793319Y-95495717D01*
X144726634Y-95542344D01*
X144780987Y-95590244D01*
X144954260Y-95634978D01*
X145244332Y-95672106D01*
X145301255Y-95677505D01*
X145529577Y-95703227D01*
X145697096Y-95728569D01*
X145770910Y-95748742D01*
X145781297Y-95778336D01*
X145763094Y-95881905D01*
X145732136Y-95928106D01*
X145656581Y-95956075D01*
X145511898Y-95958629D01*
X145269856Y-95939038D01*
X144815714Y-95894288D01*
X144855779Y-96078019D01*
X144888025Y-96232151D01*
X144998965Y-96911770D01*
X145058823Y-97574381D01*
X145067045Y-98195418D01*
X145062335Y-98254861D01*
X145023079Y-98750314D01*
X144926371Y-99214500D01*
G37*
D13*
%TO.C,J5*%
X140240000Y-91415000D02*
X136360000Y-91415000D01*
X135190000Y-94535000D02*
X136240000Y-94535000D01*
X135190000Y-93385000D02*
X135190000Y-94535000D01*
X140360000Y-94535000D02*
X140360000Y-95525000D01*
X141410000Y-94535000D02*
X140360000Y-94535000D01*
X141410000Y-93385000D02*
X141410000Y-94535000D01*
%TO.C,D1*%
X127660000Y-91590000D02*
X127660000Y-93060000D01*
X127660000Y-93060000D02*
X125375000Y-93060000D01*
X125375000Y-91590000D02*
X127660000Y-91590000D01*
%TO.C,R4*%
X112165000Y-100562779D02*
X112165000Y-100237221D01*
X113185000Y-100562779D02*
X113185000Y-100237221D01*
%TO.C,R7*%
X132862221Y-92635000D02*
X133187779Y-92635000D01*
X132862221Y-91615000D02*
X133187779Y-91615000D01*
%TO.C,J4*%
X115890000Y-92700000D02*
X115890000Y-93760000D01*
X120010000Y-91640000D02*
X120010000Y-93760000D01*
X117950000Y-91640000D02*
X117950000Y-93760000D01*
X115890000Y-93760000D02*
X116950000Y-93760000D01*
X117950000Y-91640000D02*
X120010000Y-91640000D01*
X117950000Y-93760000D02*
X120010000Y-93760000D01*
D14*
%TO.C,Q1*%
X125575000Y-101790000D02*
X121075000Y-101790000D01*
X125575000Y-98760000D02*
X121075000Y-98760000D01*
D15*
X127865000Y-98900000D02*
G75*
G03*
X127865000Y-98900000I-100000J0D01*
G01*
D13*
%TO.C,C5*%
X129710000Y-97321267D02*
X129710000Y-96978733D01*
X128690000Y-97321267D02*
X128690000Y-96978733D01*
%TO.C,D2*%
X124485000Y-92860000D02*
X122200000Y-92860000D01*
X124485000Y-91390000D02*
X124485000Y-92860000D01*
X122200000Y-91390000D02*
X124485000Y-91390000D01*
%TO.C,R6*%
X130087779Y-91615000D02*
X129762221Y-91615000D01*
X130087779Y-92635000D02*
X129762221Y-92635000D01*
D16*
%TO.C,IC2*%
X115140000Y-97278000D02*
X115140000Y-97372000D01*
X116760000Y-97372000D02*
X116760000Y-97278000D01*
X116760000Y-96472000D02*
X116760000Y-96378000D01*
X115140000Y-97372000D02*
X116760000Y-97372000D01*
X116760000Y-95522000D02*
X116760000Y-95428000D01*
X116760000Y-94622000D02*
X116760000Y-94528000D01*
X116760000Y-94528000D02*
X115140000Y-94528000D01*
X115140000Y-94528000D02*
X115140000Y-94622000D01*
X115140000Y-95428000D02*
X115140000Y-96472000D01*
D14*
X116350000Y-94950000D02*
G75*
G03*
X116350000Y-94950000I-100000J0D01*
G01*
D13*
%TO.C,R3*%
X119465000Y-96862221D02*
X119465000Y-97187779D01*
X120485000Y-96862221D02*
X120485000Y-97187779D01*
D11*
%TO.C,IC1*%
X122350000Y-98300000D02*
X122350000Y-98100000D01*
X122350000Y-93150000D02*
X122350000Y-93350000D01*
X122350000Y-93150000D02*
X126500000Y-93150000D01*
X126500000Y-93150000D02*
X126500000Y-93350000D01*
X126500000Y-98300000D02*
X126500000Y-98100000D01*
X122350000Y-98100000D02*
X121050000Y-98100000D01*
X122350000Y-98300000D02*
X126500000Y-98300000D01*
D13*
%TO.C,R5*%
X115987779Y-98935000D02*
X115662221Y-98935000D01*
X115987779Y-97915000D02*
X115662221Y-97915000D01*
%TO.C,C8*%
X113715000Y-100496267D02*
X113715000Y-100153733D01*
X114735000Y-100496267D02*
X114735000Y-100153733D01*
%TD*%
M02*
